G04 #@! TF.GenerationSoftware,KiCad,Pcbnew,(5.0.2)-1*
G04 #@! TF.CreationDate,2019-08-24T11:33:58-04:00*
G04 #@! TF.ProjectId,doof_PCB,646f6f66-5f50-4434-922e-6b696361645f,rev?*
G04 #@! TF.SameCoordinates,Original*
G04 #@! TF.FileFunction,Legend,Top*
G04 #@! TF.FilePolarity,Positive*
%FSLAX46Y46*%
G04 Gerber Fmt 4.6, Leading zero omitted, Abs format (unit mm)*
G04 Created by KiCad (PCBNEW (5.0.2)-1) date 8/24/2019 11:33:58 AM*
%MOMM*%
%LPD*%
G01*
G04 APERTURE LIST*
%ADD10C,0.300000*%
%ADD11C,0.150000*%
%ADD12C,0.120000*%
G04 APERTURE END LIST*
D10*
X176999200Y-70789657D02*
X176927771Y-70932514D01*
X176927771Y-71146800D01*
X176999200Y-71361085D01*
X177142057Y-71503942D01*
X177284914Y-71575371D01*
X177570628Y-71646800D01*
X177784914Y-71646800D01*
X178070628Y-71575371D01*
X178213485Y-71503942D01*
X178356342Y-71361085D01*
X178427771Y-71146800D01*
X178427771Y-71003942D01*
X178356342Y-70789657D01*
X178284914Y-70718228D01*
X177784914Y-70718228D01*
X177784914Y-71003942D01*
X178427771Y-70075371D02*
X176927771Y-70075371D01*
X178427771Y-69218228D01*
X176927771Y-69218228D01*
X178427771Y-68503942D02*
X176927771Y-68503942D01*
X176927771Y-68146800D01*
X176999200Y-67932514D01*
X177142057Y-67789657D01*
X177284914Y-67718228D01*
X177570628Y-67646800D01*
X177784914Y-67646800D01*
X178070628Y-67718228D01*
X178213485Y-67789657D01*
X178356342Y-67932514D01*
X178427771Y-68146800D01*
X178427771Y-68503942D01*
X176876971Y-65462114D02*
X176876971Y-66176400D01*
X177591257Y-66247828D01*
X177519828Y-66176400D01*
X177448400Y-66033542D01*
X177448400Y-65676400D01*
X177519828Y-65533542D01*
X177591257Y-65462114D01*
X177734114Y-65390685D01*
X178091257Y-65390685D01*
X178234114Y-65462114D01*
X178305542Y-65533542D01*
X178376971Y-65676400D01*
X178376971Y-66033542D01*
X178305542Y-66176400D01*
X178234114Y-66247828D01*
X176876971Y-64962114D02*
X178376971Y-64462114D01*
X176876971Y-63962114D01*
D11*
G04 #@! TO.C,J5*
X186817000Y-62306200D02*
X186817000Y-48361600D01*
X186791600Y-48352200D02*
X171754800Y-48352200D01*
X171754800Y-48361600D02*
X171754800Y-62306200D01*
X171754800Y-62315600D02*
X186817000Y-62315600D01*
D12*
G04 #@! TO.C,Y1*
X163464000Y-27793200D02*
X163464000Y-40393200D01*
X168564000Y-27793200D02*
X163464000Y-27793200D01*
X168564000Y-40393200D02*
X168564000Y-27793200D01*
G04 #@! TO.C,C1*
X172037000Y-33402900D02*
X174037000Y-33402900D01*
X174037000Y-31362900D02*
X172037000Y-31362900D01*
G04 #@! TO.C,C2*
X172037000Y-44162900D02*
X174037000Y-44162900D01*
X174037000Y-42122900D02*
X172037000Y-42122900D01*
G04 #@! TO.C,C3*
X174037000Y-27682900D02*
X172037000Y-27682900D01*
X172037000Y-29722900D02*
X174037000Y-29722900D01*
G04 #@! TO.C,C4*
X174037000Y-38602900D02*
X172037000Y-38602900D01*
X172037000Y-40642900D02*
X174037000Y-40642900D01*
G04 #@! TO.C,C5*
X165268000Y-47705200D02*
X167268000Y-47705200D01*
X167268000Y-45665200D02*
X165268000Y-45665200D01*
G04 #@! TO.C,C6*
X174076000Y-45665200D02*
X172076000Y-45665200D01*
X172076000Y-47705200D02*
X174076000Y-47705200D01*
G04 #@! TO.C,C7*
X172037000Y-37072900D02*
X174037000Y-37072900D01*
X174037000Y-35032900D02*
X172037000Y-35032900D01*
G04 #@! TO.C,J1*
X116013000Y-34465200D02*
X116013000Y-37065200D01*
X101313000Y-34465200D02*
X116013000Y-34465200D01*
X116013000Y-43665200D02*
X114113000Y-43665200D01*
X116013000Y-40965200D02*
X116013000Y-43665200D01*
X101313000Y-43665200D02*
X101313000Y-34465200D01*
X110113000Y-43665200D02*
X101313000Y-43665200D01*
G04 #@! TO.C,J2*
X186604000Y-82907000D02*
X170824000Y-82907000D01*
X170824000Y-82907000D02*
X170824000Y-73557000D01*
X170824000Y-73557000D02*
X186604000Y-73557000D01*
X186604000Y-73557000D02*
X186604000Y-82907000D01*
X186854000Y-73307000D02*
X184314000Y-73307000D01*
X186854000Y-73307000D02*
X186854000Y-75847000D01*
G04 #@! TO.C,J4*
X186639000Y-72847200D02*
X186639000Y-62687200D01*
X179019000Y-72847200D02*
X186639000Y-72847200D01*
X179019000Y-62687200D02*
X179019000Y-72847200D01*
X186639000Y-62687200D02*
X179019000Y-62687200D01*
X185369000Y-62687200D02*
X185369000Y-72847200D01*
G04 #@! TO.C,R1*
X112487000Y-31746800D02*
X114487000Y-31746800D01*
X114487000Y-33886800D02*
X112487000Y-33886800D01*
G04 #@! TO.C,R2*
X114487000Y-28451200D02*
X112487000Y-28451200D01*
X112487000Y-26311200D02*
X114487000Y-26311200D01*
G04 #@! TO.C,R3*
X112487000Y-29003600D02*
X114487000Y-29003600D01*
X114487000Y-31143600D02*
X112487000Y-31143600D01*
G04 #@! TO.C,R4*
X113725000Y-50904800D02*
X111725000Y-50904800D01*
X111725000Y-48764800D02*
X113725000Y-48764800D01*
G04 #@! TO.C,R5*
X113725000Y-48568000D02*
X111725000Y-48568000D01*
X111725000Y-46428000D02*
X113725000Y-46428000D01*
G04 #@! TO.C,SW1*
X102616000Y-54305200D02*
X102616000Y-44145200D01*
X101346000Y-54305200D02*
X108966000Y-54305200D01*
X108966000Y-54305200D02*
X108966000Y-44145200D01*
X108966000Y-44145200D02*
X101346000Y-44145200D01*
X101346000Y-44145200D02*
X101346000Y-54305200D01*
G04 #@! TO.C,U1*
X165063321Y-61659685D02*
G75*
G03X165012000Y-56482000I-1151321J2577685D01*
G01*
X166662000Y-60202000D02*
X166662000Y-60602000D01*
X166662000Y-60202000D02*
X167062000Y-60202000D01*
X166662000Y-60202000D02*
X167462000Y-61002000D01*
X166262001Y-61202000D02*
X167062000Y-62001999D01*
X166262001Y-61202000D02*
X166662000Y-61202000D01*
X166262001Y-61202000D02*
X166262000Y-61602000D01*
X161412000Y-56022000D02*
X161412000Y-62022000D01*
X165012001Y-62022000D02*
X163811999Y-62022000D01*
X165012000Y-56022000D02*
X165012001Y-62022000D01*
X161412000Y-62022000D02*
X161612001Y-62022000D01*
X161412000Y-56022000D02*
X161612000Y-56022000D01*
X165012000Y-56022000D02*
X163812000Y-56022000D01*
D11*
G04 #@! TO.C,U2*
X162433000Y-54559200D02*
X119253000Y-54559200D01*
X162433000Y-26492200D02*
X162433000Y-54559200D01*
X119253000Y-26492200D02*
X162433000Y-26492200D01*
X119253000Y-54559200D02*
X119253000Y-26492200D01*
D12*
X120573800Y-30251400D02*
X161350000Y-30251400D01*
X120573800Y-27559000D02*
X161350000Y-27559000D01*
X120573800Y-30251400D02*
X120573800Y-27591400D01*
X161350000Y-30235200D02*
X161350000Y-27575200D01*
X161350000Y-53222200D02*
X161350000Y-50562200D01*
X123190000Y-53222200D02*
X161350000Y-53222200D01*
X123190000Y-50562200D02*
X161350000Y-50562200D01*
X123190000Y-53222200D02*
X123190000Y-50562200D01*
X121920000Y-53222200D02*
X120590000Y-53222200D01*
X120590000Y-53222200D02*
X120590000Y-51892200D01*
G04 #@! TO.C,U3*
X153089000Y-82528400D02*
X153089000Y-81018400D01*
X156790000Y-82528400D02*
X156790000Y-81018400D01*
X160060000Y-81018400D02*
X149820000Y-81018400D01*
X149820000Y-82528400D02*
X149820000Y-77887400D01*
X160060000Y-82528400D02*
X160060000Y-77887400D01*
X160060000Y-77887400D02*
X149820000Y-77887400D01*
X160060000Y-82528400D02*
X149820000Y-82528400D01*
D11*
G04 #@! TO.C,J7*
X122859800Y-55016400D02*
X100660200Y-55016400D01*
X100660200Y-55016400D02*
X100660200Y-80873600D01*
X122859800Y-55016400D02*
X122859800Y-80873600D01*
X122859800Y-80873600D02*
X100660200Y-80873600D01*
D12*
G04 #@! TO.C,C8*
X164991064Y-65273600D02*
X163786936Y-65273600D01*
X164991064Y-63453600D02*
X163786936Y-63453600D01*
G04 #@! TO.C,U4*
X124298000Y-59553600D02*
G75*
G02X124298000Y-61553600I0J-1000000D01*
G01*
X124298000Y-61553600D02*
X124298000Y-63203600D01*
X124298000Y-63203600D02*
X159978000Y-63203600D01*
X159978000Y-63203600D02*
X159978000Y-57903600D01*
X159978000Y-57903600D02*
X124298000Y-57903600D01*
X124298000Y-57903600D02*
X124298000Y-59553600D01*
G04 #@! TO.C,C15*
X114089064Y-53437200D02*
X112884936Y-53437200D01*
X114089064Y-51617200D02*
X112884936Y-51617200D01*
G04 #@! TO.C,J5*
D11*
X170343580Y-60960133D02*
X171057866Y-60960133D01*
X171200723Y-61007752D01*
X171295961Y-61102990D01*
X171343580Y-61245847D01*
X171343580Y-61341085D01*
X170343580Y-60007752D02*
X170343580Y-60483942D01*
X170819771Y-60531561D01*
X170772152Y-60483942D01*
X170724533Y-60388704D01*
X170724533Y-60150609D01*
X170772152Y-60055371D01*
X170819771Y-60007752D01*
X170915009Y-59960133D01*
X171153104Y-59960133D01*
X171248342Y-60007752D01*
X171295961Y-60055371D01*
X171343580Y-60150609D01*
X171343580Y-60388704D01*
X171295961Y-60483942D01*
X171248342Y-60531561D01*
X180236761Y-55606914D02*
X180284380Y-55464057D01*
X180284380Y-55225961D01*
X180236761Y-55130723D01*
X180189142Y-55083104D01*
X180093904Y-55035485D01*
X179998666Y-55035485D01*
X179903428Y-55083104D01*
X179855809Y-55130723D01*
X179808190Y-55225961D01*
X179760571Y-55416438D01*
X179712952Y-55511676D01*
X179665333Y-55559295D01*
X179570095Y-55606914D01*
X179474857Y-55606914D01*
X179379619Y-55559295D01*
X179332000Y-55511676D01*
X179284380Y-55416438D01*
X179284380Y-55178342D01*
X179332000Y-55035485D01*
X175458380Y-60091676D02*
X174982190Y-60425009D01*
X175458380Y-60663104D02*
X174458380Y-60663104D01*
X174458380Y-60282152D01*
X174506000Y-60186914D01*
X174553619Y-60139295D01*
X174648857Y-60091676D01*
X174791714Y-60091676D01*
X174886952Y-60139295D01*
X174934571Y-60186914D01*
X174982190Y-60282152D01*
X174982190Y-60663104D01*
X174407580Y-50701714D02*
X174407580Y-50130285D01*
X175407580Y-50416000D02*
X174407580Y-50416000D01*
G04 #@! TO.C,Y1*
X162484990Y-34867790D02*
X162961180Y-34867790D01*
X161961180Y-35201123D02*
X162484990Y-34867790D01*
X161961180Y-34534457D01*
X162961180Y-33677314D02*
X162961180Y-34248742D01*
X162961180Y-33963028D02*
X161961180Y-33963028D01*
X162104038Y-34058266D01*
X162199276Y-34153504D01*
X162246895Y-34248742D01*
G04 #@! TO.C,X1*
X104041476Y-32878780D02*
X104708142Y-33878780D01*
X104708142Y-32878780D02*
X104041476Y-33878780D01*
X105612904Y-33878780D02*
X105041476Y-33878780D01*
X105327190Y-33878780D02*
X105327190Y-32878780D01*
X105231952Y-33021638D01*
X105136714Y-33116876D01*
X105041476Y-33164495D01*
G04 #@! TO.C,X4*
X103787476Y-103896980D02*
X104454142Y-104896980D01*
X104454142Y-103896980D02*
X103787476Y-104896980D01*
X105263666Y-104230314D02*
X105263666Y-104896980D01*
X105025571Y-103849361D02*
X104787476Y-104563647D01*
X105406523Y-104563647D01*
G04 #@! TO.C,X3*
X182781476Y-103947980D02*
X183448142Y-104947980D01*
X183448142Y-103947980D02*
X182781476Y-104947980D01*
X183733857Y-103947980D02*
X184352904Y-103947980D01*
X184019571Y-104328933D01*
X184162428Y-104328933D01*
X184257666Y-104376552D01*
X184305285Y-104424171D01*
X184352904Y-104519409D01*
X184352904Y-104757504D01*
X184305285Y-104852742D01*
X184257666Y-104900361D01*
X184162428Y-104947980D01*
X183876714Y-104947980D01*
X183781476Y-104900361D01*
X183733857Y-104852742D01*
G04 #@! TO.C,X2*
X182273476Y-33183580D02*
X182940142Y-34183580D01*
X182940142Y-33183580D02*
X182273476Y-34183580D01*
X183273476Y-33278819D02*
X183321095Y-33231200D01*
X183416333Y-33183580D01*
X183654428Y-33183580D01*
X183749666Y-33231200D01*
X183797285Y-33278819D01*
X183844904Y-33374057D01*
X183844904Y-33469295D01*
X183797285Y-33612152D01*
X183225857Y-34183580D01*
X183844904Y-34183580D01*
G04 #@! TO.C,C1*
X172870333Y-30990042D02*
X172822714Y-31037661D01*
X172679857Y-31085280D01*
X172584619Y-31085280D01*
X172441761Y-31037661D01*
X172346523Y-30942423D01*
X172298904Y-30847185D01*
X172251285Y-30656709D01*
X172251285Y-30513852D01*
X172298904Y-30323376D01*
X172346523Y-30228138D01*
X172441761Y-30132900D01*
X172584619Y-30085280D01*
X172679857Y-30085280D01*
X172822714Y-30132900D01*
X172870333Y-30180519D01*
X173822714Y-31085280D02*
X173251285Y-31085280D01*
X173537000Y-31085280D02*
X173537000Y-30085280D01*
X173441761Y-30228138D01*
X173346523Y-30323376D01*
X173251285Y-30370995D01*
G04 #@! TO.C,C2*
X172870333Y-41750042D02*
X172822714Y-41797661D01*
X172679857Y-41845280D01*
X172584619Y-41845280D01*
X172441761Y-41797661D01*
X172346523Y-41702423D01*
X172298904Y-41607185D01*
X172251285Y-41416709D01*
X172251285Y-41273852D01*
X172298904Y-41083376D01*
X172346523Y-40988138D01*
X172441761Y-40892900D01*
X172584619Y-40845280D01*
X172679857Y-40845280D01*
X172822714Y-40892900D01*
X172870333Y-40940519D01*
X173251285Y-40940519D02*
X173298904Y-40892900D01*
X173394142Y-40845280D01*
X173632238Y-40845280D01*
X173727476Y-40892900D01*
X173775095Y-40940519D01*
X173822714Y-41035757D01*
X173822714Y-41130995D01*
X173775095Y-41273852D01*
X173203666Y-41845280D01*
X173822714Y-41845280D01*
G04 #@! TO.C,C3*
X172858805Y-27281135D02*
X172811186Y-27328754D01*
X172668329Y-27376373D01*
X172573091Y-27376373D01*
X172430233Y-27328754D01*
X172334995Y-27233516D01*
X172287376Y-27138278D01*
X172239757Y-26947802D01*
X172239757Y-26804945D01*
X172287376Y-26614469D01*
X172334995Y-26519231D01*
X172430233Y-26423993D01*
X172573091Y-26376373D01*
X172668329Y-26376373D01*
X172811186Y-26423993D01*
X172858805Y-26471612D01*
X173192138Y-26376373D02*
X173811186Y-26376373D01*
X173477852Y-26757326D01*
X173620710Y-26757326D01*
X173715948Y-26804945D01*
X173763567Y-26852564D01*
X173811186Y-26947802D01*
X173811186Y-27185897D01*
X173763567Y-27281135D01*
X173715948Y-27328754D01*
X173620710Y-27376373D01*
X173334995Y-27376373D01*
X173239757Y-27328754D01*
X173192138Y-27281135D01*
G04 #@! TO.C,C4*
X172870333Y-38230042D02*
X172822714Y-38277661D01*
X172679857Y-38325280D01*
X172584619Y-38325280D01*
X172441761Y-38277661D01*
X172346523Y-38182423D01*
X172298904Y-38087185D01*
X172251285Y-37896709D01*
X172251285Y-37753852D01*
X172298904Y-37563376D01*
X172346523Y-37468138D01*
X172441761Y-37372900D01*
X172584619Y-37325280D01*
X172679857Y-37325280D01*
X172822714Y-37372900D01*
X172870333Y-37420519D01*
X173727476Y-37658614D02*
X173727476Y-38325280D01*
X173489380Y-37277661D02*
X173251285Y-37991947D01*
X173870333Y-37991947D01*
G04 #@! TO.C,C5*
X165999733Y-45264342D02*
X165952114Y-45311961D01*
X165809257Y-45359580D01*
X165714019Y-45359580D01*
X165571161Y-45311961D01*
X165475923Y-45216723D01*
X165428304Y-45121485D01*
X165380685Y-44931009D01*
X165380685Y-44788152D01*
X165428304Y-44597676D01*
X165475923Y-44502438D01*
X165571161Y-44407200D01*
X165714019Y-44359580D01*
X165809257Y-44359580D01*
X165952114Y-44407200D01*
X165999733Y-44454819D01*
X166904495Y-44359580D02*
X166428304Y-44359580D01*
X166380685Y-44835771D01*
X166428304Y-44788152D01*
X166523542Y-44740533D01*
X166761638Y-44740533D01*
X166856876Y-44788152D01*
X166904495Y-44835771D01*
X166952114Y-44931009D01*
X166952114Y-45169104D01*
X166904495Y-45264342D01*
X166856876Y-45311961D01*
X166761638Y-45359580D01*
X166523542Y-45359580D01*
X166428304Y-45311961D01*
X166380685Y-45264342D01*
G04 #@! TO.C,C6*
X172909333Y-45315142D02*
X172861714Y-45362761D01*
X172718857Y-45410380D01*
X172623619Y-45410380D01*
X172480761Y-45362761D01*
X172385523Y-45267523D01*
X172337904Y-45172285D01*
X172290285Y-44981809D01*
X172290285Y-44838952D01*
X172337904Y-44648476D01*
X172385523Y-44553238D01*
X172480761Y-44458000D01*
X172623619Y-44410380D01*
X172718857Y-44410380D01*
X172861714Y-44458000D01*
X172909333Y-44505619D01*
X173766476Y-44410380D02*
X173576000Y-44410380D01*
X173480761Y-44458000D01*
X173433142Y-44505619D01*
X173337904Y-44648476D01*
X173290285Y-44838952D01*
X173290285Y-45219904D01*
X173337904Y-45315142D01*
X173385523Y-45362761D01*
X173480761Y-45410380D01*
X173671238Y-45410380D01*
X173766476Y-45362761D01*
X173814095Y-45315142D01*
X173861714Y-45219904D01*
X173861714Y-44981809D01*
X173814095Y-44886571D01*
X173766476Y-44838952D01*
X173671238Y-44791333D01*
X173480761Y-44791333D01*
X173385523Y-44838952D01*
X173337904Y-44886571D01*
X173290285Y-44981809D01*
G04 #@! TO.C,C7*
X172870333Y-34660042D02*
X172822714Y-34707661D01*
X172679857Y-34755280D01*
X172584619Y-34755280D01*
X172441761Y-34707661D01*
X172346523Y-34612423D01*
X172298904Y-34517185D01*
X172251285Y-34326709D01*
X172251285Y-34183852D01*
X172298904Y-33993376D01*
X172346523Y-33898138D01*
X172441761Y-33802900D01*
X172584619Y-33755280D01*
X172679857Y-33755280D01*
X172822714Y-33802900D01*
X172870333Y-33850519D01*
X173203666Y-33755280D02*
X173870333Y-33755280D01*
X173441761Y-34755280D01*
G04 #@! TO.C,J1*
X114919666Y-44077580D02*
X114919666Y-44791866D01*
X114872047Y-44934723D01*
X114776809Y-45029961D01*
X114633952Y-45077580D01*
X114538714Y-45077580D01*
X115919666Y-45077580D02*
X115348238Y-45077580D01*
X115633952Y-45077580D02*
X115633952Y-44077580D01*
X115538714Y-44220438D01*
X115443476Y-44315676D01*
X115348238Y-44363295D01*
G04 #@! TO.C,J2*
X169439866Y-81748380D02*
X169439866Y-82462666D01*
X169392247Y-82605523D01*
X169297009Y-82700761D01*
X169154152Y-82748380D01*
X169058914Y-82748380D01*
X169868438Y-81843619D02*
X169916057Y-81796000D01*
X170011295Y-81748380D01*
X170249390Y-81748380D01*
X170344628Y-81796000D01*
X170392247Y-81843619D01*
X170439866Y-81938857D01*
X170439866Y-82034095D01*
X170392247Y-82176952D01*
X169820819Y-82748380D01*
X170439866Y-82748380D01*
G04 #@! TO.C,J4*
X177506180Y-72926533D02*
X178220466Y-72926533D01*
X178363323Y-72974152D01*
X178458561Y-73069390D01*
X178506180Y-73212247D01*
X178506180Y-73307485D01*
X177839514Y-72021771D02*
X178506180Y-72021771D01*
X177458561Y-72259866D02*
X178172847Y-72497961D01*
X178172847Y-71878914D01*
G04 #@! TO.C,R1*
X117536733Y-33218380D02*
X117203400Y-32742190D01*
X116965304Y-33218380D02*
X116965304Y-32218380D01*
X117346257Y-32218380D01*
X117441495Y-32266000D01*
X117489114Y-32313619D01*
X117536733Y-32408857D01*
X117536733Y-32551714D01*
X117489114Y-32646952D01*
X117441495Y-32694571D01*
X117346257Y-32742190D01*
X116965304Y-32742190D01*
X118489114Y-33218380D02*
X117917685Y-33218380D01*
X118203400Y-33218380D02*
X118203400Y-32218380D01*
X118108161Y-32361238D01*
X118012923Y-32456476D01*
X117917685Y-32504095D01*
G04 #@! TO.C,R2*
X117587533Y-27782780D02*
X117254200Y-27306590D01*
X117016104Y-27782780D02*
X117016104Y-26782780D01*
X117397057Y-26782780D01*
X117492295Y-26830400D01*
X117539914Y-26878019D01*
X117587533Y-26973257D01*
X117587533Y-27116114D01*
X117539914Y-27211352D01*
X117492295Y-27258971D01*
X117397057Y-27306590D01*
X117016104Y-27306590D01*
X117968485Y-26878019D02*
X118016104Y-26830400D01*
X118111342Y-26782780D01*
X118349438Y-26782780D01*
X118444676Y-26830400D01*
X118492295Y-26878019D01*
X118539914Y-26973257D01*
X118539914Y-27068495D01*
X118492295Y-27211352D01*
X117920866Y-27782780D01*
X118539914Y-27782780D01*
G04 #@! TO.C,R3*
X117536733Y-30525980D02*
X117203400Y-30049790D01*
X116965304Y-30525980D02*
X116965304Y-29525980D01*
X117346257Y-29525980D01*
X117441495Y-29573600D01*
X117489114Y-29621219D01*
X117536733Y-29716457D01*
X117536733Y-29859314D01*
X117489114Y-29954552D01*
X117441495Y-30002171D01*
X117346257Y-30049790D01*
X116965304Y-30049790D01*
X117870066Y-29525980D02*
X118489114Y-29525980D01*
X118155780Y-29906933D01*
X118298638Y-29906933D01*
X118393876Y-29954552D01*
X118441495Y-30002171D01*
X118489114Y-30097409D01*
X118489114Y-30335504D01*
X118441495Y-30430742D01*
X118393876Y-30478361D01*
X118298638Y-30525980D01*
X118012923Y-30525980D01*
X117917685Y-30478361D01*
X117870066Y-30430742D01*
G04 #@! TO.C,R4*
X116723933Y-50287180D02*
X116390600Y-49810990D01*
X116152504Y-50287180D02*
X116152504Y-49287180D01*
X116533457Y-49287180D01*
X116628695Y-49334800D01*
X116676314Y-49382419D01*
X116723933Y-49477657D01*
X116723933Y-49620514D01*
X116676314Y-49715752D01*
X116628695Y-49763371D01*
X116533457Y-49810990D01*
X116152504Y-49810990D01*
X117581076Y-49620514D02*
X117581076Y-50287180D01*
X117342980Y-49239561D02*
X117104885Y-49953847D01*
X117723933Y-49953847D01*
G04 #@! TO.C,R5*
X116774733Y-47950380D02*
X116441400Y-47474190D01*
X116203304Y-47950380D02*
X116203304Y-46950380D01*
X116584257Y-46950380D01*
X116679495Y-46998000D01*
X116727114Y-47045619D01*
X116774733Y-47140857D01*
X116774733Y-47283714D01*
X116727114Y-47378952D01*
X116679495Y-47426571D01*
X116584257Y-47474190D01*
X116203304Y-47474190D01*
X117679495Y-46950380D02*
X117203304Y-46950380D01*
X117155685Y-47426571D01*
X117203304Y-47378952D01*
X117298542Y-47331333D01*
X117536638Y-47331333D01*
X117631876Y-47378952D01*
X117679495Y-47426571D01*
X117727114Y-47521809D01*
X117727114Y-47759904D01*
X117679495Y-47855142D01*
X117631876Y-47902761D01*
X117536638Y-47950380D01*
X117298542Y-47950380D01*
X117203304Y-47902761D01*
X117155685Y-47855142D01*
G04 #@! TO.C,SW1*
X110437561Y-54266933D02*
X110485180Y-54124076D01*
X110485180Y-53885980D01*
X110437561Y-53790742D01*
X110389942Y-53743123D01*
X110294704Y-53695504D01*
X110199466Y-53695504D01*
X110104228Y-53743123D01*
X110056609Y-53790742D01*
X110008990Y-53885980D01*
X109961371Y-54076457D01*
X109913752Y-54171695D01*
X109866133Y-54219314D01*
X109770895Y-54266933D01*
X109675657Y-54266933D01*
X109580419Y-54219314D01*
X109532800Y-54171695D01*
X109485180Y-54076457D01*
X109485180Y-53838361D01*
X109532800Y-53695504D01*
X109485180Y-53362171D02*
X110485180Y-53124076D01*
X109770895Y-52933600D01*
X110485180Y-52743123D01*
X109485180Y-52505028D01*
X110485180Y-51600266D02*
X110485180Y-52171695D01*
X110485180Y-51885980D02*
X109485180Y-51885980D01*
X109628038Y-51981219D01*
X109723276Y-52076457D01*
X109770895Y-52171695D01*
G04 #@! TO.C,U1*
X166764819Y-55067295D02*
X165955295Y-55067295D01*
X165860057Y-55114914D01*
X165812438Y-55162533D01*
X165764819Y-55257771D01*
X165764819Y-55448247D01*
X165812438Y-55543485D01*
X165860057Y-55591104D01*
X165955295Y-55638723D01*
X166764819Y-55638723D01*
X165764819Y-56638723D02*
X165764819Y-56067295D01*
X165764819Y-56353009D02*
X166764819Y-56353009D01*
X166621961Y-56257771D01*
X166526723Y-56162533D01*
X166479104Y-56067295D01*
G04 #@! TO.C,U2*
X135215380Y-41097104D02*
X136024904Y-41097104D01*
X136120142Y-41049485D01*
X136167761Y-41001866D01*
X136215380Y-40906628D01*
X136215380Y-40716152D01*
X136167761Y-40620914D01*
X136120142Y-40573295D01*
X136024904Y-40525676D01*
X135215380Y-40525676D01*
X135310619Y-40097104D02*
X135263000Y-40049485D01*
X135215380Y-39954247D01*
X135215380Y-39716152D01*
X135263000Y-39620914D01*
X135310619Y-39573295D01*
X135405857Y-39525676D01*
X135501095Y-39525676D01*
X135643952Y-39573295D01*
X136215380Y-40144723D01*
X136215380Y-39525676D01*
G04 #@! TO.C,U3*
X154118095Y-76410780D02*
X154118095Y-77220304D01*
X154165714Y-77315542D01*
X154213333Y-77363161D01*
X154308571Y-77410780D01*
X154499047Y-77410780D01*
X154594285Y-77363161D01*
X154641904Y-77315542D01*
X154689523Y-77220304D01*
X154689523Y-76410780D01*
X155070476Y-76410780D02*
X155689523Y-76410780D01*
X155356190Y-76791733D01*
X155499047Y-76791733D01*
X155594285Y-76839352D01*
X155641904Y-76886971D01*
X155689523Y-76982209D01*
X155689523Y-77220304D01*
X155641904Y-77315542D01*
X155594285Y-77363161D01*
X155499047Y-77410780D01*
X155213333Y-77410780D01*
X155118095Y-77363161D01*
X155070476Y-77315542D01*
G04 #@! TO.C,J7*
X121637466Y-81291180D02*
X121637466Y-82005466D01*
X121589847Y-82148323D01*
X121494609Y-82243561D01*
X121351752Y-82291180D01*
X121256514Y-82291180D01*
X122018419Y-81291180D02*
X122685085Y-81291180D01*
X122256514Y-82291180D01*
G04 #@! TO.C,C8*
X164222333Y-66549542D02*
X164174714Y-66597161D01*
X164031857Y-66644780D01*
X163936619Y-66644780D01*
X163793761Y-66597161D01*
X163698523Y-66501923D01*
X163650904Y-66406685D01*
X163603285Y-66216209D01*
X163603285Y-66073352D01*
X163650904Y-65882876D01*
X163698523Y-65787638D01*
X163793761Y-65692400D01*
X163936619Y-65644780D01*
X164031857Y-65644780D01*
X164174714Y-65692400D01*
X164222333Y-65740019D01*
X164793761Y-66073352D02*
X164698523Y-66025733D01*
X164650904Y-65978114D01*
X164603285Y-65882876D01*
X164603285Y-65835257D01*
X164650904Y-65740019D01*
X164698523Y-65692400D01*
X164793761Y-65644780D01*
X164984238Y-65644780D01*
X165079476Y-65692400D01*
X165127095Y-65740019D01*
X165174714Y-65835257D01*
X165174714Y-65882876D01*
X165127095Y-65978114D01*
X165079476Y-66025733D01*
X164984238Y-66073352D01*
X164793761Y-66073352D01*
X164698523Y-66120971D01*
X164650904Y-66168590D01*
X164603285Y-66263828D01*
X164603285Y-66454304D01*
X164650904Y-66549542D01*
X164698523Y-66597161D01*
X164793761Y-66644780D01*
X164984238Y-66644780D01*
X165079476Y-66597161D01*
X165127095Y-66549542D01*
X165174714Y-66454304D01*
X165174714Y-66263828D01*
X165127095Y-66168590D01*
X165079476Y-66120971D01*
X164984238Y-66073352D01*
G04 #@! TO.C,U4*
X160335980Y-65379504D02*
X161145504Y-65379504D01*
X161240742Y-65331885D01*
X161288361Y-65284266D01*
X161335980Y-65189028D01*
X161335980Y-64998552D01*
X161288361Y-64903314D01*
X161240742Y-64855695D01*
X161145504Y-64808076D01*
X160335980Y-64808076D01*
X160669314Y-63903314D02*
X161335980Y-63903314D01*
X160288361Y-64141409D02*
X161002647Y-64379504D01*
X161002647Y-63760457D01*
G04 #@! TO.C,C15*
X116806542Y-52935142D02*
X116758923Y-52982761D01*
X116616066Y-53030380D01*
X116520828Y-53030380D01*
X116377971Y-52982761D01*
X116282733Y-52887523D01*
X116235114Y-52792285D01*
X116187495Y-52601809D01*
X116187495Y-52458952D01*
X116235114Y-52268476D01*
X116282733Y-52173238D01*
X116377971Y-52078000D01*
X116520828Y-52030380D01*
X116616066Y-52030380D01*
X116758923Y-52078000D01*
X116806542Y-52125619D01*
X117758923Y-53030380D02*
X117187495Y-53030380D01*
X117473209Y-53030380D02*
X117473209Y-52030380D01*
X117377971Y-52173238D01*
X117282733Y-52268476D01*
X117187495Y-52316095D01*
X118663685Y-52030380D02*
X118187495Y-52030380D01*
X118139876Y-52506571D01*
X118187495Y-52458952D01*
X118282733Y-52411333D01*
X118520828Y-52411333D01*
X118616066Y-52458952D01*
X118663685Y-52506571D01*
X118711304Y-52601809D01*
X118711304Y-52839904D01*
X118663685Y-52935142D01*
X118616066Y-52982761D01*
X118520828Y-53030380D01*
X118282733Y-53030380D01*
X118187495Y-52982761D01*
X118139876Y-52935142D01*
G04 #@! TD*
M02*
