G04 #@! TF.GenerationSoftware,KiCad,Pcbnew,(5.0.2)-1*
G04 #@! TF.CreationDate,2019-08-24T11:33:58-04:00*
G04 #@! TF.ProjectId,doof_PCB,646f6f66-5f50-4434-922e-6b696361645f,rev?*
G04 #@! TF.SameCoordinates,Original*
G04 #@! TF.FileFunction,Paste,Top*
G04 #@! TF.FilePolarity,Positive*
%FSLAX46Y46*%
G04 Gerber Fmt 4.6, Leading zero omitted, Abs format (unit mm)*
G04 Created by KiCad (PCBNEW (5.0.2)-1) date 8/24/2019 11:33:58 AM*
%MOMM*%
%LPD*%
G01*
G04 APERTURE LIST*
%ADD10R,2.000000X4.500000*%
%ADD11R,2.000000X1.600000*%
%ADD12R,2.499360X1.998980*%
%ADD13R,2.301240X0.500380*%
%ADD14R,2.000000X1.700000*%
%ADD15C,0.100000*%
%ADD16C,1.425000*%
G04 APERTURE END LIST*
D10*
G04 #@! TO.C,Y1*
X166014000Y-38743200D03*
X166014000Y-30243200D03*
G04 #@! TD*
D11*
G04 #@! TO.C,C1*
X175037000Y-32382900D03*
X171037000Y-32382900D03*
G04 #@! TD*
G04 #@! TO.C,C2*
X175037000Y-43142900D03*
X171037000Y-43142900D03*
G04 #@! TD*
G04 #@! TO.C,C3*
X171037000Y-28702900D03*
X175037000Y-28702900D03*
G04 #@! TD*
G04 #@! TO.C,C4*
X171037000Y-39622900D03*
X175037000Y-39622900D03*
G04 #@! TD*
G04 #@! TO.C,C5*
X168268000Y-46685200D03*
X164268000Y-46685200D03*
G04 #@! TD*
G04 #@! TO.C,C6*
X171076000Y-46685200D03*
X175076000Y-46685200D03*
G04 #@! TD*
G04 #@! TO.C,C7*
X175037000Y-36052900D03*
X171037000Y-36052900D03*
G04 #@! TD*
D12*
G04 #@! TO.C,J3*
X183982560Y-45852080D03*
X178483460Y-45852080D03*
X178483460Y-36951920D03*
X183982560Y-36951920D03*
D13*
X178381860Y-39801800D03*
X178381860Y-40601900D03*
X178381860Y-41402000D03*
X178381860Y-42202100D03*
X178381860Y-43002200D03*
G04 #@! TD*
D14*
G04 #@! TO.C,R1*
X115487000Y-32816800D03*
X111487000Y-32816800D03*
G04 #@! TD*
G04 #@! TO.C,R2*
X111487000Y-27381200D03*
X115487000Y-27381200D03*
G04 #@! TD*
G04 #@! TO.C,R3*
X115487000Y-30073600D03*
X111487000Y-30073600D03*
G04 #@! TD*
G04 #@! TO.C,R4*
X110725000Y-49834800D03*
X114725000Y-49834800D03*
G04 #@! TD*
G04 #@! TO.C,R5*
X110725000Y-47498000D03*
X114725000Y-47498000D03*
G04 #@! TD*
D15*
G04 #@! TO.C,C8*
G36*
X166363504Y-63489804D02*
X166387773Y-63493404D01*
X166411571Y-63499365D01*
X166434671Y-63507630D01*
X166456849Y-63518120D01*
X166477893Y-63530733D01*
X166497598Y-63545347D01*
X166515777Y-63561823D01*
X166532253Y-63580002D01*
X166546867Y-63599707D01*
X166559480Y-63620751D01*
X166569970Y-63642929D01*
X166578235Y-63666029D01*
X166584196Y-63689827D01*
X166587796Y-63714096D01*
X166589000Y-63738600D01*
X166589000Y-64988600D01*
X166587796Y-65013104D01*
X166584196Y-65037373D01*
X166578235Y-65061171D01*
X166569970Y-65084271D01*
X166559480Y-65106449D01*
X166546867Y-65127493D01*
X166532253Y-65147198D01*
X166515777Y-65165377D01*
X166497598Y-65181853D01*
X166477893Y-65196467D01*
X166456849Y-65209080D01*
X166434671Y-65219570D01*
X166411571Y-65227835D01*
X166387773Y-65233796D01*
X166363504Y-65237396D01*
X166339000Y-65238600D01*
X165414000Y-65238600D01*
X165389496Y-65237396D01*
X165365227Y-65233796D01*
X165341429Y-65227835D01*
X165318329Y-65219570D01*
X165296151Y-65209080D01*
X165275107Y-65196467D01*
X165255402Y-65181853D01*
X165237223Y-65165377D01*
X165220747Y-65147198D01*
X165206133Y-65127493D01*
X165193520Y-65106449D01*
X165183030Y-65084271D01*
X165174765Y-65061171D01*
X165168804Y-65037373D01*
X165165204Y-65013104D01*
X165164000Y-64988600D01*
X165164000Y-63738600D01*
X165165204Y-63714096D01*
X165168804Y-63689827D01*
X165174765Y-63666029D01*
X165183030Y-63642929D01*
X165193520Y-63620751D01*
X165206133Y-63599707D01*
X165220747Y-63580002D01*
X165237223Y-63561823D01*
X165255402Y-63545347D01*
X165275107Y-63530733D01*
X165296151Y-63518120D01*
X165318329Y-63507630D01*
X165341429Y-63499365D01*
X165365227Y-63493404D01*
X165389496Y-63489804D01*
X165414000Y-63488600D01*
X166339000Y-63488600D01*
X166363504Y-63489804D01*
X166363504Y-63489804D01*
G37*
D16*
X165876500Y-64363600D03*
D15*
G36*
X163388504Y-63489804D02*
X163412773Y-63493404D01*
X163436571Y-63499365D01*
X163459671Y-63507630D01*
X163481849Y-63518120D01*
X163502893Y-63530733D01*
X163522598Y-63545347D01*
X163540777Y-63561823D01*
X163557253Y-63580002D01*
X163571867Y-63599707D01*
X163584480Y-63620751D01*
X163594970Y-63642929D01*
X163603235Y-63666029D01*
X163609196Y-63689827D01*
X163612796Y-63714096D01*
X163614000Y-63738600D01*
X163614000Y-64988600D01*
X163612796Y-65013104D01*
X163609196Y-65037373D01*
X163603235Y-65061171D01*
X163594970Y-65084271D01*
X163584480Y-65106449D01*
X163571867Y-65127493D01*
X163557253Y-65147198D01*
X163540777Y-65165377D01*
X163522598Y-65181853D01*
X163502893Y-65196467D01*
X163481849Y-65209080D01*
X163459671Y-65219570D01*
X163436571Y-65227835D01*
X163412773Y-65233796D01*
X163388504Y-65237396D01*
X163364000Y-65238600D01*
X162439000Y-65238600D01*
X162414496Y-65237396D01*
X162390227Y-65233796D01*
X162366429Y-65227835D01*
X162343329Y-65219570D01*
X162321151Y-65209080D01*
X162300107Y-65196467D01*
X162280402Y-65181853D01*
X162262223Y-65165377D01*
X162245747Y-65147198D01*
X162231133Y-65127493D01*
X162218520Y-65106449D01*
X162208030Y-65084271D01*
X162199765Y-65061171D01*
X162193804Y-65037373D01*
X162190204Y-65013104D01*
X162189000Y-64988600D01*
X162189000Y-63738600D01*
X162190204Y-63714096D01*
X162193804Y-63689827D01*
X162199765Y-63666029D01*
X162208030Y-63642929D01*
X162218520Y-63620751D01*
X162231133Y-63599707D01*
X162245747Y-63580002D01*
X162262223Y-63561823D01*
X162280402Y-63545347D01*
X162300107Y-63530733D01*
X162321151Y-63518120D01*
X162343329Y-63507630D01*
X162366429Y-63499365D01*
X162390227Y-63493404D01*
X162414496Y-63489804D01*
X162439000Y-63488600D01*
X163364000Y-63488600D01*
X163388504Y-63489804D01*
X163388504Y-63489804D01*
G37*
D16*
X162901500Y-64363600D03*
G04 #@! TD*
D15*
G04 #@! TO.C,C15*
G36*
X115461504Y-51653404D02*
X115485773Y-51657004D01*
X115509571Y-51662965D01*
X115532671Y-51671230D01*
X115554849Y-51681720D01*
X115575893Y-51694333D01*
X115595598Y-51708947D01*
X115613777Y-51725423D01*
X115630253Y-51743602D01*
X115644867Y-51763307D01*
X115657480Y-51784351D01*
X115667970Y-51806529D01*
X115676235Y-51829629D01*
X115682196Y-51853427D01*
X115685796Y-51877696D01*
X115687000Y-51902200D01*
X115687000Y-53152200D01*
X115685796Y-53176704D01*
X115682196Y-53200973D01*
X115676235Y-53224771D01*
X115667970Y-53247871D01*
X115657480Y-53270049D01*
X115644867Y-53291093D01*
X115630253Y-53310798D01*
X115613777Y-53328977D01*
X115595598Y-53345453D01*
X115575893Y-53360067D01*
X115554849Y-53372680D01*
X115532671Y-53383170D01*
X115509571Y-53391435D01*
X115485773Y-53397396D01*
X115461504Y-53400996D01*
X115437000Y-53402200D01*
X114512000Y-53402200D01*
X114487496Y-53400996D01*
X114463227Y-53397396D01*
X114439429Y-53391435D01*
X114416329Y-53383170D01*
X114394151Y-53372680D01*
X114373107Y-53360067D01*
X114353402Y-53345453D01*
X114335223Y-53328977D01*
X114318747Y-53310798D01*
X114304133Y-53291093D01*
X114291520Y-53270049D01*
X114281030Y-53247871D01*
X114272765Y-53224771D01*
X114266804Y-53200973D01*
X114263204Y-53176704D01*
X114262000Y-53152200D01*
X114262000Y-51902200D01*
X114263204Y-51877696D01*
X114266804Y-51853427D01*
X114272765Y-51829629D01*
X114281030Y-51806529D01*
X114291520Y-51784351D01*
X114304133Y-51763307D01*
X114318747Y-51743602D01*
X114335223Y-51725423D01*
X114353402Y-51708947D01*
X114373107Y-51694333D01*
X114394151Y-51681720D01*
X114416329Y-51671230D01*
X114439429Y-51662965D01*
X114463227Y-51657004D01*
X114487496Y-51653404D01*
X114512000Y-51652200D01*
X115437000Y-51652200D01*
X115461504Y-51653404D01*
X115461504Y-51653404D01*
G37*
D16*
X114974500Y-52527200D03*
D15*
G36*
X112486504Y-51653404D02*
X112510773Y-51657004D01*
X112534571Y-51662965D01*
X112557671Y-51671230D01*
X112579849Y-51681720D01*
X112600893Y-51694333D01*
X112620598Y-51708947D01*
X112638777Y-51725423D01*
X112655253Y-51743602D01*
X112669867Y-51763307D01*
X112682480Y-51784351D01*
X112692970Y-51806529D01*
X112701235Y-51829629D01*
X112707196Y-51853427D01*
X112710796Y-51877696D01*
X112712000Y-51902200D01*
X112712000Y-53152200D01*
X112710796Y-53176704D01*
X112707196Y-53200973D01*
X112701235Y-53224771D01*
X112692970Y-53247871D01*
X112682480Y-53270049D01*
X112669867Y-53291093D01*
X112655253Y-53310798D01*
X112638777Y-53328977D01*
X112620598Y-53345453D01*
X112600893Y-53360067D01*
X112579849Y-53372680D01*
X112557671Y-53383170D01*
X112534571Y-53391435D01*
X112510773Y-53397396D01*
X112486504Y-53400996D01*
X112462000Y-53402200D01*
X111537000Y-53402200D01*
X111512496Y-53400996D01*
X111488227Y-53397396D01*
X111464429Y-53391435D01*
X111441329Y-53383170D01*
X111419151Y-53372680D01*
X111398107Y-53360067D01*
X111378402Y-53345453D01*
X111360223Y-53328977D01*
X111343747Y-53310798D01*
X111329133Y-53291093D01*
X111316520Y-53270049D01*
X111306030Y-53247871D01*
X111297765Y-53224771D01*
X111291804Y-53200973D01*
X111288204Y-53176704D01*
X111287000Y-53152200D01*
X111287000Y-51902200D01*
X111288204Y-51877696D01*
X111291804Y-51853427D01*
X111297765Y-51829629D01*
X111306030Y-51806529D01*
X111316520Y-51784351D01*
X111329133Y-51763307D01*
X111343747Y-51743602D01*
X111360223Y-51725423D01*
X111378402Y-51708947D01*
X111398107Y-51694333D01*
X111419151Y-51681720D01*
X111441329Y-51671230D01*
X111464429Y-51662965D01*
X111488227Y-51657004D01*
X111512496Y-51653404D01*
X111537000Y-51652200D01*
X112462000Y-51652200D01*
X112486504Y-51653404D01*
X112486504Y-51653404D01*
G37*
D16*
X111999500Y-52527200D03*
G04 #@! TD*
M02*
