G04 #@! TF.GenerationSoftware,KiCad,Pcbnew,(5.0.2)-1*
G04 #@! TF.CreationDate,2019-08-24T11:33:58-04:00*
G04 #@! TF.ProjectId,doof_PCB,646f6f66-5f50-4434-922e-6b696361645f,rev?*
G04 #@! TF.SameCoordinates,Original*
G04 #@! TF.FileFunction,Copper,L1,Top*
G04 #@! TF.FilePolarity,Positive*
%FSLAX46Y46*%
G04 Gerber Fmt 4.6, Leading zero omitted, Abs format (unit mm)*
G04 Created by KiCad (PCBNEW (5.0.2)-1) date 8/24/2019 11:33:58 AM*
%MOMM*%
%LPD*%
G01*
G04 APERTURE LIST*
G04 #@! TA.AperFunction,EtchedComponent*
%ADD10C,0.010000*%
G04 #@! TD*
G04 #@! TA.AperFunction,ComponentPad*
%ADD11C,2.000000*%
G04 #@! TD*
G04 #@! TA.AperFunction,SMDPad,CuDef*
%ADD12R,2.000000X4.500000*%
G04 #@! TD*
G04 #@! TA.AperFunction,WasherPad*
%ADD13C,5.300000*%
G04 #@! TD*
G04 #@! TA.AperFunction,SMDPad,CuDef*
%ADD14R,2.000000X1.600000*%
G04 #@! TD*
G04 #@! TA.AperFunction,ComponentPad*
%ADD15R,3.500000X3.500000*%
G04 #@! TD*
G04 #@! TA.AperFunction,ComponentPad*
%ADD16R,1.727200X1.727200*%
G04 #@! TD*
G04 #@! TA.AperFunction,ComponentPad*
%ADD17O,1.727200X1.727200*%
G04 #@! TD*
G04 #@! TA.AperFunction,SMDPad,CuDef*
%ADD18R,2.499360X1.998980*%
G04 #@! TD*
G04 #@! TA.AperFunction,ComponentPad*
%ADD19C,0.909320*%
G04 #@! TD*
G04 #@! TA.AperFunction,SMDPad,CuDef*
%ADD20R,2.301240X0.500380*%
G04 #@! TD*
G04 #@! TA.AperFunction,ComponentPad*
%ADD21C,3.000000*%
G04 #@! TD*
G04 #@! TA.AperFunction,ComponentPad*
%ADD22R,3.000000X3.000000*%
G04 #@! TD*
G04 #@! TA.AperFunction,SMDPad,CuDef*
%ADD23R,2.000000X1.700000*%
G04 #@! TD*
G04 #@! TA.AperFunction,ComponentPad*
%ADD24C,1.800000*%
G04 #@! TD*
G04 #@! TA.AperFunction,ComponentPad*
%ADD25R,1.800000X1.800000*%
G04 #@! TD*
G04 #@! TA.AperFunction,ComponentPad*
%ADD26O,1.700000X1.700000*%
G04 #@! TD*
G04 #@! TA.AperFunction,ComponentPad*
%ADD27C,1.700000*%
G04 #@! TD*
G04 #@! TA.AperFunction,ComponentPad*
%ADD28R,1.700000X1.700000*%
G04 #@! TD*
G04 #@! TA.AperFunction,ComponentPad*
%ADD29O,1.800000X1.800000*%
G04 #@! TD*
G04 #@! TA.AperFunction,Conductor*
%ADD30C,0.100000*%
G04 #@! TD*
G04 #@! TA.AperFunction,SMDPad,CuDef*
%ADD31C,1.425000*%
G04 #@! TD*
G04 #@! TA.AperFunction,ComponentPad*
%ADD32R,1.600000X1.600000*%
G04 #@! TD*
G04 #@! TA.AperFunction,ComponentPad*
%ADD33O,1.600000X1.600000*%
G04 #@! TD*
G04 #@! TA.AperFunction,ViaPad*
%ADD34C,0.800000*%
G04 #@! TD*
G04 #@! TA.AperFunction,Conductor*
%ADD35C,0.250000*%
G04 #@! TD*
G04 APERTURE END LIST*
D10*
G04 #@! TO.C,G10*
G36*
X158698091Y-68098461D02*
X158851882Y-68225158D01*
X158943532Y-68419931D01*
X158958845Y-68557292D01*
X158912838Y-68783378D01*
X158791176Y-68951506D01*
X158618397Y-69050169D01*
X158419037Y-69067860D01*
X158217634Y-68993073D01*
X158146126Y-68938422D01*
X158036040Y-68789558D01*
X157968448Y-68605698D01*
X157967670Y-68601388D01*
X157955050Y-68453337D01*
X157994592Y-68343152D01*
X158101861Y-68220388D01*
X158299281Y-68086720D01*
X158505958Y-68049196D01*
X158698091Y-68098461D01*
X158698091Y-68098461D01*
G37*
X158698091Y-68098461D02*
X158851882Y-68225158D01*
X158943532Y-68419931D01*
X158958845Y-68557292D01*
X158912838Y-68783378D01*
X158791176Y-68951506D01*
X158618397Y-69050169D01*
X158419037Y-69067860D01*
X158217634Y-68993073D01*
X158146126Y-68938422D01*
X158036040Y-68789558D01*
X157968448Y-68605698D01*
X157967670Y-68601388D01*
X157955050Y-68453337D01*
X157994592Y-68343152D01*
X158101861Y-68220388D01*
X158299281Y-68086720D01*
X158505958Y-68049196D01*
X158698091Y-68098461D01*
G36*
X172544155Y-68782554D02*
X172673118Y-68917287D01*
X172701328Y-68981761D01*
X172758583Y-69113565D01*
X172815223Y-69191557D01*
X172892562Y-69208808D01*
X173056411Y-69222723D01*
X173280399Y-69231590D01*
X173466619Y-69233891D01*
X173798938Y-69241909D01*
X174034208Y-69269161D01*
X174187545Y-69322125D01*
X174274066Y-69407281D01*
X174308889Y-69531106D01*
X174311734Y-69596096D01*
X174264101Y-69795323D01*
X174122458Y-69933109D01*
X173899527Y-70005883D01*
X173717183Y-70082018D01*
X173524601Y-70235775D01*
X173346529Y-70437447D01*
X173207713Y-70657323D01*
X173132903Y-70865698D01*
X173126400Y-70933979D01*
X173150696Y-71059925D01*
X173234039Y-71143102D01*
X173392114Y-71190533D01*
X173640608Y-71209243D01*
X173743578Y-71210311D01*
X173971490Y-71216746D01*
X174118586Y-71240695D01*
X174216446Y-71289125D01*
X174255289Y-71323200D01*
X174353416Y-71478503D01*
X174341508Y-71642093D01*
X174219014Y-71819370D01*
X174203187Y-71835541D01*
X174126390Y-71908146D01*
X174053201Y-71955403D01*
X173958320Y-71982573D01*
X173816450Y-71994917D01*
X173602291Y-71997697D01*
X173427075Y-71996955D01*
X173164785Y-71991242D01*
X172935880Y-71978611D01*
X172769332Y-71961098D01*
X172703067Y-71946109D01*
X172464274Y-71791535D01*
X172304513Y-71571364D01*
X172225098Y-71301878D01*
X172227342Y-70999354D01*
X172312558Y-70680073D01*
X172482060Y-70360315D01*
X172565899Y-70245777D01*
X172740775Y-70024977D01*
X172572828Y-70024977D01*
X172461225Y-70039999D01*
X172386460Y-70104139D01*
X172317132Y-70246010D01*
X172309571Y-70264866D01*
X172171416Y-70527400D01*
X172008133Y-70694799D01*
X171828950Y-70761850D01*
X171643094Y-70723338D01*
X171573594Y-70680641D01*
X171502899Y-70595910D01*
X171477429Y-70468618D01*
X171499255Y-70285946D01*
X171570443Y-70035075D01*
X171693065Y-69703183D01*
X171756843Y-69545200D01*
X171889708Y-69234372D01*
X171996502Y-69015847D01*
X172085705Y-68874457D01*
X172165796Y-68795032D01*
X172181796Y-68785063D01*
X172369777Y-68734464D01*
X172544155Y-68782554D01*
X172544155Y-68782554D01*
G37*
X172544155Y-68782554D02*
X172673118Y-68917287D01*
X172701328Y-68981761D01*
X172758583Y-69113565D01*
X172815223Y-69191557D01*
X172892562Y-69208808D01*
X173056411Y-69222723D01*
X173280399Y-69231590D01*
X173466619Y-69233891D01*
X173798938Y-69241909D01*
X174034208Y-69269161D01*
X174187545Y-69322125D01*
X174274066Y-69407281D01*
X174308889Y-69531106D01*
X174311734Y-69596096D01*
X174264101Y-69795323D01*
X174122458Y-69933109D01*
X173899527Y-70005883D01*
X173717183Y-70082018D01*
X173524601Y-70235775D01*
X173346529Y-70437447D01*
X173207713Y-70657323D01*
X173132903Y-70865698D01*
X173126400Y-70933979D01*
X173150696Y-71059925D01*
X173234039Y-71143102D01*
X173392114Y-71190533D01*
X173640608Y-71209243D01*
X173743578Y-71210311D01*
X173971490Y-71216746D01*
X174118586Y-71240695D01*
X174216446Y-71289125D01*
X174255289Y-71323200D01*
X174353416Y-71478503D01*
X174341508Y-71642093D01*
X174219014Y-71819370D01*
X174203187Y-71835541D01*
X174126390Y-71908146D01*
X174053201Y-71955403D01*
X173958320Y-71982573D01*
X173816450Y-71994917D01*
X173602291Y-71997697D01*
X173427075Y-71996955D01*
X173164785Y-71991242D01*
X172935880Y-71978611D01*
X172769332Y-71961098D01*
X172703067Y-71946109D01*
X172464274Y-71791535D01*
X172304513Y-71571364D01*
X172225098Y-71301878D01*
X172227342Y-70999354D01*
X172312558Y-70680073D01*
X172482060Y-70360315D01*
X172565899Y-70245777D01*
X172740775Y-70024977D01*
X172572828Y-70024977D01*
X172461225Y-70039999D01*
X172386460Y-70104139D01*
X172317132Y-70246010D01*
X172309571Y-70264866D01*
X172171416Y-70527400D01*
X172008133Y-70694799D01*
X171828950Y-70761850D01*
X171643094Y-70723338D01*
X171573594Y-70680641D01*
X171502899Y-70595910D01*
X171477429Y-70468618D01*
X171499255Y-70285946D01*
X171570443Y-70035075D01*
X171693065Y-69703183D01*
X171756843Y-69545200D01*
X171889708Y-69234372D01*
X171996502Y-69015847D01*
X172085705Y-68874457D01*
X172165796Y-68795032D01*
X172181796Y-68785063D01*
X172369777Y-68734464D01*
X172544155Y-68782554D01*
G36*
X170431872Y-69220354D02*
X170545775Y-69250674D01*
X170728568Y-69352917D01*
X170920244Y-69523065D01*
X171086662Y-69724658D01*
X171193682Y-69921233D01*
X171204152Y-69953809D01*
X171257711Y-70347739D01*
X171213059Y-70751547D01*
X171079282Y-71140017D01*
X170865464Y-71487932D01*
X170580692Y-71770077D01*
X170538712Y-71800766D01*
X170416012Y-71881314D01*
X170304358Y-71932609D01*
X170171984Y-71962028D01*
X169987123Y-71976944D01*
X169749163Y-71984074D01*
X169492499Y-71983977D01*
X169261464Y-71973873D01*
X169091024Y-71955717D01*
X169040066Y-71944424D01*
X168812463Y-71819889D01*
X168611689Y-71611405D01*
X168465421Y-71347908D01*
X168462670Y-71340783D01*
X168402812Y-71064259D01*
X168402067Y-70804669D01*
X169295986Y-70804669D01*
X169298449Y-70848974D01*
X169333705Y-71016753D01*
X169418646Y-71115252D01*
X169457511Y-71137495D01*
X169647476Y-71184660D01*
X169872992Y-71174020D01*
X170021956Y-71131428D01*
X170135123Y-71039628D01*
X170248009Y-70881665D01*
X170334245Y-70701208D01*
X170367068Y-70559927D01*
X170370554Y-70364202D01*
X170345612Y-70236135D01*
X170280502Y-70131735D01*
X170240880Y-70087069D01*
X170134680Y-70001186D01*
X170011462Y-69983047D01*
X169916325Y-69996177D01*
X169663625Y-70095990D01*
X169464890Y-70279347D01*
X169336788Y-70523242D01*
X169295986Y-70804669D01*
X168402067Y-70804669D01*
X168401876Y-70738429D01*
X168456335Y-70408027D01*
X168558443Y-70126098D01*
X168729748Y-69866141D01*
X168965074Y-69616495D01*
X169230468Y-69407799D01*
X169491979Y-69270691D01*
X169515494Y-69262466D01*
X169804833Y-69201478D01*
X170128923Y-69187228D01*
X170431872Y-69220354D01*
X170431872Y-69220354D01*
G37*
X170431872Y-69220354D02*
X170545775Y-69250674D01*
X170728568Y-69352917D01*
X170920244Y-69523065D01*
X171086662Y-69724658D01*
X171193682Y-69921233D01*
X171204152Y-69953809D01*
X171257711Y-70347739D01*
X171213059Y-70751547D01*
X171079282Y-71140017D01*
X170865464Y-71487932D01*
X170580692Y-71770077D01*
X170538712Y-71800766D01*
X170416012Y-71881314D01*
X170304358Y-71932609D01*
X170171984Y-71962028D01*
X169987123Y-71976944D01*
X169749163Y-71984074D01*
X169492499Y-71983977D01*
X169261464Y-71973873D01*
X169091024Y-71955717D01*
X169040066Y-71944424D01*
X168812463Y-71819889D01*
X168611689Y-71611405D01*
X168465421Y-71347908D01*
X168462670Y-71340783D01*
X168402812Y-71064259D01*
X168402067Y-70804669D01*
X169295986Y-70804669D01*
X169298449Y-70848974D01*
X169333705Y-71016753D01*
X169418646Y-71115252D01*
X169457511Y-71137495D01*
X169647476Y-71184660D01*
X169872992Y-71174020D01*
X170021956Y-71131428D01*
X170135123Y-71039628D01*
X170248009Y-70881665D01*
X170334245Y-70701208D01*
X170367068Y-70559927D01*
X170370554Y-70364202D01*
X170345612Y-70236135D01*
X170280502Y-70131735D01*
X170240880Y-70087069D01*
X170134680Y-70001186D01*
X170011462Y-69983047D01*
X169916325Y-69996177D01*
X169663625Y-70095990D01*
X169464890Y-70279347D01*
X169336788Y-70523242D01*
X169295986Y-70804669D01*
X168402067Y-70804669D01*
X168401876Y-70738429D01*
X168456335Y-70408027D01*
X168558443Y-70126098D01*
X168729748Y-69866141D01*
X168965074Y-69616495D01*
X169230468Y-69407799D01*
X169491979Y-69270691D01*
X169515494Y-69262466D01*
X169804833Y-69201478D01*
X170128923Y-69187228D01*
X170431872Y-69220354D01*
G36*
X168040814Y-68317528D02*
X168164379Y-68435691D01*
X168209290Y-68616449D01*
X168170900Y-68846566D01*
X168101698Y-69011226D01*
X167987661Y-69234755D01*
X168177616Y-69234755D01*
X168371838Y-69280181D01*
X168501351Y-69398731D01*
X168554367Y-69563811D01*
X168519098Y-69748830D01*
X168452853Y-69855654D01*
X168348109Y-69940385D01*
X168182495Y-69993449D01*
X168020944Y-70017130D01*
X167690582Y-70053200D01*
X167448796Y-70631755D01*
X167207010Y-71210311D01*
X167542039Y-71210311D01*
X167760563Y-71221085D01*
X167901475Y-71258953D01*
X167986792Y-71320035D01*
X168067341Y-71471782D01*
X168053384Y-71649573D01*
X167949331Y-71825061D01*
X167900631Y-71873533D01*
X167826992Y-71930163D01*
X167742165Y-71967006D01*
X167621283Y-71988234D01*
X167439477Y-71998016D01*
X167171880Y-72000522D01*
X167143289Y-72000533D01*
X166866973Y-71998489D01*
X166678341Y-71989518D01*
X166552218Y-71969356D01*
X166463431Y-71933742D01*
X166386806Y-71878416D01*
X166378095Y-71870992D01*
X166280100Y-71757627D01*
X166233401Y-71618432D01*
X166239245Y-71436769D01*
X166298881Y-71196001D01*
X166413557Y-70879490D01*
X166461341Y-70761293D01*
X166561309Y-70517920D01*
X166646620Y-70309451D01*
X166707333Y-70160233D01*
X166732207Y-70098071D01*
X166710932Y-70039780D01*
X166621854Y-70024977D01*
X166474719Y-69984088D01*
X166390037Y-69921755D01*
X166306090Y-69760451D01*
X166318631Y-69591650D01*
X166414689Y-69435482D01*
X166581295Y-69312078D01*
X166805482Y-69241570D01*
X166830400Y-69238223D01*
X166976039Y-69216958D01*
X167067417Y-69178988D01*
X167132916Y-69098234D01*
X167200919Y-68948620D01*
X167233489Y-68867866D01*
X167383656Y-68568353D01*
X167553333Y-68375625D01*
X167747883Y-68284472D01*
X167843244Y-68275200D01*
X168040814Y-68317528D01*
X168040814Y-68317528D01*
G37*
X168040814Y-68317528D02*
X168164379Y-68435691D01*
X168209290Y-68616449D01*
X168170900Y-68846566D01*
X168101698Y-69011226D01*
X167987661Y-69234755D01*
X168177616Y-69234755D01*
X168371838Y-69280181D01*
X168501351Y-69398731D01*
X168554367Y-69563811D01*
X168519098Y-69748830D01*
X168452853Y-69855654D01*
X168348109Y-69940385D01*
X168182495Y-69993449D01*
X168020944Y-70017130D01*
X167690582Y-70053200D01*
X167448796Y-70631755D01*
X167207010Y-71210311D01*
X167542039Y-71210311D01*
X167760563Y-71221085D01*
X167901475Y-71258953D01*
X167986792Y-71320035D01*
X168067341Y-71471782D01*
X168053384Y-71649573D01*
X167949331Y-71825061D01*
X167900631Y-71873533D01*
X167826992Y-71930163D01*
X167742165Y-71967006D01*
X167621283Y-71988234D01*
X167439477Y-71998016D01*
X167171880Y-72000522D01*
X167143289Y-72000533D01*
X166866973Y-71998489D01*
X166678341Y-71989518D01*
X166552218Y-71969356D01*
X166463431Y-71933742D01*
X166386806Y-71878416D01*
X166378095Y-71870992D01*
X166280100Y-71757627D01*
X166233401Y-71618432D01*
X166239245Y-71436769D01*
X166298881Y-71196001D01*
X166413557Y-70879490D01*
X166461341Y-70761293D01*
X166561309Y-70517920D01*
X166646620Y-70309451D01*
X166707333Y-70160233D01*
X166732207Y-70098071D01*
X166710932Y-70039780D01*
X166621854Y-70024977D01*
X166474719Y-69984088D01*
X166390037Y-69921755D01*
X166306090Y-69760451D01*
X166318631Y-69591650D01*
X166414689Y-69435482D01*
X166581295Y-69312078D01*
X166805482Y-69241570D01*
X166830400Y-69238223D01*
X166976039Y-69216958D01*
X167067417Y-69178988D01*
X167132916Y-69098234D01*
X167200919Y-68948620D01*
X167233489Y-68867866D01*
X167383656Y-68568353D01*
X167553333Y-68375625D01*
X167747883Y-68284472D01*
X167843244Y-68275200D01*
X168040814Y-68317528D01*
G36*
X164573552Y-69212602D02*
X164795390Y-69319364D01*
X165003244Y-69460418D01*
X165124354Y-69347586D01*
X165281031Y-69260964D01*
X165463006Y-69243731D01*
X165638493Y-69286912D01*
X165775701Y-69381531D01*
X165842843Y-69518612D01*
X165845067Y-69551089D01*
X165825460Y-69625268D01*
X165772335Y-69781614D01*
X165694236Y-69997535D01*
X165599708Y-70250438D01*
X165497296Y-70517730D01*
X165395544Y-70776818D01*
X165302996Y-71005110D01*
X165233585Y-71167933D01*
X165273551Y-71191263D01*
X165396389Y-71206655D01*
X165517360Y-71210311D01*
X165794003Y-71239148D01*
X165976229Y-71324896D01*
X166062105Y-71466406D01*
X166069050Y-71538067D01*
X166031783Y-71728934D01*
X165919291Y-71865412D01*
X165722757Y-71952348D01*
X165433363Y-71994592D01*
X165227889Y-72000533D01*
X164984576Y-71995505D01*
X164825887Y-71976882D01*
X164723860Y-71939352D01*
X164665869Y-71893780D01*
X164587873Y-71825595D01*
X164521382Y-71821202D01*
X164417334Y-71880534D01*
X164397758Y-71893408D01*
X164233273Y-71956740D01*
X163998442Y-71993107D01*
X163732705Y-72001819D01*
X163475505Y-71982188D01*
X163266281Y-71933524D01*
X163220400Y-71913976D01*
X163079280Y-71812118D01*
X162939757Y-71663785D01*
X162909956Y-71623063D01*
X162836731Y-71499920D01*
X162793952Y-71373281D01*
X162773908Y-71206932D01*
X162768890Y-70964660D01*
X162768890Y-70960446D01*
X162770447Y-70907239D01*
X163610368Y-70907239D01*
X163668235Y-71076868D01*
X163794863Y-71180017D01*
X163982603Y-71203798D01*
X164169333Y-71157905D01*
X164262877Y-71090505D01*
X164358585Y-70950010D01*
X164467828Y-70719192D01*
X164483452Y-70682051D01*
X164566686Y-70468417D01*
X164628738Y-70283064D01*
X164658583Y-70159649D01*
X164659734Y-70143776D01*
X164610355Y-70022533D01*
X164485350Y-69945856D01*
X164319420Y-69934385D01*
X164310358Y-69935951D01*
X164191942Y-69956667D01*
X164139907Y-69964338D01*
X164068329Y-70009969D01*
X163960797Y-70116387D01*
X163845860Y-70251735D01*
X163752066Y-70384153D01*
X163731504Y-70420088D01*
X163628908Y-70684016D01*
X163610368Y-70907239D01*
X162770447Y-70907239D01*
X162776721Y-70692965D01*
X162806333Y-70489641D01*
X162866997Y-70302437D01*
X162918352Y-70185959D01*
X163121418Y-69846146D01*
X163375027Y-69567476D01*
X163663112Y-69357370D01*
X163969606Y-69223243D01*
X164278442Y-69172514D01*
X164573552Y-69212602D01*
X164573552Y-69212602D01*
G37*
X164573552Y-69212602D02*
X164795390Y-69319364D01*
X165003244Y-69460418D01*
X165124354Y-69347586D01*
X165281031Y-69260964D01*
X165463006Y-69243731D01*
X165638493Y-69286912D01*
X165775701Y-69381531D01*
X165842843Y-69518612D01*
X165845067Y-69551089D01*
X165825460Y-69625268D01*
X165772335Y-69781614D01*
X165694236Y-69997535D01*
X165599708Y-70250438D01*
X165497296Y-70517730D01*
X165395544Y-70776818D01*
X165302996Y-71005110D01*
X165233585Y-71167933D01*
X165273551Y-71191263D01*
X165396389Y-71206655D01*
X165517360Y-71210311D01*
X165794003Y-71239148D01*
X165976229Y-71324896D01*
X166062105Y-71466406D01*
X166069050Y-71538067D01*
X166031783Y-71728934D01*
X165919291Y-71865412D01*
X165722757Y-71952348D01*
X165433363Y-71994592D01*
X165227889Y-72000533D01*
X164984576Y-71995505D01*
X164825887Y-71976882D01*
X164723860Y-71939352D01*
X164665869Y-71893780D01*
X164587873Y-71825595D01*
X164521382Y-71821202D01*
X164417334Y-71880534D01*
X164397758Y-71893408D01*
X164233273Y-71956740D01*
X163998442Y-71993107D01*
X163732705Y-72001819D01*
X163475505Y-71982188D01*
X163266281Y-71933524D01*
X163220400Y-71913976D01*
X163079280Y-71812118D01*
X162939757Y-71663785D01*
X162909956Y-71623063D01*
X162836731Y-71499920D01*
X162793952Y-71373281D01*
X162773908Y-71206932D01*
X162768890Y-70964660D01*
X162768890Y-70960446D01*
X162770447Y-70907239D01*
X163610368Y-70907239D01*
X163668235Y-71076868D01*
X163794863Y-71180017D01*
X163982603Y-71203798D01*
X164169333Y-71157905D01*
X164262877Y-71090505D01*
X164358585Y-70950010D01*
X164467828Y-70719192D01*
X164483452Y-70682051D01*
X164566686Y-70468417D01*
X164628738Y-70283064D01*
X164658583Y-70159649D01*
X164659734Y-70143776D01*
X164610355Y-70022533D01*
X164485350Y-69945856D01*
X164319420Y-69934385D01*
X164310358Y-69935951D01*
X164191942Y-69956667D01*
X164139907Y-69964338D01*
X164068329Y-70009969D01*
X163960797Y-70116387D01*
X163845860Y-70251735D01*
X163752066Y-70384153D01*
X163731504Y-70420088D01*
X163628908Y-70684016D01*
X163610368Y-70907239D01*
X162770447Y-70907239D01*
X162776721Y-70692965D01*
X162806333Y-70489641D01*
X162866997Y-70302437D01*
X162918352Y-70185959D01*
X163121418Y-69846146D01*
X163375027Y-69567476D01*
X163663112Y-69357370D01*
X163969606Y-69223243D01*
X164278442Y-69172514D01*
X164573552Y-69212602D01*
G36*
X158448708Y-69300870D02*
X158507974Y-69348328D01*
X158563577Y-69418232D01*
X158591442Y-69501935D01*
X158588419Y-69615684D01*
X158551356Y-69775731D01*
X158477104Y-69998326D01*
X158362510Y-70299716D01*
X158286119Y-70492508D01*
X158010771Y-71182088D01*
X158301364Y-71197264D01*
X158566771Y-71227436D01*
X158736316Y-71290481D01*
X158824392Y-71395037D01*
X158845956Y-71524040D01*
X158811792Y-71698733D01*
X158738171Y-71839057D01*
X158683522Y-71897172D01*
X158616249Y-71936144D01*
X158513484Y-71960457D01*
X158352362Y-71974596D01*
X158110018Y-71983045D01*
X157990282Y-71985730D01*
X157637687Y-71986109D01*
X157393147Y-71969963D01*
X157253004Y-71937017D01*
X157238590Y-71929285D01*
X157064919Y-71779845D01*
X156990293Y-71602545D01*
X156985084Y-71535051D01*
X157006729Y-71414126D01*
X157067459Y-71213936D01*
X157158393Y-70956099D01*
X157270650Y-70662232D01*
X157395350Y-70353954D01*
X157523610Y-70052884D01*
X157646551Y-69780638D01*
X157755291Y-69558837D01*
X157840950Y-69409097D01*
X157877370Y-69363023D01*
X158058435Y-69259411D01*
X158262459Y-69238377D01*
X158448708Y-69300870D01*
X158448708Y-69300870D01*
G37*
X158448708Y-69300870D02*
X158507974Y-69348328D01*
X158563577Y-69418232D01*
X158591442Y-69501935D01*
X158588419Y-69615684D01*
X158551356Y-69775731D01*
X158477104Y-69998326D01*
X158362510Y-70299716D01*
X158286119Y-70492508D01*
X158010771Y-71182088D01*
X158301364Y-71197264D01*
X158566771Y-71227436D01*
X158736316Y-71290481D01*
X158824392Y-71395037D01*
X158845956Y-71524040D01*
X158811792Y-71698733D01*
X158738171Y-71839057D01*
X158683522Y-71897172D01*
X158616249Y-71936144D01*
X158513484Y-71960457D01*
X158352362Y-71974596D01*
X158110018Y-71983045D01*
X157990282Y-71985730D01*
X157637687Y-71986109D01*
X157393147Y-71969963D01*
X157253004Y-71937017D01*
X157238590Y-71929285D01*
X157064919Y-71779845D01*
X156990293Y-71602545D01*
X156985084Y-71535051D01*
X157006729Y-71414126D01*
X157067459Y-71213936D01*
X157158393Y-70956099D01*
X157270650Y-70662232D01*
X157395350Y-70353954D01*
X157523610Y-70052884D01*
X157646551Y-69780638D01*
X157755291Y-69558837D01*
X157840950Y-69409097D01*
X157877370Y-69363023D01*
X158058435Y-69259411D01*
X158262459Y-69238377D01*
X158448708Y-69300870D01*
G36*
X153346341Y-69189709D02*
X153664214Y-69291113D01*
X153941531Y-69475616D01*
X154161996Y-69741430D01*
X154242773Y-69897223D01*
X154322051Y-70208203D01*
X154316078Y-70549923D01*
X154235285Y-70899677D01*
X154090104Y-71234761D01*
X153890966Y-71532471D01*
X153648302Y-71770099D01*
X153372544Y-71924943D01*
X153300692Y-71947780D01*
X153103424Y-71980059D01*
X152846714Y-71994184D01*
X152568821Y-71991127D01*
X152308006Y-71971861D01*
X152102529Y-71937360D01*
X152034544Y-71915571D01*
X151788065Y-71753257D01*
X151606195Y-71508680D01*
X151495996Y-71196697D01*
X151464527Y-70832161D01*
X151467845Y-70772478D01*
X152354845Y-70772478D01*
X152399856Y-70987558D01*
X152521530Y-71135121D01*
X152699830Y-71205897D01*
X152914716Y-71190615D01*
X153093113Y-71114013D01*
X153256893Y-70964600D01*
X153379125Y-70754286D01*
X153445908Y-70521110D01*
X153443344Y-70303109D01*
X153418036Y-70224766D01*
X153298096Y-70066063D01*
X153137618Y-69994067D01*
X152955088Y-69999252D01*
X152768993Y-70072095D01*
X152597819Y-70203074D01*
X152460052Y-70382664D01*
X152374179Y-70601343D01*
X152354845Y-70772478D01*
X151467845Y-70772478D01*
X151470296Y-70728416D01*
X151523808Y-70390007D01*
X151632608Y-70107456D01*
X151814724Y-69843756D01*
X151995235Y-69650807D01*
X152312359Y-69401951D01*
X152654117Y-69243341D01*
X153004209Y-69173189D01*
X153346341Y-69189709D01*
X153346341Y-69189709D01*
G37*
X153346341Y-69189709D02*
X153664214Y-69291113D01*
X153941531Y-69475616D01*
X154161996Y-69741430D01*
X154242773Y-69897223D01*
X154322051Y-70208203D01*
X154316078Y-70549923D01*
X154235285Y-70899677D01*
X154090104Y-71234761D01*
X153890966Y-71532471D01*
X153648302Y-71770099D01*
X153372544Y-71924943D01*
X153300692Y-71947780D01*
X153103424Y-71980059D01*
X152846714Y-71994184D01*
X152568821Y-71991127D01*
X152308006Y-71971861D01*
X152102529Y-71937360D01*
X152034544Y-71915571D01*
X151788065Y-71753257D01*
X151606195Y-71508680D01*
X151495996Y-71196697D01*
X151464527Y-70832161D01*
X151467845Y-70772478D01*
X152354845Y-70772478D01*
X152399856Y-70987558D01*
X152521530Y-71135121D01*
X152699830Y-71205897D01*
X152914716Y-71190615D01*
X153093113Y-71114013D01*
X153256893Y-70964600D01*
X153379125Y-70754286D01*
X153445908Y-70521110D01*
X153443344Y-70303109D01*
X153418036Y-70224766D01*
X153298096Y-70066063D01*
X153137618Y-69994067D01*
X152955088Y-69999252D01*
X152768993Y-70072095D01*
X152597819Y-70203074D01*
X152460052Y-70382664D01*
X152374179Y-70601343D01*
X152354845Y-70772478D01*
X151467845Y-70772478D01*
X151470296Y-70728416D01*
X151523808Y-70390007D01*
X151632608Y-70107456D01*
X151814724Y-69843756D01*
X151995235Y-69650807D01*
X152312359Y-69401951D01*
X152654117Y-69243341D01*
X153004209Y-69173189D01*
X153346341Y-69189709D01*
G36*
X150252003Y-69203845D02*
X150547794Y-69287402D01*
X150806605Y-69438375D01*
X151013882Y-69656445D01*
X151155076Y-69941291D01*
X151208527Y-70195513D01*
X151200992Y-70570860D01*
X151108430Y-70948443D01*
X150943771Y-71301991D01*
X150719947Y-71605235D01*
X150449890Y-71831904D01*
X150384522Y-71869432D01*
X150234972Y-71937402D01*
X150081730Y-71976700D01*
X149887069Y-71993818D01*
X149650745Y-71995681D01*
X149405919Y-71987756D01*
X149185819Y-71971009D01*
X149029177Y-71948650D01*
X149002289Y-71941919D01*
X148758442Y-71813672D01*
X148566927Y-71602863D01*
X148433167Y-71329612D01*
X148362587Y-71014039D01*
X148361391Y-70809686D01*
X149250400Y-70809686D01*
X149264559Y-70970522D01*
X149322353Y-71066762D01*
X149405623Y-71123061D01*
X149616310Y-71182995D01*
X149862468Y-71167526D01*
X149995688Y-71126611D01*
X150128587Y-71019565D01*
X150239302Y-70837498D01*
X150314958Y-70617895D01*
X150342679Y-70398241D01*
X150309588Y-70216019D01*
X150308957Y-70214623D01*
X150189702Y-70055291D01*
X150031883Y-69984168D01*
X149852944Y-69991451D01*
X149670327Y-70067333D01*
X149501476Y-70202008D01*
X149363833Y-70385671D01*
X149274843Y-70608516D01*
X149250400Y-70809686D01*
X148361391Y-70809686D01*
X148360609Y-70676263D01*
X148432659Y-70336406D01*
X148515508Y-70136206D01*
X148727614Y-69808532D01*
X148990045Y-69550197D01*
X149288250Y-69360881D01*
X149607679Y-69240264D01*
X149933781Y-69188026D01*
X150252003Y-69203845D01*
X150252003Y-69203845D01*
G37*
X150252003Y-69203845D02*
X150547794Y-69287402D01*
X150806605Y-69438375D01*
X151013882Y-69656445D01*
X151155076Y-69941291D01*
X151208527Y-70195513D01*
X151200992Y-70570860D01*
X151108430Y-70948443D01*
X150943771Y-71301991D01*
X150719947Y-71605235D01*
X150449890Y-71831904D01*
X150384522Y-71869432D01*
X150234972Y-71937402D01*
X150081730Y-71976700D01*
X149887069Y-71993818D01*
X149650745Y-71995681D01*
X149405919Y-71987756D01*
X149185819Y-71971009D01*
X149029177Y-71948650D01*
X149002289Y-71941919D01*
X148758442Y-71813672D01*
X148566927Y-71602863D01*
X148433167Y-71329612D01*
X148362587Y-71014039D01*
X148361391Y-70809686D01*
X149250400Y-70809686D01*
X149264559Y-70970522D01*
X149322353Y-71066762D01*
X149405623Y-71123061D01*
X149616310Y-71182995D01*
X149862468Y-71167526D01*
X149995688Y-71126611D01*
X150128587Y-71019565D01*
X150239302Y-70837498D01*
X150314958Y-70617895D01*
X150342679Y-70398241D01*
X150309588Y-70216019D01*
X150308957Y-70214623D01*
X150189702Y-70055291D01*
X150031883Y-69984168D01*
X149852944Y-69991451D01*
X149670327Y-70067333D01*
X149501476Y-70202008D01*
X149363833Y-70385671D01*
X149274843Y-70608516D01*
X149250400Y-70809686D01*
X148361391Y-70809686D01*
X148360609Y-70676263D01*
X148432659Y-70336406D01*
X148515508Y-70136206D01*
X148727614Y-69808532D01*
X148990045Y-69550197D01*
X149288250Y-69360881D01*
X149607679Y-69240264D01*
X149933781Y-69188026D01*
X150252003Y-69203845D01*
G36*
X138685719Y-69201455D02*
X138997660Y-69294282D01*
X139236408Y-69461947D01*
X139394244Y-69698280D01*
X139463445Y-69997112D01*
X139465335Y-70114201D01*
X139425373Y-70392984D01*
X139320353Y-70606114D01*
X139141233Y-70759740D01*
X138878966Y-70860009D01*
X138524510Y-70913069D01*
X138273090Y-70924636D01*
X138034407Y-70930471D01*
X137842753Y-70937705D01*
X137722884Y-70945257D01*
X137695118Y-70949890D01*
X137712478Y-71000300D01*
X137759898Y-71073320D01*
X137802451Y-71116513D01*
X137869449Y-71148030D01*
X137979370Y-71170660D01*
X138150698Y-71187195D01*
X138401912Y-71200425D01*
X138667141Y-71210311D01*
X138993792Y-71222870D01*
X139226082Y-71236513D01*
X139382525Y-71254048D01*
X139481636Y-71278285D01*
X139541929Y-71312037D01*
X139574892Y-71348099D01*
X139647568Y-71510715D01*
X139616806Y-71671089D01*
X139489853Y-71835541D01*
X139324862Y-72000533D01*
X138487964Y-71996077D01*
X138177532Y-71990562D01*
X137894730Y-71978446D01*
X137664838Y-71961322D01*
X137513135Y-71940786D01*
X137481734Y-71932590D01*
X137201350Y-71780524D01*
X136999705Y-71550041D01*
X136879657Y-71246306D01*
X136844066Y-70874488D01*
X136847669Y-70786977D01*
X136918695Y-70354912D01*
X136974394Y-70225323D01*
X137923338Y-70225323D01*
X137952996Y-70246777D01*
X138057789Y-70247854D01*
X138244356Y-70233090D01*
X138433417Y-70215600D01*
X138570631Y-70202549D01*
X138624734Y-70196942D01*
X138637358Y-70148234D01*
X138638845Y-70110719D01*
X138593224Y-70026740D01*
X138476642Y-69989351D01*
X138319521Y-69995489D01*
X138152283Y-70042091D01*
X138005350Y-70126093D01*
X137949894Y-70180087D01*
X137923338Y-70225323D01*
X136974394Y-70225323D01*
X137078042Y-69984182D01*
X137333549Y-69656957D01*
X137353435Y-69637004D01*
X137639868Y-69400245D01*
X137938667Y-69257294D01*
X138285412Y-69191480D01*
X138308308Y-69189636D01*
X138685719Y-69201455D01*
X138685719Y-69201455D01*
G37*
X138685719Y-69201455D02*
X138997660Y-69294282D01*
X139236408Y-69461947D01*
X139394244Y-69698280D01*
X139463445Y-69997112D01*
X139465335Y-70114201D01*
X139425373Y-70392984D01*
X139320353Y-70606114D01*
X139141233Y-70759740D01*
X138878966Y-70860009D01*
X138524510Y-70913069D01*
X138273090Y-70924636D01*
X138034407Y-70930471D01*
X137842753Y-70937705D01*
X137722884Y-70945257D01*
X137695118Y-70949890D01*
X137712478Y-71000300D01*
X137759898Y-71073320D01*
X137802451Y-71116513D01*
X137869449Y-71148030D01*
X137979370Y-71170660D01*
X138150698Y-71187195D01*
X138401912Y-71200425D01*
X138667141Y-71210311D01*
X138993792Y-71222870D01*
X139226082Y-71236513D01*
X139382525Y-71254048D01*
X139481636Y-71278285D01*
X139541929Y-71312037D01*
X139574892Y-71348099D01*
X139647568Y-71510715D01*
X139616806Y-71671089D01*
X139489853Y-71835541D01*
X139324862Y-72000533D01*
X138487964Y-71996077D01*
X138177532Y-71990562D01*
X137894730Y-71978446D01*
X137664838Y-71961322D01*
X137513135Y-71940786D01*
X137481734Y-71932590D01*
X137201350Y-71780524D01*
X136999705Y-71550041D01*
X136879657Y-71246306D01*
X136844066Y-70874488D01*
X136847669Y-70786977D01*
X136918695Y-70354912D01*
X136974394Y-70225323D01*
X137923338Y-70225323D01*
X137952996Y-70246777D01*
X138057789Y-70247854D01*
X138244356Y-70233090D01*
X138433417Y-70215600D01*
X138570631Y-70202549D01*
X138624734Y-70196942D01*
X138637358Y-70148234D01*
X138638845Y-70110719D01*
X138593224Y-70026740D01*
X138476642Y-69989351D01*
X138319521Y-69995489D01*
X138152283Y-70042091D01*
X138005350Y-70126093D01*
X137949894Y-70180087D01*
X137923338Y-70225323D01*
X136974394Y-70225323D01*
X137078042Y-69984182D01*
X137333549Y-69656957D01*
X137353435Y-69637004D01*
X137639868Y-69400245D01*
X137938667Y-69257294D01*
X138285412Y-69191480D01*
X138308308Y-69189636D01*
X138685719Y-69201455D01*
G36*
X161717215Y-69236973D02*
X161934063Y-69365467D01*
X162088916Y-69557590D01*
X162159142Y-69786378D01*
X162158005Y-69928830D01*
X162120595Y-70110315D01*
X162041113Y-70353297D01*
X161954378Y-70579437D01*
X161861658Y-70814487D01*
X161786855Y-71008527D01*
X161738518Y-71139089D01*
X161724623Y-71183223D01*
X161775886Y-71197586D01*
X161908993Y-71207408D01*
X162059257Y-71210311D01*
X162310376Y-71229223D01*
X162469184Y-71293158D01*
X162550947Y-71412913D01*
X162571289Y-71572483D01*
X162553026Y-71728956D01*
X162488111Y-71840948D01*
X162361350Y-71916153D01*
X162157555Y-71962264D01*
X161861533Y-71986974D01*
X161743563Y-71991660D01*
X161414339Y-71998611D01*
X161177531Y-71991755D01*
X161013094Y-71967102D01*
X160900983Y-71920661D01*
X160821152Y-71848442D01*
X160786948Y-71801221D01*
X160730377Y-71696830D01*
X160705258Y-71587284D01*
X160714686Y-71451738D01*
X160761759Y-71269345D01*
X160849574Y-71019261D01*
X160936691Y-70793408D01*
X161049281Y-70493438D01*
X161113105Y-70279914D01*
X161127893Y-70137340D01*
X161093372Y-70050220D01*
X161009272Y-70003058D01*
X160922555Y-69985761D01*
X160755150Y-70007568D01*
X160595247Y-70123094D01*
X160437803Y-70338059D01*
X160277775Y-70658181D01*
X160230546Y-70770562D01*
X160064375Y-71173491D01*
X159929146Y-71482876D01*
X159816214Y-71710895D01*
X159716935Y-71869725D01*
X159622663Y-71971541D01*
X159524754Y-72028522D01*
X159414563Y-72052843D01*
X159317271Y-72056977D01*
X159131843Y-72011840D01*
X159024846Y-71915195D01*
X158945364Y-71754656D01*
X158945532Y-71650235D01*
X158983202Y-71536110D01*
X159055134Y-71343138D01*
X159152973Y-71091737D01*
X159268368Y-70802322D01*
X159392964Y-70495311D01*
X159518409Y-70191118D01*
X159636350Y-69910161D01*
X159738433Y-69672855D01*
X159816305Y-69499618D01*
X159861614Y-69410865D01*
X159861956Y-69410351D01*
X159997482Y-69299040D01*
X160187039Y-69247740D01*
X160386022Y-69261554D01*
X160535589Y-69333297D01*
X160622290Y-69397162D01*
X160693210Y-69411489D01*
X160789880Y-69373794D01*
X160901605Y-69311411D01*
X161180296Y-69202131D01*
X161459063Y-69179923D01*
X161717215Y-69236973D01*
X161717215Y-69236973D01*
G37*
X161717215Y-69236973D02*
X161934063Y-69365467D01*
X162088916Y-69557590D01*
X162159142Y-69786378D01*
X162158005Y-69928830D01*
X162120595Y-70110315D01*
X162041113Y-70353297D01*
X161954378Y-70579437D01*
X161861658Y-70814487D01*
X161786855Y-71008527D01*
X161738518Y-71139089D01*
X161724623Y-71183223D01*
X161775886Y-71197586D01*
X161908993Y-71207408D01*
X162059257Y-71210311D01*
X162310376Y-71229223D01*
X162469184Y-71293158D01*
X162550947Y-71412913D01*
X162571289Y-71572483D01*
X162553026Y-71728956D01*
X162488111Y-71840948D01*
X162361350Y-71916153D01*
X162157555Y-71962264D01*
X161861533Y-71986974D01*
X161743563Y-71991660D01*
X161414339Y-71998611D01*
X161177531Y-71991755D01*
X161013094Y-71967102D01*
X160900983Y-71920661D01*
X160821152Y-71848442D01*
X160786948Y-71801221D01*
X160730377Y-71696830D01*
X160705258Y-71587284D01*
X160714686Y-71451738D01*
X160761759Y-71269345D01*
X160849574Y-71019261D01*
X160936691Y-70793408D01*
X161049281Y-70493438D01*
X161113105Y-70279914D01*
X161127893Y-70137340D01*
X161093372Y-70050220D01*
X161009272Y-70003058D01*
X160922555Y-69985761D01*
X160755150Y-70007568D01*
X160595247Y-70123094D01*
X160437803Y-70338059D01*
X160277775Y-70658181D01*
X160230546Y-70770562D01*
X160064375Y-71173491D01*
X159929146Y-71482876D01*
X159816214Y-71710895D01*
X159716935Y-71869725D01*
X159622663Y-71971541D01*
X159524754Y-72028522D01*
X159414563Y-72052843D01*
X159317271Y-72056977D01*
X159131843Y-72011840D01*
X159024846Y-71915195D01*
X158945364Y-71754656D01*
X158945532Y-71650235D01*
X158983202Y-71536110D01*
X159055134Y-71343138D01*
X159152973Y-71091737D01*
X159268368Y-70802322D01*
X159392964Y-70495311D01*
X159518409Y-70191118D01*
X159636350Y-69910161D01*
X159738433Y-69672855D01*
X159816305Y-69499618D01*
X159861614Y-69410865D01*
X159861956Y-69410351D01*
X159997482Y-69299040D01*
X160187039Y-69247740D01*
X160386022Y-69261554D01*
X160535589Y-69333297D01*
X160622290Y-69397162D01*
X160693210Y-69411489D01*
X160789880Y-69373794D01*
X160901605Y-69311411D01*
X161180296Y-69202131D01*
X161459063Y-69179923D01*
X161717215Y-69236973D01*
G36*
X135419962Y-67073877D02*
X135559671Y-67174160D01*
X135640223Y-67302646D01*
X135647289Y-67350107D01*
X135626891Y-67430393D01*
X135570364Y-67595953D01*
X135484707Y-67827738D01*
X135376919Y-68106697D01*
X135280400Y-68348695D01*
X135160624Y-68647375D01*
X135057226Y-68909705D01*
X134977100Y-69117829D01*
X134927138Y-69253894D01*
X134913511Y-69299130D01*
X134958831Y-69307474D01*
X135071449Y-69275087D01*
X135109254Y-69260097D01*
X135389726Y-69189190D01*
X135662806Y-69201294D01*
X135907788Y-69286098D01*
X136103965Y-69433290D01*
X136230630Y-69632561D01*
X136268178Y-69837162D01*
X136243988Y-69990637D01*
X136173818Y-70234729D01*
X136061274Y-70558639D01*
X135909958Y-70951565D01*
X135833580Y-71139755D01*
X135849408Y-71181372D01*
X135949408Y-71203801D01*
X136140502Y-71210311D01*
X136404593Y-71235357D01*
X136573550Y-71313270D01*
X136654077Y-71448212D01*
X136663289Y-71534694D01*
X136640321Y-71708859D01*
X136563007Y-71836277D01*
X136418731Y-71922935D01*
X136194880Y-71974818D01*
X135878837Y-71997912D01*
X135681462Y-72000533D01*
X135410853Y-71998369D01*
X135227099Y-71988805D01*
X135104198Y-71967233D01*
X135016150Y-71929043D01*
X134936956Y-71869628D01*
X134935402Y-71868293D01*
X134834850Y-71747866D01*
X134793045Y-71598051D01*
X134810937Y-71401594D01*
X134889477Y-71141240D01*
X134989132Y-70892778D01*
X135125583Y-70554000D01*
X135204239Y-70303480D01*
X135224589Y-70132200D01*
X135186121Y-70031143D01*
X135088326Y-69991292D01*
X134938650Y-70002156D01*
X134813386Y-70035069D01*
X134706420Y-70093308D01*
X134608007Y-70191008D01*
X134508402Y-70342307D01*
X134397863Y-70561339D01*
X134266644Y-70862242D01*
X134150851Y-71145062D01*
X133992520Y-71507049D01*
X133847311Y-71768646D01*
X133706923Y-71940303D01*
X133563055Y-72032467D01*
X133427060Y-72056113D01*
X133282103Y-72043183D01*
X133187132Y-72013780D01*
X133073974Y-71875857D01*
X133037077Y-71693845D01*
X133050484Y-71610167D01*
X133082280Y-71521635D01*
X133151066Y-71343057D01*
X133251036Y-71088849D01*
X133376384Y-70773428D01*
X133521303Y-70411210D01*
X133679988Y-70016611D01*
X133846632Y-69604047D01*
X134015428Y-69187936D01*
X134180572Y-68782693D01*
X134336256Y-68402734D01*
X134476675Y-68062476D01*
X134558712Y-67865355D01*
X134708185Y-67532195D01*
X134841441Y-67295507D01*
X134969506Y-67142207D01*
X135103402Y-67059215D01*
X135254155Y-67033448D01*
X135259790Y-67033422D01*
X135419962Y-67073877D01*
X135419962Y-67073877D01*
G37*
X135419962Y-67073877D02*
X135559671Y-67174160D01*
X135640223Y-67302646D01*
X135647289Y-67350107D01*
X135626891Y-67430393D01*
X135570364Y-67595953D01*
X135484707Y-67827738D01*
X135376919Y-68106697D01*
X135280400Y-68348695D01*
X135160624Y-68647375D01*
X135057226Y-68909705D01*
X134977100Y-69117829D01*
X134927138Y-69253894D01*
X134913511Y-69299130D01*
X134958831Y-69307474D01*
X135071449Y-69275087D01*
X135109254Y-69260097D01*
X135389726Y-69189190D01*
X135662806Y-69201294D01*
X135907788Y-69286098D01*
X136103965Y-69433290D01*
X136230630Y-69632561D01*
X136268178Y-69837162D01*
X136243988Y-69990637D01*
X136173818Y-70234729D01*
X136061274Y-70558639D01*
X135909958Y-70951565D01*
X135833580Y-71139755D01*
X135849408Y-71181372D01*
X135949408Y-71203801D01*
X136140502Y-71210311D01*
X136404593Y-71235357D01*
X136573550Y-71313270D01*
X136654077Y-71448212D01*
X136663289Y-71534694D01*
X136640321Y-71708859D01*
X136563007Y-71836277D01*
X136418731Y-71922935D01*
X136194880Y-71974818D01*
X135878837Y-71997912D01*
X135681462Y-72000533D01*
X135410853Y-71998369D01*
X135227099Y-71988805D01*
X135104198Y-71967233D01*
X135016150Y-71929043D01*
X134936956Y-71869628D01*
X134935402Y-71868293D01*
X134834850Y-71747866D01*
X134793045Y-71598051D01*
X134810937Y-71401594D01*
X134889477Y-71141240D01*
X134989132Y-70892778D01*
X135125583Y-70554000D01*
X135204239Y-70303480D01*
X135224589Y-70132200D01*
X135186121Y-70031143D01*
X135088326Y-69991292D01*
X134938650Y-70002156D01*
X134813386Y-70035069D01*
X134706420Y-70093308D01*
X134608007Y-70191008D01*
X134508402Y-70342307D01*
X134397863Y-70561339D01*
X134266644Y-70862242D01*
X134150851Y-71145062D01*
X133992520Y-71507049D01*
X133847311Y-71768646D01*
X133706923Y-71940303D01*
X133563055Y-72032467D01*
X133427060Y-72056113D01*
X133282103Y-72043183D01*
X133187132Y-72013780D01*
X133073974Y-71875857D01*
X133037077Y-71693845D01*
X133050484Y-71610167D01*
X133082280Y-71521635D01*
X133151066Y-71343057D01*
X133251036Y-71088849D01*
X133376384Y-70773428D01*
X133521303Y-70411210D01*
X133679988Y-70016611D01*
X133846632Y-69604047D01*
X134015428Y-69187936D01*
X134180572Y-68782693D01*
X134336256Y-68402734D01*
X134476675Y-68062476D01*
X134558712Y-67865355D01*
X134708185Y-67532195D01*
X134841441Y-67295507D01*
X134969506Y-67142207D01*
X135103402Y-67059215D01*
X135254155Y-67033448D01*
X135259790Y-67033422D01*
X135419962Y-67073877D01*
G36*
X132353290Y-67091924D02*
X132832241Y-67094117D01*
X133210246Y-67098942D01*
X133499245Y-67108955D01*
X133711180Y-67126712D01*
X133857993Y-67154767D01*
X133951625Y-67195677D01*
X134004019Y-67251997D01*
X134027114Y-67326283D01*
X134032855Y-67421091D01*
X134032978Y-67451396D01*
X134011725Y-67635705D01*
X133938128Y-67766482D01*
X133797432Y-67852720D01*
X133574880Y-67903414D01*
X133255716Y-67927559D01*
X133251577Y-67927712D01*
X132721486Y-67947113D01*
X132173946Y-69310601D01*
X131902286Y-69985768D01*
X131667751Y-70564748D01*
X131466117Y-71056397D01*
X131293164Y-71469575D01*
X131144669Y-71813137D01*
X131016412Y-72095943D01*
X130904171Y-72326849D01*
X130803725Y-72514714D01*
X130710851Y-72668395D01*
X130621330Y-72796749D01*
X130530938Y-72908634D01*
X130435455Y-73012908D01*
X130384809Y-73064634D01*
X130052367Y-73348788D01*
X129704567Y-73537188D01*
X129312076Y-73642633D01*
X128987898Y-73674264D01*
X128713089Y-73679505D01*
X128506958Y-73663144D01*
X128326464Y-73619803D01*
X128208000Y-73576802D01*
X127890492Y-73398561D01*
X127603759Y-73141107D01*
X127382798Y-72838033D01*
X127330641Y-72734545D01*
X127251846Y-72473844D01*
X127207405Y-72146569D01*
X127198969Y-71794192D01*
X127228190Y-71458189D01*
X127271754Y-71255558D01*
X127467515Y-70778442D01*
X127759699Y-70346475D01*
X128137587Y-69969248D01*
X128590457Y-69656356D01*
X129107590Y-69417393D01*
X129440995Y-69314325D01*
X129742537Y-69258688D01*
X130041478Y-69241146D01*
X130309805Y-69260175D01*
X130519504Y-69314253D01*
X130623195Y-69378617D01*
X130736877Y-69565744D01*
X130749381Y-69781442D01*
X130701712Y-69922199D01*
X130657352Y-70000104D01*
X130602865Y-70056542D01*
X130516954Y-70099874D01*
X130378322Y-70138460D01*
X130165673Y-70180659D01*
X129943056Y-70220013D01*
X129449039Y-70337610D01*
X129047443Y-70506119D01*
X128726507Y-70732977D01*
X128474470Y-71025621D01*
X128358487Y-71222080D01*
X128273643Y-71459183D01*
X128230962Y-71735361D01*
X128231489Y-72011487D01*
X128276271Y-72248438D01*
X128328070Y-72360595D01*
X128466278Y-72529607D01*
X128630864Y-72636329D01*
X128845490Y-72688806D01*
X129133815Y-72695082D01*
X129284387Y-72685733D01*
X129405816Y-72631935D01*
X129562920Y-72499760D01*
X129737470Y-72310022D01*
X129911241Y-72083533D01*
X130066005Y-71841108D01*
X130131609Y-71718311D01*
X130205596Y-71558847D01*
X130314075Y-71311530D01*
X130449858Y-70993420D01*
X130605755Y-70621575D01*
X130774577Y-70213054D01*
X130949135Y-69784916D01*
X131011755Y-69629866D01*
X131682477Y-67964755D01*
X131189668Y-67936533D01*
X130895855Y-67910786D01*
X130697911Y-67867427D01*
X130579155Y-67797605D01*
X130522908Y-67692470D01*
X130511709Y-67576844D01*
X130526991Y-67416019D01*
X130588743Y-67303640D01*
X130723774Y-67192884D01*
X130736623Y-67184010D01*
X130790497Y-67154336D01*
X130864245Y-67131446D01*
X130971701Y-67114552D01*
X131126703Y-67102866D01*
X131343087Y-67095600D01*
X131634689Y-67091965D01*
X132015345Y-67091173D01*
X132353290Y-67091924D01*
X132353290Y-67091924D01*
G37*
X132353290Y-67091924D02*
X132832241Y-67094117D01*
X133210246Y-67098942D01*
X133499245Y-67108955D01*
X133711180Y-67126712D01*
X133857993Y-67154767D01*
X133951625Y-67195677D01*
X134004019Y-67251997D01*
X134027114Y-67326283D01*
X134032855Y-67421091D01*
X134032978Y-67451396D01*
X134011725Y-67635705D01*
X133938128Y-67766482D01*
X133797432Y-67852720D01*
X133574880Y-67903414D01*
X133255716Y-67927559D01*
X133251577Y-67927712D01*
X132721486Y-67947113D01*
X132173946Y-69310601D01*
X131902286Y-69985768D01*
X131667751Y-70564748D01*
X131466117Y-71056397D01*
X131293164Y-71469575D01*
X131144669Y-71813137D01*
X131016412Y-72095943D01*
X130904171Y-72326849D01*
X130803725Y-72514714D01*
X130710851Y-72668395D01*
X130621330Y-72796749D01*
X130530938Y-72908634D01*
X130435455Y-73012908D01*
X130384809Y-73064634D01*
X130052367Y-73348788D01*
X129704567Y-73537188D01*
X129312076Y-73642633D01*
X128987898Y-73674264D01*
X128713089Y-73679505D01*
X128506958Y-73663144D01*
X128326464Y-73619803D01*
X128208000Y-73576802D01*
X127890492Y-73398561D01*
X127603759Y-73141107D01*
X127382798Y-72838033D01*
X127330641Y-72734545D01*
X127251846Y-72473844D01*
X127207405Y-72146569D01*
X127198969Y-71794192D01*
X127228190Y-71458189D01*
X127271754Y-71255558D01*
X127467515Y-70778442D01*
X127759699Y-70346475D01*
X128137587Y-69969248D01*
X128590457Y-69656356D01*
X129107590Y-69417393D01*
X129440995Y-69314325D01*
X129742537Y-69258688D01*
X130041478Y-69241146D01*
X130309805Y-69260175D01*
X130519504Y-69314253D01*
X130623195Y-69378617D01*
X130736877Y-69565744D01*
X130749381Y-69781442D01*
X130701712Y-69922199D01*
X130657352Y-70000104D01*
X130602865Y-70056542D01*
X130516954Y-70099874D01*
X130378322Y-70138460D01*
X130165673Y-70180659D01*
X129943056Y-70220013D01*
X129449039Y-70337610D01*
X129047443Y-70506119D01*
X128726507Y-70732977D01*
X128474470Y-71025621D01*
X128358487Y-71222080D01*
X128273643Y-71459183D01*
X128230962Y-71735361D01*
X128231489Y-72011487D01*
X128276271Y-72248438D01*
X128328070Y-72360595D01*
X128466278Y-72529607D01*
X128630864Y-72636329D01*
X128845490Y-72688806D01*
X129133815Y-72695082D01*
X129284387Y-72685733D01*
X129405816Y-72631935D01*
X129562920Y-72499760D01*
X129737470Y-72310022D01*
X129911241Y-72083533D01*
X130066005Y-71841108D01*
X130131609Y-71718311D01*
X130205596Y-71558847D01*
X130314075Y-71311530D01*
X130449858Y-70993420D01*
X130605755Y-70621575D01*
X130774577Y-70213054D01*
X130949135Y-69784916D01*
X131011755Y-69629866D01*
X131682477Y-67964755D01*
X131189668Y-67936533D01*
X130895855Y-67910786D01*
X130697911Y-67867427D01*
X130579155Y-67797605D01*
X130522908Y-67692470D01*
X130511709Y-67576844D01*
X130526991Y-67416019D01*
X130588743Y-67303640D01*
X130723774Y-67192884D01*
X130736623Y-67184010D01*
X130790497Y-67154336D01*
X130864245Y-67131446D01*
X130971701Y-67114552D01*
X131126703Y-67102866D01*
X131343087Y-67095600D01*
X131634689Y-67091965D01*
X132015345Y-67091173D01*
X132353290Y-67091924D01*
G36*
X157863562Y-67093586D02*
X158028893Y-67108077D01*
X158135706Y-67138337D01*
X158211112Y-67189361D01*
X158225067Y-67202755D01*
X158316772Y-67327317D01*
X158329774Y-67463482D01*
X158285012Y-67616881D01*
X158193393Y-67735328D01*
X158015285Y-67821752D01*
X157740998Y-67879972D01*
X157568425Y-67899373D01*
X157363638Y-67929054D01*
X157200259Y-67987025D01*
X157064278Y-68088482D01*
X156941682Y-68248621D01*
X156818462Y-68482638D01*
X156680607Y-68805728D01*
X156641023Y-68905221D01*
X156579611Y-69065570D01*
X156539963Y-69177821D01*
X156531734Y-69208622D01*
X156582767Y-69223011D01*
X156714263Y-69232503D01*
X156838504Y-69234755D01*
X157138996Y-69255296D01*
X157338008Y-69319318D01*
X157439670Y-69430415D01*
X157448109Y-69592184D01*
X157404819Y-69727975D01*
X157346948Y-69844668D01*
X157274702Y-69922778D01*
X157164562Y-69971897D01*
X156993014Y-70001618D01*
X156736540Y-70021535D01*
X156676723Y-70024977D01*
X156172601Y-70053200D01*
X155334403Y-72141644D01*
X155110020Y-72697874D01*
X154921858Y-73157480D01*
X154765939Y-73529327D01*
X154638287Y-73822281D01*
X154534922Y-74045205D01*
X154451869Y-74206967D01*
X154385149Y-74316430D01*
X154330785Y-74382459D01*
X154327745Y-74385311D01*
X154130872Y-74509147D01*
X153930009Y-74535083D01*
X153748863Y-74461616D01*
X153706584Y-74424716D01*
X153616436Y-74266517D01*
X153614782Y-74156523D01*
X153640988Y-74070380D01*
X153704956Y-73892533D01*
X153801747Y-73635779D01*
X153926420Y-73312914D01*
X154074035Y-72936735D01*
X154239651Y-72520037D01*
X154414488Y-72085117D01*
X154592343Y-71645057D01*
X154757340Y-71236710D01*
X154904575Y-70872218D01*
X155029146Y-70563724D01*
X155126148Y-70323370D01*
X155190679Y-70163301D01*
X155217835Y-70095658D01*
X155217884Y-70095533D01*
X155195552Y-70044503D01*
X155071193Y-70025275D01*
X155044651Y-70024977D01*
X154788648Y-69995893D01*
X154627506Y-69907715D01*
X154559060Y-69759055D01*
X154556178Y-69711726D01*
X154584805Y-69514465D01*
X154679803Y-69377634D01*
X154854846Y-69290776D01*
X155123608Y-69243431D01*
X155174298Y-69238976D01*
X155583450Y-69206533D01*
X155828657Y-68595990D01*
X156020001Y-68144378D01*
X156197828Y-67790922D01*
X156375687Y-67524183D01*
X156567128Y-67332722D01*
X156785700Y-67205099D01*
X157044953Y-67129874D01*
X157358437Y-67095609D01*
X157612601Y-67089866D01*
X157863562Y-67093586D01*
X157863562Y-67093586D01*
G37*
X157863562Y-67093586D02*
X158028893Y-67108077D01*
X158135706Y-67138337D01*
X158211112Y-67189361D01*
X158225067Y-67202755D01*
X158316772Y-67327317D01*
X158329774Y-67463482D01*
X158285012Y-67616881D01*
X158193393Y-67735328D01*
X158015285Y-67821752D01*
X157740998Y-67879972D01*
X157568425Y-67899373D01*
X157363638Y-67929054D01*
X157200259Y-67987025D01*
X157064278Y-68088482D01*
X156941682Y-68248621D01*
X156818462Y-68482638D01*
X156680607Y-68805728D01*
X156641023Y-68905221D01*
X156579611Y-69065570D01*
X156539963Y-69177821D01*
X156531734Y-69208622D01*
X156582767Y-69223011D01*
X156714263Y-69232503D01*
X156838504Y-69234755D01*
X157138996Y-69255296D01*
X157338008Y-69319318D01*
X157439670Y-69430415D01*
X157448109Y-69592184D01*
X157404819Y-69727975D01*
X157346948Y-69844668D01*
X157274702Y-69922778D01*
X157164562Y-69971897D01*
X156993014Y-70001618D01*
X156736540Y-70021535D01*
X156676723Y-70024977D01*
X156172601Y-70053200D01*
X155334403Y-72141644D01*
X155110020Y-72697874D01*
X154921858Y-73157480D01*
X154765939Y-73529327D01*
X154638287Y-73822281D01*
X154534922Y-74045205D01*
X154451869Y-74206967D01*
X154385149Y-74316430D01*
X154330785Y-74382459D01*
X154327745Y-74385311D01*
X154130872Y-74509147D01*
X153930009Y-74535083D01*
X153748863Y-74461616D01*
X153706584Y-74424716D01*
X153616436Y-74266517D01*
X153614782Y-74156523D01*
X153640988Y-74070380D01*
X153704956Y-73892533D01*
X153801747Y-73635779D01*
X153926420Y-73312914D01*
X154074035Y-72936735D01*
X154239651Y-72520037D01*
X154414488Y-72085117D01*
X154592343Y-71645057D01*
X154757340Y-71236710D01*
X154904575Y-70872218D01*
X155029146Y-70563724D01*
X155126148Y-70323370D01*
X155190679Y-70163301D01*
X155217835Y-70095658D01*
X155217884Y-70095533D01*
X155195552Y-70044503D01*
X155071193Y-70025275D01*
X155044651Y-70024977D01*
X154788648Y-69995893D01*
X154627506Y-69907715D01*
X154559060Y-69759055D01*
X154556178Y-69711726D01*
X154584805Y-69514465D01*
X154679803Y-69377634D01*
X154854846Y-69290776D01*
X155123608Y-69243431D01*
X155174298Y-69238976D01*
X155583450Y-69206533D01*
X155828657Y-68595990D01*
X156020001Y-68144378D01*
X156197828Y-67790922D01*
X156375687Y-67524183D01*
X156567128Y-67332722D01*
X156785700Y-67205099D01*
X157044953Y-67129874D01*
X157358437Y-67095609D01*
X157612601Y-67089866D01*
X157863562Y-67093586D01*
G36*
X146173113Y-67099879D02*
X146611795Y-67132887D01*
X146971989Y-67193349D01*
X147270130Y-67285722D01*
X147522650Y-67414462D01*
X147745984Y-67584028D01*
X147857643Y-67691466D01*
X148077765Y-67996386D01*
X148227734Y-68378308D01*
X148305938Y-68824534D01*
X148310765Y-69322368D01*
X148240603Y-69859111D01*
X148171027Y-70160440D01*
X147994638Y-70648754D01*
X147729462Y-71144757D01*
X147393450Y-71619381D01*
X147012895Y-72035607D01*
X146565016Y-72401072D01*
X146080921Y-72670451D01*
X145548009Y-72848581D01*
X144953675Y-72940297D01*
X144615972Y-72955447D01*
X144243098Y-72960088D01*
X144008997Y-73443453D01*
X143724888Y-73934519D01*
X143398557Y-74321113D01*
X143029377Y-74603709D01*
X142616721Y-74782784D01*
X142159963Y-74858811D01*
X142138400Y-74859815D01*
X141768035Y-74851658D01*
X141463117Y-74796978D01*
X141442448Y-74790643D01*
X141190964Y-74669153D01*
X140950982Y-74481886D01*
X140753495Y-74258751D01*
X140629491Y-74029655D01*
X140618947Y-73995917D01*
X140555565Y-73581483D01*
X140573530Y-73410168D01*
X141564139Y-73410168D01*
X141588520Y-73611721D01*
X141690515Y-73795636D01*
X141827956Y-73910516D01*
X141978380Y-73949347D01*
X142179362Y-73943673D01*
X142380094Y-73898683D01*
X142500554Y-73841834D01*
X142671782Y-73703929D01*
X142844376Y-73526391D01*
X142996702Y-73336443D01*
X143107132Y-73161304D01*
X143154034Y-73028196D01*
X143154400Y-73019013D01*
X143102615Y-72992415D01*
X142964474Y-72977389D01*
X142765804Y-72972875D01*
X142532429Y-72977812D01*
X142290176Y-72991140D01*
X142064868Y-73011799D01*
X141882331Y-73038728D01*
X141768391Y-73070868D01*
X141758408Y-73076325D01*
X141619920Y-73221520D01*
X141564139Y-73410168D01*
X140573530Y-73410168D01*
X140596879Y-73187531D01*
X140740096Y-72827688D01*
X140905635Y-72596357D01*
X141044713Y-72451462D01*
X141185862Y-72340836D01*
X141347459Y-72259220D01*
X141547877Y-72201356D01*
X141805490Y-72161987D01*
X142138674Y-72135854D01*
X142565803Y-72117699D01*
X142579975Y-72117232D01*
X143557771Y-72085200D01*
X143560620Y-72078188D01*
X144578528Y-72078188D01*
X144607916Y-72102798D01*
X144720234Y-72105683D01*
X144888396Y-72090427D01*
X145085317Y-72060612D01*
X145283909Y-72019820D01*
X145457089Y-71971634D01*
X145499890Y-71956329D01*
X145919557Y-71736316D01*
X146308117Y-71414180D01*
X146658337Y-70998130D01*
X146962984Y-70496380D01*
X147152781Y-70079860D01*
X147255176Y-69802293D01*
X147314728Y-69568760D01*
X147341860Y-69324757D01*
X147347208Y-69063136D01*
X147302495Y-68690197D01*
X147170703Y-68388334D01*
X146952733Y-68158839D01*
X146649486Y-68003007D01*
X146596759Y-67986083D01*
X146405133Y-67958441D01*
X146266962Y-67997124D01*
X146204049Y-68094819D01*
X146202400Y-68118358D01*
X146181274Y-68201816D01*
X146128835Y-68340173D01*
X146111979Y-68379558D01*
X146040946Y-68544082D01*
X145983325Y-68681878D01*
X145976623Y-68698533D01*
X145923934Y-68826741D01*
X145854848Y-68990136D01*
X145846765Y-69008977D01*
X145801411Y-69117733D01*
X145721241Y-69313334D01*
X145613534Y-69577882D01*
X145485571Y-69893476D01*
X145344630Y-70242216D01*
X145272911Y-70420088D01*
X145080962Y-70895339D01*
X144926255Y-71275536D01*
X144804615Y-71570643D01*
X144711870Y-71790624D01*
X144643849Y-71945444D01*
X144596376Y-72045067D01*
X144578528Y-72078188D01*
X143560620Y-72078188D01*
X144395068Y-70024977D01*
X145232364Y-67964755D01*
X144913945Y-67947433D01*
X144655499Y-67910670D01*
X144491686Y-67828158D01*
X144410437Y-67691003D01*
X144396178Y-67565913D01*
X144429689Y-67400732D01*
X144545747Y-67256892D01*
X144569842Y-67235995D01*
X144638705Y-67181146D01*
X144707116Y-67142089D01*
X144794690Y-67116142D01*
X144921042Y-67100626D01*
X145105790Y-67092862D01*
X145368548Y-67090169D01*
X145639508Y-67089866D01*
X146173113Y-67099879D01*
X146173113Y-67099879D01*
G37*
X146173113Y-67099879D02*
X146611795Y-67132887D01*
X146971989Y-67193349D01*
X147270130Y-67285722D01*
X147522650Y-67414462D01*
X147745984Y-67584028D01*
X147857643Y-67691466D01*
X148077765Y-67996386D01*
X148227734Y-68378308D01*
X148305938Y-68824534D01*
X148310765Y-69322368D01*
X148240603Y-69859111D01*
X148171027Y-70160440D01*
X147994638Y-70648754D01*
X147729462Y-71144757D01*
X147393450Y-71619381D01*
X147012895Y-72035607D01*
X146565016Y-72401072D01*
X146080921Y-72670451D01*
X145548009Y-72848581D01*
X144953675Y-72940297D01*
X144615972Y-72955447D01*
X144243098Y-72960088D01*
X144008997Y-73443453D01*
X143724888Y-73934519D01*
X143398557Y-74321113D01*
X143029377Y-74603709D01*
X142616721Y-74782784D01*
X142159963Y-74858811D01*
X142138400Y-74859815D01*
X141768035Y-74851658D01*
X141463117Y-74796978D01*
X141442448Y-74790643D01*
X141190964Y-74669153D01*
X140950982Y-74481886D01*
X140753495Y-74258751D01*
X140629491Y-74029655D01*
X140618947Y-73995917D01*
X140555565Y-73581483D01*
X140573530Y-73410168D01*
X141564139Y-73410168D01*
X141588520Y-73611721D01*
X141690515Y-73795636D01*
X141827956Y-73910516D01*
X141978380Y-73949347D01*
X142179362Y-73943673D01*
X142380094Y-73898683D01*
X142500554Y-73841834D01*
X142671782Y-73703929D01*
X142844376Y-73526391D01*
X142996702Y-73336443D01*
X143107132Y-73161304D01*
X143154034Y-73028196D01*
X143154400Y-73019013D01*
X143102615Y-72992415D01*
X142964474Y-72977389D01*
X142765804Y-72972875D01*
X142532429Y-72977812D01*
X142290176Y-72991140D01*
X142064868Y-73011799D01*
X141882331Y-73038728D01*
X141768391Y-73070868D01*
X141758408Y-73076325D01*
X141619920Y-73221520D01*
X141564139Y-73410168D01*
X140573530Y-73410168D01*
X140596879Y-73187531D01*
X140740096Y-72827688D01*
X140905635Y-72596357D01*
X141044713Y-72451462D01*
X141185862Y-72340836D01*
X141347459Y-72259220D01*
X141547877Y-72201356D01*
X141805490Y-72161987D01*
X142138674Y-72135854D01*
X142565803Y-72117699D01*
X142579975Y-72117232D01*
X143557771Y-72085200D01*
X143560620Y-72078188D01*
X144578528Y-72078188D01*
X144607916Y-72102798D01*
X144720234Y-72105683D01*
X144888396Y-72090427D01*
X145085317Y-72060612D01*
X145283909Y-72019820D01*
X145457089Y-71971634D01*
X145499890Y-71956329D01*
X145919557Y-71736316D01*
X146308117Y-71414180D01*
X146658337Y-70998130D01*
X146962984Y-70496380D01*
X147152781Y-70079860D01*
X147255176Y-69802293D01*
X147314728Y-69568760D01*
X147341860Y-69324757D01*
X147347208Y-69063136D01*
X147302495Y-68690197D01*
X147170703Y-68388334D01*
X146952733Y-68158839D01*
X146649486Y-68003007D01*
X146596759Y-67986083D01*
X146405133Y-67958441D01*
X146266962Y-67997124D01*
X146204049Y-68094819D01*
X146202400Y-68118358D01*
X146181274Y-68201816D01*
X146128835Y-68340173D01*
X146111979Y-68379558D01*
X146040946Y-68544082D01*
X145983325Y-68681878D01*
X145976623Y-68698533D01*
X145923934Y-68826741D01*
X145854848Y-68990136D01*
X145846765Y-69008977D01*
X145801411Y-69117733D01*
X145721241Y-69313334D01*
X145613534Y-69577882D01*
X145485571Y-69893476D01*
X145344630Y-70242216D01*
X145272911Y-70420088D01*
X145080962Y-70895339D01*
X144926255Y-71275536D01*
X144804615Y-71570643D01*
X144711870Y-71790624D01*
X144643849Y-71945444D01*
X144596376Y-72045067D01*
X144578528Y-72078188D01*
X143560620Y-72078188D01*
X144395068Y-70024977D01*
X145232364Y-67964755D01*
X144913945Y-67947433D01*
X144655499Y-67910670D01*
X144491686Y-67828158D01*
X144410437Y-67691003D01*
X144396178Y-67565913D01*
X144429689Y-67400732D01*
X144545747Y-67256892D01*
X144569842Y-67235995D01*
X144638705Y-67181146D01*
X144707116Y-67142089D01*
X144794690Y-67116142D01*
X144921042Y-67100626D01*
X145105790Y-67092862D01*
X145368548Y-67090169D01*
X145639508Y-67089866D01*
X146173113Y-67099879D01*
G04 #@! TO.C,G_CU_F*
G36*
X146422771Y-24621397D02*
X148681055Y-24621412D01*
X150845657Y-24621443D01*
X152918583Y-24621495D01*
X154901838Y-24621571D01*
X156797428Y-24621678D01*
X158607359Y-24621818D01*
X160333635Y-24621997D01*
X161978262Y-24622220D01*
X163543246Y-24622491D01*
X165030592Y-24622815D01*
X166442305Y-24623196D01*
X167780390Y-24623639D01*
X169046854Y-24624148D01*
X170243702Y-24624729D01*
X171372938Y-24625385D01*
X172436569Y-24626122D01*
X173436600Y-24626944D01*
X174375036Y-24627855D01*
X175253883Y-24628860D01*
X176075145Y-24629965D01*
X176840830Y-24631172D01*
X177552941Y-24632488D01*
X178213485Y-24633917D01*
X178824467Y-24635462D01*
X179387892Y-24637130D01*
X179905765Y-24638924D01*
X180380093Y-24640849D01*
X180812880Y-24642910D01*
X181206132Y-24645111D01*
X181561854Y-24647457D01*
X181882052Y-24649952D01*
X182168732Y-24652602D01*
X182423898Y-24655410D01*
X182649556Y-24658382D01*
X182847711Y-24661522D01*
X183020369Y-24664834D01*
X183169536Y-24668323D01*
X183297216Y-24671995D01*
X183405416Y-24675852D01*
X183496140Y-24679901D01*
X183571394Y-24684145D01*
X183633183Y-24688590D01*
X183683513Y-24693239D01*
X183724390Y-24698098D01*
X183757818Y-24703171D01*
X183785803Y-24708463D01*
X183805147Y-24712746D01*
X184589425Y-24942046D01*
X185316369Y-25250181D01*
X185987488Y-25638004D01*
X186604289Y-26106364D01*
X187082343Y-26563511D01*
X187568155Y-27139642D01*
X187971915Y-27756239D01*
X188297844Y-28421630D01*
X188550162Y-29144139D01*
X188698442Y-29752011D01*
X188703785Y-29780599D01*
X188708909Y-29814059D01*
X188713821Y-29854404D01*
X188718523Y-29903645D01*
X188723021Y-29963793D01*
X188727320Y-30036862D01*
X188731423Y-30124861D01*
X188735336Y-30229804D01*
X188739062Y-30353701D01*
X188742607Y-30498565D01*
X188745975Y-30666407D01*
X188749170Y-30859240D01*
X188752197Y-31079074D01*
X188755061Y-31327921D01*
X188757766Y-31607794D01*
X188760316Y-31920704D01*
X188762716Y-32268662D01*
X188764971Y-32653681D01*
X188767085Y-33077772D01*
X188769063Y-33542947D01*
X188770908Y-34051218D01*
X188772627Y-34604596D01*
X188774223Y-35205093D01*
X188775700Y-35854721D01*
X188777064Y-36555491D01*
X188778318Y-37309416D01*
X188779468Y-38118507D01*
X188780518Y-38984776D01*
X188781472Y-39910234D01*
X188782335Y-40896894D01*
X188783111Y-41946767D01*
X188783806Y-43061864D01*
X188784423Y-44244198D01*
X188784967Y-45495781D01*
X188785442Y-46818623D01*
X188785854Y-48214737D01*
X188786206Y-49686134D01*
X188786503Y-51234827D01*
X188786750Y-52862826D01*
X188786951Y-54572144D01*
X188787110Y-56364793D01*
X188787233Y-58242784D01*
X188787324Y-60208128D01*
X188787387Y-62262838D01*
X188787426Y-64408926D01*
X188787447Y-66648403D01*
X188787454Y-68983280D01*
X188787454Y-69315624D01*
X188787449Y-71664112D01*
X188787430Y-73916920D01*
X188787392Y-76076058D01*
X188787331Y-78143539D01*
X188787243Y-80121373D01*
X188787124Y-82011572D01*
X188786967Y-83816147D01*
X188786770Y-85537111D01*
X188786528Y-87176473D01*
X188786235Y-88736247D01*
X188785888Y-90218443D01*
X188785482Y-91625072D01*
X188785013Y-92958147D01*
X188784476Y-94219678D01*
X188783866Y-95411678D01*
X188783179Y-96536157D01*
X188782411Y-97595127D01*
X188781557Y-98590600D01*
X188780613Y-99524586D01*
X188779573Y-100399098D01*
X188778434Y-101216147D01*
X188777191Y-101977744D01*
X188775839Y-102685901D01*
X188774375Y-103342629D01*
X188772793Y-103949940D01*
X188771089Y-104509845D01*
X188769258Y-105024356D01*
X188767296Y-105495484D01*
X188765199Y-105925240D01*
X188762962Y-106315636D01*
X188760580Y-106668684D01*
X188758049Y-106986395D01*
X188755365Y-107270780D01*
X188752522Y-107523850D01*
X188749517Y-107747619D01*
X188746345Y-107944095D01*
X188743001Y-108115292D01*
X188739481Y-108263221D01*
X188735780Y-108389893D01*
X188731894Y-108497319D01*
X188727819Y-108587512D01*
X188723550Y-108662482D01*
X188719082Y-108724241D01*
X188714410Y-108774800D01*
X188709531Y-108816171D01*
X188704440Y-108850366D01*
X188699133Y-108879395D01*
X188698809Y-108881008D01*
X188496011Y-109654489D01*
X188211531Y-110381724D01*
X187850336Y-111057825D01*
X187417393Y-111677904D01*
X186917672Y-112237073D01*
X186356138Y-112730445D01*
X185737759Y-113153131D01*
X185067503Y-113500244D01*
X184350338Y-113766896D01*
X183591231Y-113948199D01*
X183540097Y-113956990D01*
X183506349Y-113961655D01*
X183460531Y-113966130D01*
X183400656Y-113970417D01*
X183324740Y-113974519D01*
X183230798Y-113978441D01*
X183116844Y-113982186D01*
X182980895Y-113985758D01*
X182820964Y-113989161D01*
X182635068Y-113992397D01*
X182421220Y-113995471D01*
X182177436Y-113998387D01*
X181901732Y-114001147D01*
X181592121Y-114003756D01*
X181246620Y-114006217D01*
X180863243Y-114008534D01*
X180440005Y-114010711D01*
X179974921Y-114012751D01*
X179466007Y-114014657D01*
X178911276Y-114016434D01*
X178308745Y-114018084D01*
X177656429Y-114019613D01*
X176952342Y-114021022D01*
X176194499Y-114022317D01*
X175380915Y-114023500D01*
X174509606Y-114024575D01*
X173578587Y-114025546D01*
X172585872Y-114026416D01*
X171529477Y-114027190D01*
X170407416Y-114027870D01*
X169217705Y-114028461D01*
X167958358Y-114028965D01*
X166627391Y-114029387D01*
X165222819Y-114029731D01*
X163742657Y-114029999D01*
X162184919Y-114030195D01*
X160547621Y-114030324D01*
X158828778Y-114030389D01*
X157026405Y-114030393D01*
X155138517Y-114030339D01*
X153163128Y-114030233D01*
X151098255Y-114030077D01*
X148941912Y-114029875D01*
X146692113Y-114029630D01*
X144346875Y-114029347D01*
X144023558Y-114029306D01*
X141641190Y-114028984D01*
X139354608Y-114028636D01*
X137161903Y-114028257D01*
X135061170Y-114027844D01*
X133050500Y-114027394D01*
X131127988Y-114026903D01*
X129291725Y-114026367D01*
X127539806Y-114025784D01*
X125870321Y-114025148D01*
X124281366Y-114024457D01*
X122771032Y-114023708D01*
X121337413Y-114022895D01*
X119978601Y-114022017D01*
X118692689Y-114021070D01*
X117477771Y-114020049D01*
X116331939Y-114018952D01*
X115253286Y-114017774D01*
X114239905Y-114016513D01*
X113289889Y-114015164D01*
X112401331Y-114013724D01*
X111572324Y-114012190D01*
X110800961Y-114010558D01*
X110085335Y-114008824D01*
X109423538Y-114006985D01*
X108813663Y-114005038D01*
X108253804Y-114002978D01*
X107742054Y-114000802D01*
X107276505Y-113998507D01*
X106855250Y-113996088D01*
X106476382Y-113993543D01*
X106137994Y-113990868D01*
X105838180Y-113988060D01*
X105575031Y-113985114D01*
X105346642Y-113982027D01*
X105151104Y-113978796D01*
X104986511Y-113975417D01*
X104850955Y-113971886D01*
X104742531Y-113968201D01*
X104659329Y-113964356D01*
X104599445Y-113960350D01*
X104560969Y-113956178D01*
X104556987Y-113955547D01*
X103821950Y-113783412D01*
X103109999Y-113519435D01*
X102430753Y-113168534D01*
X101793832Y-112735627D01*
X101248047Y-112263869D01*
X100719020Y-111688056D01*
X100274194Y-111064719D01*
X99912086Y-110391117D01*
X99631214Y-109664508D01*
X99436582Y-108914332D01*
X99431394Y-108885933D01*
X99426418Y-108851358D01*
X99421648Y-108808598D01*
X99417081Y-108755649D01*
X99412713Y-108690502D01*
X99408537Y-108611152D01*
X99404552Y-108515592D01*
X99400751Y-108401815D01*
X99397131Y-108267814D01*
X99393687Y-108111584D01*
X99390416Y-107931118D01*
X99387311Y-107724408D01*
X99384370Y-107489448D01*
X99381587Y-107224232D01*
X99378959Y-106926754D01*
X99376481Y-106595005D01*
X99374148Y-106226981D01*
X99371957Y-105820674D01*
X99369903Y-105374077D01*
X99367980Y-104885185D01*
X99366186Y-104351990D01*
X99364516Y-103772485D01*
X99362965Y-103144666D01*
X99361529Y-102466523D01*
X99360204Y-101736052D01*
X99358984Y-100951246D01*
X99357867Y-100110097D01*
X99356846Y-99210599D01*
X99355919Y-98250746D01*
X99355081Y-97228531D01*
X99354327Y-96141948D01*
X99353652Y-94988989D01*
X99353054Y-93767649D01*
X99352526Y-92475920D01*
X99352065Y-91111796D01*
X99351667Y-89673271D01*
X99351326Y-88158338D01*
X99351039Y-86564990D01*
X99350802Y-84891220D01*
X99350609Y-83135023D01*
X99350457Y-81294390D01*
X99350340Y-79367317D01*
X99350256Y-77351796D01*
X99350199Y-75245821D01*
X99350165Y-73047384D01*
X99350149Y-70754480D01*
X99350147Y-69315624D01*
X99350153Y-66964393D01*
X99350175Y-64708849D01*
X99350218Y-62546984D01*
X99350286Y-60476791D01*
X99350382Y-58496264D01*
X99350512Y-56603396D01*
X99350680Y-54796182D01*
X99350890Y-53072613D01*
X99351018Y-52246388D01*
X100846695Y-52246388D01*
X100846755Y-54222429D01*
X100846959Y-56290858D01*
X100847307Y-58452478D01*
X100847798Y-60708087D01*
X100848432Y-63058488D01*
X100849207Y-65504480D01*
X100850123Y-68046864D01*
X100850766Y-69681970D01*
X100851718Y-72017565D01*
X100852644Y-74257486D01*
X100853551Y-76403752D01*
X100854444Y-78458381D01*
X100855329Y-80423393D01*
X100856210Y-82300805D01*
X100857094Y-84092636D01*
X100857984Y-85800904D01*
X100858888Y-87427629D01*
X100859811Y-88974829D01*
X100860756Y-90444522D01*
X100861732Y-91838726D01*
X100862741Y-93159461D01*
X100863791Y-94408746D01*
X100864886Y-95588597D01*
X100866031Y-96701035D01*
X100867233Y-97748078D01*
X100868496Y-98731743D01*
X100869826Y-99654051D01*
X100871228Y-100517019D01*
X100872708Y-101322665D01*
X100874272Y-102073010D01*
X100875923Y-102770070D01*
X100877669Y-103415865D01*
X100879514Y-104012413D01*
X100881463Y-104561733D01*
X100883523Y-105065843D01*
X100885698Y-105526762D01*
X100887994Y-105946508D01*
X100890416Y-106327101D01*
X100892970Y-106670558D01*
X100895660Y-106978898D01*
X100898494Y-107254139D01*
X100901475Y-107498301D01*
X100904609Y-107713402D01*
X100907902Y-107901460D01*
X100911359Y-108064494D01*
X100914986Y-108204522D01*
X100918787Y-108323563D01*
X100922769Y-108423636D01*
X100926936Y-108506759D01*
X100931294Y-108574951D01*
X100935849Y-108630230D01*
X100940605Y-108674615D01*
X100945569Y-108710125D01*
X100950745Y-108738777D01*
X100955230Y-108758893D01*
X101163860Y-109426152D01*
X101451265Y-110043159D01*
X101811812Y-110604491D01*
X102239864Y-111104726D01*
X102729786Y-111538442D01*
X103275944Y-111900215D01*
X103872701Y-112184625D01*
X104514422Y-112386248D01*
X104783789Y-112442747D01*
X104857747Y-112447310D01*
X105026552Y-112451744D01*
X105287357Y-112456050D01*
X105637318Y-112460227D01*
X106073588Y-112464276D01*
X106593322Y-112468197D01*
X107193675Y-112471988D01*
X107871800Y-112475650D01*
X108624852Y-112479183D01*
X109449985Y-112482587D01*
X110344354Y-112485860D01*
X111305113Y-112489004D01*
X112329416Y-112492017D01*
X113414417Y-112494900D01*
X114557272Y-112497652D01*
X115755134Y-112500274D01*
X117005157Y-112502765D01*
X118304497Y-112505124D01*
X119650307Y-112507352D01*
X121039741Y-112509449D01*
X122469955Y-112511413D01*
X123938102Y-112513246D01*
X125441336Y-112514946D01*
X126976813Y-112516514D01*
X128541686Y-112517950D01*
X130133109Y-112519252D01*
X131748238Y-112520422D01*
X133384225Y-112521458D01*
X135038227Y-112522361D01*
X136707397Y-112523130D01*
X138388889Y-112523766D01*
X140079857Y-112524267D01*
X141777457Y-112524634D01*
X143478842Y-112524867D01*
X145181167Y-112524965D01*
X146881586Y-112524928D01*
X148577254Y-112524757D01*
X150265324Y-112524449D01*
X151942951Y-112524007D01*
X153607290Y-112523429D01*
X155255494Y-112522715D01*
X156884718Y-112521865D01*
X158492117Y-112520878D01*
X160074845Y-112519755D01*
X161630056Y-112518496D01*
X163154904Y-112517099D01*
X164646544Y-112515566D01*
X166102130Y-112513895D01*
X167518817Y-112512087D01*
X168893758Y-112510141D01*
X170224109Y-112508057D01*
X171507023Y-112505835D01*
X172739655Y-112503475D01*
X173919159Y-112500976D01*
X175042689Y-112498338D01*
X176107400Y-112495562D01*
X177110447Y-112492646D01*
X178048983Y-112489592D01*
X178920163Y-112486397D01*
X179721141Y-112483063D01*
X180449071Y-112479589D01*
X181101109Y-112475975D01*
X181674408Y-112472220D01*
X182166122Y-112468325D01*
X182573406Y-112464290D01*
X182893414Y-112460113D01*
X183123301Y-112455795D01*
X183260221Y-112451336D01*
X183298075Y-112448351D01*
X183970567Y-112283414D01*
X184596043Y-112034541D01*
X185169987Y-111705762D01*
X185687885Y-111301104D01*
X186145223Y-110824594D01*
X186537486Y-110280260D01*
X186860160Y-109672130D01*
X187089887Y-109065482D01*
X187224377Y-108636777D01*
X187224377Y-29994470D01*
X187086839Y-29554854D01*
X186833359Y-28897745D01*
X186504152Y-28297434D01*
X186104155Y-27758679D01*
X185638304Y-27286234D01*
X185111533Y-26884855D01*
X184528780Y-26559297D01*
X183894979Y-26314317D01*
X183652600Y-26246085D01*
X183218993Y-26135624D01*
X104869762Y-26135624D01*
X104454570Y-26248996D01*
X103831876Y-26464099D01*
X103242220Y-26756750D01*
X102702438Y-27117000D01*
X102229368Y-27534897D01*
X102165174Y-27601969D01*
X101737599Y-28119441D01*
X101399158Y-28665697D01*
X101145620Y-29250184D01*
X100972752Y-29882352D01*
X100886965Y-30455367D01*
X100883493Y-30527434D01*
X100880182Y-30673476D01*
X100877032Y-30894294D01*
X100874042Y-31190687D01*
X100871212Y-31563456D01*
X100868541Y-32013402D01*
X100866027Y-32541327D01*
X100863671Y-33148029D01*
X100861471Y-33834310D01*
X100859427Y-34600971D01*
X100857538Y-35448812D01*
X100855804Y-36378634D01*
X100854223Y-37391237D01*
X100852794Y-38487423D01*
X100851518Y-39667991D01*
X100850393Y-40933742D01*
X100849419Y-42285478D01*
X100848595Y-43723997D01*
X100847920Y-45250103D01*
X100847393Y-46864594D01*
X100847014Y-48568271D01*
X100846781Y-50361936D01*
X100846695Y-52246388D01*
X99351018Y-52246388D01*
X99351146Y-51430684D01*
X99351453Y-49868387D01*
X99351816Y-48383717D01*
X99352239Y-46974667D01*
X99352725Y-45639229D01*
X99353280Y-44375398D01*
X99353908Y-43181167D01*
X99354613Y-42054530D01*
X99355400Y-40993479D01*
X99356273Y-39996008D01*
X99357236Y-39060110D01*
X99358294Y-38183780D01*
X99359451Y-37365009D01*
X99360711Y-36601793D01*
X99362080Y-35892123D01*
X99363561Y-35233994D01*
X99365158Y-34625399D01*
X99366876Y-34064331D01*
X99368720Y-33548783D01*
X99370694Y-33076750D01*
X99372802Y-32646224D01*
X99375048Y-32255199D01*
X99377437Y-31901669D01*
X99379974Y-31583625D01*
X99382662Y-31299063D01*
X99385507Y-31045976D01*
X99388511Y-30822356D01*
X99391681Y-30626198D01*
X99395020Y-30455494D01*
X99398532Y-30308238D01*
X99402223Y-30182424D01*
X99406096Y-30076044D01*
X99410155Y-29987093D01*
X99414406Y-29913563D01*
X99418852Y-29853449D01*
X99423498Y-29804742D01*
X99428348Y-29765438D01*
X99433407Y-29733529D01*
X99436582Y-29716915D01*
X99638413Y-28942112D01*
X99917330Y-28225407D01*
X100276040Y-27561560D01*
X100717253Y-26945329D01*
X101080702Y-26535269D01*
X101642519Y-26011464D01*
X102241189Y-25572108D01*
X102886119Y-25211928D01*
X103586718Y-24925650D01*
X104332454Y-24712632D01*
X104357611Y-24707173D01*
X104386695Y-24701937D01*
X104421712Y-24696917D01*
X104464667Y-24692111D01*
X104517566Y-24687512D01*
X104582414Y-24683118D01*
X104661217Y-24678922D01*
X104755979Y-24674920D01*
X104868706Y-24671109D01*
X105001403Y-24667482D01*
X105156076Y-24664037D01*
X105334731Y-24660767D01*
X105539371Y-24657668D01*
X105772004Y-24654736D01*
X106034634Y-24651966D01*
X106329266Y-24649354D01*
X106657906Y-24646895D01*
X107022559Y-24644584D01*
X107425231Y-24642417D01*
X107867927Y-24640389D01*
X108352652Y-24638495D01*
X108881411Y-24636732D01*
X109456211Y-24635094D01*
X110079055Y-24633576D01*
X110751951Y-24632174D01*
X111476902Y-24630884D01*
X112255915Y-24629701D01*
X113090995Y-24628621D01*
X113984146Y-24627637D01*
X114937375Y-24626747D01*
X115952687Y-24625946D01*
X117032087Y-24625228D01*
X118177580Y-24624590D01*
X119391172Y-24624026D01*
X120674868Y-24623532D01*
X122030674Y-24623104D01*
X123460594Y-24622736D01*
X124966635Y-24622425D01*
X126550801Y-24622165D01*
X128215098Y-24621953D01*
X129961532Y-24621783D01*
X131792107Y-24621650D01*
X133708829Y-24621551D01*
X135713703Y-24621481D01*
X137808735Y-24621434D01*
X139995930Y-24621407D01*
X142277293Y-24621395D01*
X144068800Y-24621393D01*
X146422771Y-24621397D01*
X146422771Y-24621397D01*
G37*
X146422771Y-24621397D02*
X148681055Y-24621412D01*
X150845657Y-24621443D01*
X152918583Y-24621495D01*
X154901838Y-24621571D01*
X156797428Y-24621678D01*
X158607359Y-24621818D01*
X160333635Y-24621997D01*
X161978262Y-24622220D01*
X163543246Y-24622491D01*
X165030592Y-24622815D01*
X166442305Y-24623196D01*
X167780390Y-24623639D01*
X169046854Y-24624148D01*
X170243702Y-24624729D01*
X171372938Y-24625385D01*
X172436569Y-24626122D01*
X173436600Y-24626944D01*
X174375036Y-24627855D01*
X175253883Y-24628860D01*
X176075145Y-24629965D01*
X176840830Y-24631172D01*
X177552941Y-24632488D01*
X178213485Y-24633917D01*
X178824467Y-24635462D01*
X179387892Y-24637130D01*
X179905765Y-24638924D01*
X180380093Y-24640849D01*
X180812880Y-24642910D01*
X181206132Y-24645111D01*
X181561854Y-24647457D01*
X181882052Y-24649952D01*
X182168732Y-24652602D01*
X182423898Y-24655410D01*
X182649556Y-24658382D01*
X182847711Y-24661522D01*
X183020369Y-24664834D01*
X183169536Y-24668323D01*
X183297216Y-24671995D01*
X183405416Y-24675852D01*
X183496140Y-24679901D01*
X183571394Y-24684145D01*
X183633183Y-24688590D01*
X183683513Y-24693239D01*
X183724390Y-24698098D01*
X183757818Y-24703171D01*
X183785803Y-24708463D01*
X183805147Y-24712746D01*
X184589425Y-24942046D01*
X185316369Y-25250181D01*
X185987488Y-25638004D01*
X186604289Y-26106364D01*
X187082343Y-26563511D01*
X187568155Y-27139642D01*
X187971915Y-27756239D01*
X188297844Y-28421630D01*
X188550162Y-29144139D01*
X188698442Y-29752011D01*
X188703785Y-29780599D01*
X188708909Y-29814059D01*
X188713821Y-29854404D01*
X188718523Y-29903645D01*
X188723021Y-29963793D01*
X188727320Y-30036862D01*
X188731423Y-30124861D01*
X188735336Y-30229804D01*
X188739062Y-30353701D01*
X188742607Y-30498565D01*
X188745975Y-30666407D01*
X188749170Y-30859240D01*
X188752197Y-31079074D01*
X188755061Y-31327921D01*
X188757766Y-31607794D01*
X188760316Y-31920704D01*
X188762716Y-32268662D01*
X188764971Y-32653681D01*
X188767085Y-33077772D01*
X188769063Y-33542947D01*
X188770908Y-34051218D01*
X188772627Y-34604596D01*
X188774223Y-35205093D01*
X188775700Y-35854721D01*
X188777064Y-36555491D01*
X188778318Y-37309416D01*
X188779468Y-38118507D01*
X188780518Y-38984776D01*
X188781472Y-39910234D01*
X188782335Y-40896894D01*
X188783111Y-41946767D01*
X188783806Y-43061864D01*
X188784423Y-44244198D01*
X188784967Y-45495781D01*
X188785442Y-46818623D01*
X188785854Y-48214737D01*
X188786206Y-49686134D01*
X188786503Y-51234827D01*
X188786750Y-52862826D01*
X188786951Y-54572144D01*
X188787110Y-56364793D01*
X188787233Y-58242784D01*
X188787324Y-60208128D01*
X188787387Y-62262838D01*
X188787426Y-64408926D01*
X188787447Y-66648403D01*
X188787454Y-68983280D01*
X188787454Y-69315624D01*
X188787449Y-71664112D01*
X188787430Y-73916920D01*
X188787392Y-76076058D01*
X188787331Y-78143539D01*
X188787243Y-80121373D01*
X188787124Y-82011572D01*
X188786967Y-83816147D01*
X188786770Y-85537111D01*
X188786528Y-87176473D01*
X188786235Y-88736247D01*
X188785888Y-90218443D01*
X188785482Y-91625072D01*
X188785013Y-92958147D01*
X188784476Y-94219678D01*
X188783866Y-95411678D01*
X188783179Y-96536157D01*
X188782411Y-97595127D01*
X188781557Y-98590600D01*
X188780613Y-99524586D01*
X188779573Y-100399098D01*
X188778434Y-101216147D01*
X188777191Y-101977744D01*
X188775839Y-102685901D01*
X188774375Y-103342629D01*
X188772793Y-103949940D01*
X188771089Y-104509845D01*
X188769258Y-105024356D01*
X188767296Y-105495484D01*
X188765199Y-105925240D01*
X188762962Y-106315636D01*
X188760580Y-106668684D01*
X188758049Y-106986395D01*
X188755365Y-107270780D01*
X188752522Y-107523850D01*
X188749517Y-107747619D01*
X188746345Y-107944095D01*
X188743001Y-108115292D01*
X188739481Y-108263221D01*
X188735780Y-108389893D01*
X188731894Y-108497319D01*
X188727819Y-108587512D01*
X188723550Y-108662482D01*
X188719082Y-108724241D01*
X188714410Y-108774800D01*
X188709531Y-108816171D01*
X188704440Y-108850366D01*
X188699133Y-108879395D01*
X188698809Y-108881008D01*
X188496011Y-109654489D01*
X188211531Y-110381724D01*
X187850336Y-111057825D01*
X187417393Y-111677904D01*
X186917672Y-112237073D01*
X186356138Y-112730445D01*
X185737759Y-113153131D01*
X185067503Y-113500244D01*
X184350338Y-113766896D01*
X183591231Y-113948199D01*
X183540097Y-113956990D01*
X183506349Y-113961655D01*
X183460531Y-113966130D01*
X183400656Y-113970417D01*
X183324740Y-113974519D01*
X183230798Y-113978441D01*
X183116844Y-113982186D01*
X182980895Y-113985758D01*
X182820964Y-113989161D01*
X182635068Y-113992397D01*
X182421220Y-113995471D01*
X182177436Y-113998387D01*
X181901732Y-114001147D01*
X181592121Y-114003756D01*
X181246620Y-114006217D01*
X180863243Y-114008534D01*
X180440005Y-114010711D01*
X179974921Y-114012751D01*
X179466007Y-114014657D01*
X178911276Y-114016434D01*
X178308745Y-114018084D01*
X177656429Y-114019613D01*
X176952342Y-114021022D01*
X176194499Y-114022317D01*
X175380915Y-114023500D01*
X174509606Y-114024575D01*
X173578587Y-114025546D01*
X172585872Y-114026416D01*
X171529477Y-114027190D01*
X170407416Y-114027870D01*
X169217705Y-114028461D01*
X167958358Y-114028965D01*
X166627391Y-114029387D01*
X165222819Y-114029731D01*
X163742657Y-114029999D01*
X162184919Y-114030195D01*
X160547621Y-114030324D01*
X158828778Y-114030389D01*
X157026405Y-114030393D01*
X155138517Y-114030339D01*
X153163128Y-114030233D01*
X151098255Y-114030077D01*
X148941912Y-114029875D01*
X146692113Y-114029630D01*
X144346875Y-114029347D01*
X144023558Y-114029306D01*
X141641190Y-114028984D01*
X139354608Y-114028636D01*
X137161903Y-114028257D01*
X135061170Y-114027844D01*
X133050500Y-114027394D01*
X131127988Y-114026903D01*
X129291725Y-114026367D01*
X127539806Y-114025784D01*
X125870321Y-114025148D01*
X124281366Y-114024457D01*
X122771032Y-114023708D01*
X121337413Y-114022895D01*
X119978601Y-114022017D01*
X118692689Y-114021070D01*
X117477771Y-114020049D01*
X116331939Y-114018952D01*
X115253286Y-114017774D01*
X114239905Y-114016513D01*
X113289889Y-114015164D01*
X112401331Y-114013724D01*
X111572324Y-114012190D01*
X110800961Y-114010558D01*
X110085335Y-114008824D01*
X109423538Y-114006985D01*
X108813663Y-114005038D01*
X108253804Y-114002978D01*
X107742054Y-114000802D01*
X107276505Y-113998507D01*
X106855250Y-113996088D01*
X106476382Y-113993543D01*
X106137994Y-113990868D01*
X105838180Y-113988060D01*
X105575031Y-113985114D01*
X105346642Y-113982027D01*
X105151104Y-113978796D01*
X104986511Y-113975417D01*
X104850955Y-113971886D01*
X104742531Y-113968201D01*
X104659329Y-113964356D01*
X104599445Y-113960350D01*
X104560969Y-113956178D01*
X104556987Y-113955547D01*
X103821950Y-113783412D01*
X103109999Y-113519435D01*
X102430753Y-113168534D01*
X101793832Y-112735627D01*
X101248047Y-112263869D01*
X100719020Y-111688056D01*
X100274194Y-111064719D01*
X99912086Y-110391117D01*
X99631214Y-109664508D01*
X99436582Y-108914332D01*
X99431394Y-108885933D01*
X99426418Y-108851358D01*
X99421648Y-108808598D01*
X99417081Y-108755649D01*
X99412713Y-108690502D01*
X99408537Y-108611152D01*
X99404552Y-108515592D01*
X99400751Y-108401815D01*
X99397131Y-108267814D01*
X99393687Y-108111584D01*
X99390416Y-107931118D01*
X99387311Y-107724408D01*
X99384370Y-107489448D01*
X99381587Y-107224232D01*
X99378959Y-106926754D01*
X99376481Y-106595005D01*
X99374148Y-106226981D01*
X99371957Y-105820674D01*
X99369903Y-105374077D01*
X99367980Y-104885185D01*
X99366186Y-104351990D01*
X99364516Y-103772485D01*
X99362965Y-103144666D01*
X99361529Y-102466523D01*
X99360204Y-101736052D01*
X99358984Y-100951246D01*
X99357867Y-100110097D01*
X99356846Y-99210599D01*
X99355919Y-98250746D01*
X99355081Y-97228531D01*
X99354327Y-96141948D01*
X99353652Y-94988989D01*
X99353054Y-93767649D01*
X99352526Y-92475920D01*
X99352065Y-91111796D01*
X99351667Y-89673271D01*
X99351326Y-88158338D01*
X99351039Y-86564990D01*
X99350802Y-84891220D01*
X99350609Y-83135023D01*
X99350457Y-81294390D01*
X99350340Y-79367317D01*
X99350256Y-77351796D01*
X99350199Y-75245821D01*
X99350165Y-73047384D01*
X99350149Y-70754480D01*
X99350147Y-69315624D01*
X99350153Y-66964393D01*
X99350175Y-64708849D01*
X99350218Y-62546984D01*
X99350286Y-60476791D01*
X99350382Y-58496264D01*
X99350512Y-56603396D01*
X99350680Y-54796182D01*
X99350890Y-53072613D01*
X99351018Y-52246388D01*
X100846695Y-52246388D01*
X100846755Y-54222429D01*
X100846959Y-56290858D01*
X100847307Y-58452478D01*
X100847798Y-60708087D01*
X100848432Y-63058488D01*
X100849207Y-65504480D01*
X100850123Y-68046864D01*
X100850766Y-69681970D01*
X100851718Y-72017565D01*
X100852644Y-74257486D01*
X100853551Y-76403752D01*
X100854444Y-78458381D01*
X100855329Y-80423393D01*
X100856210Y-82300805D01*
X100857094Y-84092636D01*
X100857984Y-85800904D01*
X100858888Y-87427629D01*
X100859811Y-88974829D01*
X100860756Y-90444522D01*
X100861732Y-91838726D01*
X100862741Y-93159461D01*
X100863791Y-94408746D01*
X100864886Y-95588597D01*
X100866031Y-96701035D01*
X100867233Y-97748078D01*
X100868496Y-98731743D01*
X100869826Y-99654051D01*
X100871228Y-100517019D01*
X100872708Y-101322665D01*
X100874272Y-102073010D01*
X100875923Y-102770070D01*
X100877669Y-103415865D01*
X100879514Y-104012413D01*
X100881463Y-104561733D01*
X100883523Y-105065843D01*
X100885698Y-105526762D01*
X100887994Y-105946508D01*
X100890416Y-106327101D01*
X100892970Y-106670558D01*
X100895660Y-106978898D01*
X100898494Y-107254139D01*
X100901475Y-107498301D01*
X100904609Y-107713402D01*
X100907902Y-107901460D01*
X100911359Y-108064494D01*
X100914986Y-108204522D01*
X100918787Y-108323563D01*
X100922769Y-108423636D01*
X100926936Y-108506759D01*
X100931294Y-108574951D01*
X100935849Y-108630230D01*
X100940605Y-108674615D01*
X100945569Y-108710125D01*
X100950745Y-108738777D01*
X100955230Y-108758893D01*
X101163860Y-109426152D01*
X101451265Y-110043159D01*
X101811812Y-110604491D01*
X102239864Y-111104726D01*
X102729786Y-111538442D01*
X103275944Y-111900215D01*
X103872701Y-112184625D01*
X104514422Y-112386248D01*
X104783789Y-112442747D01*
X104857747Y-112447310D01*
X105026552Y-112451744D01*
X105287357Y-112456050D01*
X105637318Y-112460227D01*
X106073588Y-112464276D01*
X106593322Y-112468197D01*
X107193675Y-112471988D01*
X107871800Y-112475650D01*
X108624852Y-112479183D01*
X109449985Y-112482587D01*
X110344354Y-112485860D01*
X111305113Y-112489004D01*
X112329416Y-112492017D01*
X113414417Y-112494900D01*
X114557272Y-112497652D01*
X115755134Y-112500274D01*
X117005157Y-112502765D01*
X118304497Y-112505124D01*
X119650307Y-112507352D01*
X121039741Y-112509449D01*
X122469955Y-112511413D01*
X123938102Y-112513246D01*
X125441336Y-112514946D01*
X126976813Y-112516514D01*
X128541686Y-112517950D01*
X130133109Y-112519252D01*
X131748238Y-112520422D01*
X133384225Y-112521458D01*
X135038227Y-112522361D01*
X136707397Y-112523130D01*
X138388889Y-112523766D01*
X140079857Y-112524267D01*
X141777457Y-112524634D01*
X143478842Y-112524867D01*
X145181167Y-112524965D01*
X146881586Y-112524928D01*
X148577254Y-112524757D01*
X150265324Y-112524449D01*
X151942951Y-112524007D01*
X153607290Y-112523429D01*
X155255494Y-112522715D01*
X156884718Y-112521865D01*
X158492117Y-112520878D01*
X160074845Y-112519755D01*
X161630056Y-112518496D01*
X163154904Y-112517099D01*
X164646544Y-112515566D01*
X166102130Y-112513895D01*
X167518817Y-112512087D01*
X168893758Y-112510141D01*
X170224109Y-112508057D01*
X171507023Y-112505835D01*
X172739655Y-112503475D01*
X173919159Y-112500976D01*
X175042689Y-112498338D01*
X176107400Y-112495562D01*
X177110447Y-112492646D01*
X178048983Y-112489592D01*
X178920163Y-112486397D01*
X179721141Y-112483063D01*
X180449071Y-112479589D01*
X181101109Y-112475975D01*
X181674408Y-112472220D01*
X182166122Y-112468325D01*
X182573406Y-112464290D01*
X182893414Y-112460113D01*
X183123301Y-112455795D01*
X183260221Y-112451336D01*
X183298075Y-112448351D01*
X183970567Y-112283414D01*
X184596043Y-112034541D01*
X185169987Y-111705762D01*
X185687885Y-111301104D01*
X186145223Y-110824594D01*
X186537486Y-110280260D01*
X186860160Y-109672130D01*
X187089887Y-109065482D01*
X187224377Y-108636777D01*
X187224377Y-29994470D01*
X187086839Y-29554854D01*
X186833359Y-28897745D01*
X186504152Y-28297434D01*
X186104155Y-27758679D01*
X185638304Y-27286234D01*
X185111533Y-26884855D01*
X184528780Y-26559297D01*
X183894979Y-26314317D01*
X183652600Y-26246085D01*
X183218993Y-26135624D01*
X104869762Y-26135624D01*
X104454570Y-26248996D01*
X103831876Y-26464099D01*
X103242220Y-26756750D01*
X102702438Y-27117000D01*
X102229368Y-27534897D01*
X102165174Y-27601969D01*
X101737599Y-28119441D01*
X101399158Y-28665697D01*
X101145620Y-29250184D01*
X100972752Y-29882352D01*
X100886965Y-30455367D01*
X100883493Y-30527434D01*
X100880182Y-30673476D01*
X100877032Y-30894294D01*
X100874042Y-31190687D01*
X100871212Y-31563456D01*
X100868541Y-32013402D01*
X100866027Y-32541327D01*
X100863671Y-33148029D01*
X100861471Y-33834310D01*
X100859427Y-34600971D01*
X100857538Y-35448812D01*
X100855804Y-36378634D01*
X100854223Y-37391237D01*
X100852794Y-38487423D01*
X100851518Y-39667991D01*
X100850393Y-40933742D01*
X100849419Y-42285478D01*
X100848595Y-43723997D01*
X100847920Y-45250103D01*
X100847393Y-46864594D01*
X100847014Y-48568271D01*
X100846781Y-50361936D01*
X100846695Y-52246388D01*
X99351018Y-52246388D01*
X99351146Y-51430684D01*
X99351453Y-49868387D01*
X99351816Y-48383717D01*
X99352239Y-46974667D01*
X99352725Y-45639229D01*
X99353280Y-44375398D01*
X99353908Y-43181167D01*
X99354613Y-42054530D01*
X99355400Y-40993479D01*
X99356273Y-39996008D01*
X99357236Y-39060110D01*
X99358294Y-38183780D01*
X99359451Y-37365009D01*
X99360711Y-36601793D01*
X99362080Y-35892123D01*
X99363561Y-35233994D01*
X99365158Y-34625399D01*
X99366876Y-34064331D01*
X99368720Y-33548783D01*
X99370694Y-33076750D01*
X99372802Y-32646224D01*
X99375048Y-32255199D01*
X99377437Y-31901669D01*
X99379974Y-31583625D01*
X99382662Y-31299063D01*
X99385507Y-31045976D01*
X99388511Y-30822356D01*
X99391681Y-30626198D01*
X99395020Y-30455494D01*
X99398532Y-30308238D01*
X99402223Y-30182424D01*
X99406096Y-30076044D01*
X99410155Y-29987093D01*
X99414406Y-29913563D01*
X99418852Y-29853449D01*
X99423498Y-29804742D01*
X99428348Y-29765438D01*
X99433407Y-29733529D01*
X99436582Y-29716915D01*
X99638413Y-28942112D01*
X99917330Y-28225407D01*
X100276040Y-27561560D01*
X100717253Y-26945329D01*
X101080702Y-26535269D01*
X101642519Y-26011464D01*
X102241189Y-25572108D01*
X102886119Y-25211928D01*
X103586718Y-24925650D01*
X104332454Y-24712632D01*
X104357611Y-24707173D01*
X104386695Y-24701937D01*
X104421712Y-24696917D01*
X104464667Y-24692111D01*
X104517566Y-24687512D01*
X104582414Y-24683118D01*
X104661217Y-24678922D01*
X104755979Y-24674920D01*
X104868706Y-24671109D01*
X105001403Y-24667482D01*
X105156076Y-24664037D01*
X105334731Y-24660767D01*
X105539371Y-24657668D01*
X105772004Y-24654736D01*
X106034634Y-24651966D01*
X106329266Y-24649354D01*
X106657906Y-24646895D01*
X107022559Y-24644584D01*
X107425231Y-24642417D01*
X107867927Y-24640389D01*
X108352652Y-24638495D01*
X108881411Y-24636732D01*
X109456211Y-24635094D01*
X110079055Y-24633576D01*
X110751951Y-24632174D01*
X111476902Y-24630884D01*
X112255915Y-24629701D01*
X113090995Y-24628621D01*
X113984146Y-24627637D01*
X114937375Y-24626747D01*
X115952687Y-24625946D01*
X117032087Y-24625228D01*
X118177580Y-24624590D01*
X119391172Y-24624026D01*
X120674868Y-24623532D01*
X122030674Y-24623104D01*
X123460594Y-24622736D01*
X124966635Y-24622425D01*
X126550801Y-24622165D01*
X128215098Y-24621953D01*
X129961532Y-24621783D01*
X131792107Y-24621650D01*
X133708829Y-24621551D01*
X135713703Y-24621481D01*
X137808735Y-24621434D01*
X139995930Y-24621407D01*
X142277293Y-24621395D01*
X144068800Y-24621393D01*
X146422771Y-24621397D01*
G04 #@! TD*
D11*
G04 #@! TO.P,J5,S*
G04 #@! TO.N,/AUDIO_GND*
X181762400Y-55321200D03*
G04 #@! TO.P,J5,T*
G04 #@! TO.N,/AUDIO_SIG_L*
X176784000Y-50317400D03*
G04 #@! TO.P,J5,R*
G04 #@! TO.N,/AUDIO_SIG_R*
X176784000Y-60401200D03*
G04 #@! TD*
D12*
G04 #@! TO.P,Y1,2*
G04 #@! TO.N,/XTAL1*
X166014000Y-38743200D03*
G04 #@! TO.P,Y1,1*
G04 #@! TO.N,/XTAL2*
X166014000Y-30243200D03*
G04 #@! TD*
D13*
G04 #@! TO.P,X1,*
G04 #@! TO.N,*
X104851000Y-29768800D03*
G04 #@! TD*
G04 #@! TO.P,X4,*
G04 #@! TO.N,*
X104597000Y-108153000D03*
G04 #@! TD*
G04 #@! TO.P,X3,*
G04 #@! TO.N,*
X183591000Y-108204000D03*
G04 #@! TD*
G04 #@! TO.P,X2,*
G04 #@! TO.N,*
X183083000Y-29921200D03*
G04 #@! TD*
D14*
G04 #@! TO.P,C1,2*
G04 #@! TO.N,GND*
X175037000Y-32382900D03*
G04 #@! TO.P,C1,1*
G04 #@! TO.N,+12V*
X171037000Y-32382900D03*
G04 #@! TD*
G04 #@! TO.P,C2,2*
G04 #@! TO.N,GND*
X175037000Y-43142900D03*
G04 #@! TO.P,C2,1*
G04 #@! TO.N,+12V*
X171037000Y-43142900D03*
G04 #@! TD*
G04 #@! TO.P,C3,1*
G04 #@! TO.N,+12V*
X171037000Y-28702900D03*
G04 #@! TO.P,C3,2*
G04 #@! TO.N,GND*
X175037000Y-28702900D03*
G04 #@! TD*
G04 #@! TO.P,C4,1*
G04 #@! TO.N,+5V*
X171037000Y-39622900D03*
G04 #@! TO.P,C4,2*
G04 #@! TO.N,GND*
X175037000Y-39622900D03*
G04 #@! TD*
G04 #@! TO.P,C5,1*
G04 #@! TO.N,GND*
X168268000Y-46685200D03*
G04 #@! TO.P,C5,2*
G04 #@! TO.N,/XTAL1*
X164268000Y-46685200D03*
G04 #@! TD*
G04 #@! TO.P,C6,2*
G04 #@! TO.N,/XTAL2*
X171076000Y-46685200D03*
G04 #@! TO.P,C6,1*
G04 #@! TO.N,GND*
X175076000Y-46685200D03*
G04 #@! TD*
G04 #@! TO.P,C7,2*
G04 #@! TO.N,GND*
X175037000Y-36052900D03*
G04 #@! TO.P,C7,1*
G04 #@! TO.N,+5V*
X171037000Y-36052900D03*
G04 #@! TD*
D15*
G04 #@! TO.P,J1,3*
G04 #@! TO.N,GND*
X112113000Y-43765200D03*
G04 #@! TO.P,J1,2*
X109113000Y-39065200D03*
G04 #@! TO.P,J1,1*
G04 #@! TO.N,Net-(J1-Pad1)*
X115113000Y-39065200D03*
G04 #@! TD*
D16*
G04 #@! TO.P,J2,1*
G04 #@! TO.N,/MISO_ICSP*
X181254000Y-76962000D03*
D17*
G04 #@! TO.P,J2,2*
G04 #@! TO.N,+5V*
X181254000Y-79502000D03*
G04 #@! TO.P,J2,3*
G04 #@! TO.N,/SCK_ICSP*
X178714000Y-76962000D03*
G04 #@! TO.P,J2,4*
G04 #@! TO.N,/MOSI_ICSP*
X178714000Y-79502000D03*
G04 #@! TO.P,J2,5*
G04 #@! TO.N,/RST*
X176174000Y-76962000D03*
G04 #@! TO.P,J2,6*
G04 #@! TO.N,GND*
X176174000Y-79502000D03*
G04 #@! TD*
D18*
G04 #@! TO.P,J3,*
G04 #@! TO.N,*
X183982560Y-45852080D03*
X178483460Y-45852080D03*
G04 #@! TO.P,J3,6*
G04 #@! TO.N,Net-(J3-Pad6)*
X178483460Y-36951920D03*
G04 #@! TO.P,J3,*
G04 #@! TO.N,*
X183982560Y-36951920D03*
D19*
X180982820Y-43601640D03*
X180982820Y-39202360D03*
D20*
G04 #@! TO.P,J3,5*
G04 #@! TO.N,GND*
X178381860Y-39801800D03*
G04 #@! TO.P,J3,4*
G04 #@! TO.N,Net-(J3-Pad4)*
X178381860Y-40601900D03*
G04 #@! TO.P,J3,3*
G04 #@! TO.N,Net-(J3-Pad3)*
X178381860Y-41402000D03*
G04 #@! TO.P,J3,2*
G04 #@! TO.N,Net-(J3-Pad2)*
X178381860Y-42202100D03*
G04 #@! TO.P,J3,1*
G04 #@! TO.N,+5V*
X178381860Y-43002200D03*
G04 #@! TD*
D21*
G04 #@! TO.P,J4,2*
G04 #@! TO.N,+5V*
X182829000Y-65227200D03*
D22*
G04 #@! TO.P,J4,1*
G04 #@! TO.N,GND*
X182829000Y-70307200D03*
G04 #@! TD*
D23*
G04 #@! TO.P,R1,1*
G04 #@! TO.N,+5V*
X115487000Y-32816800D03*
G04 #@! TO.P,R1,2*
G04 #@! TO.N,/RST*
X111487000Y-32816800D03*
G04 #@! TD*
G04 #@! TO.P,R2,2*
G04 #@! TO.N,/CS*
X111487000Y-27381200D03*
G04 #@! TO.P,R2,1*
G04 #@! TO.N,GND*
X115487000Y-27381200D03*
G04 #@! TD*
G04 #@! TO.P,R3,1*
G04 #@! TO.N,/MOSI_ICSP*
X115487000Y-30073600D03*
G04 #@! TO.P,R3,2*
G04 #@! TO.N,/MOSI*
X111487000Y-30073600D03*
G04 #@! TD*
G04 #@! TO.P,R4,2*
G04 #@! TO.N,/MISO*
X110725000Y-49834800D03*
G04 #@! TO.P,R4,1*
G04 #@! TO.N,/MISO_ICSP*
X114725000Y-49834800D03*
G04 #@! TD*
G04 #@! TO.P,R5,2*
G04 #@! TO.N,/SCK*
X110725000Y-47498000D03*
G04 #@! TO.P,R5,1*
G04 #@! TO.N,/SCK_ICSP*
X114725000Y-47498000D03*
G04 #@! TD*
D22*
G04 #@! TO.P,SW1,1*
G04 #@! TO.N,Net-(J1-Pad1)*
X105156000Y-46685200D03*
D21*
G04 #@! TO.P,SW1,2*
G04 #@! TO.N,+12V*
X105156000Y-51765200D03*
G04 #@! TD*
D24*
G04 #@! TO.P,U1,3*
G04 #@! TO.N,+5V*
X162712000Y-56642001D03*
G04 #@! TO.P,U1,2*
G04 #@! TO.N,GND*
X162712000Y-59182000D03*
D25*
G04 #@! TO.P,U1,1*
G04 #@! TO.N,/IR_DATA*
X162712000Y-61722000D03*
G04 #@! TD*
D26*
G04 #@! TO.P,U2,26*
G04 #@! TO.N,/MISO*
X144780000Y-28905200D03*
G04 #@! TO.P,U2,20*
G04 #@! TO.N,Net-(U2-Pad20)*
X129540000Y-28905200D03*
G04 #@! TO.P,U2,27*
G04 #@! TO.N,/MOSI*
X147320000Y-28905200D03*
G04 #@! TO.P,U2,25*
G04 #@! TO.N,GND*
X142240000Y-28905200D03*
G04 #@! TO.P,U2,22*
G04 #@! TO.N,/DREQ*
X134620000Y-28905200D03*
G04 #@! TO.P,U2,28*
G04 #@! TO.N,/SCK*
X149860000Y-28905200D03*
G04 #@! TO.P,U2,21*
G04 #@! TO.N,GND*
X132080000Y-28905200D03*
G04 #@! TO.P,U2,29*
G04 #@! TO.N,/VS1053_RST*
X152400000Y-28905200D03*
G04 #@! TO.P,U2,18*
G04 #@! TO.N,/AUDIO_SIG_L*
X124460000Y-28905200D03*
G04 #@! TO.P,U2,32*
G04 #@! TO.N,/XDCS*
X160020000Y-28905200D03*
G04 #@! TO.P,U2,30*
G04 #@! TO.N,/CS*
X154940000Y-28905200D03*
G04 #@! TO.P,U2,24*
G04 #@! TO.N,Net-(U2-Pad24)*
X139700000Y-28905200D03*
G04 #@! TO.P,U2,31*
G04 #@! TO.N,/SDCS*
X157480000Y-28905200D03*
G04 #@! TO.P,U2,19*
G04 #@! TO.N,/AUDIO_GND*
X127000000Y-28905200D03*
G04 #@! TO.P,U2,23*
G04 #@! TO.N,+5V*
X137160000Y-28905200D03*
D27*
G04 #@! TO.P,U2,17*
G04 #@! TO.N,/AUDIO_SIG_R*
X121920000Y-28905200D03*
D28*
G04 #@! TO.P,U2,1*
G04 #@! TO.N,Net-(U2-Pad1)*
X121920000Y-51892200D03*
D26*
G04 #@! TO.P,U2,2*
G04 #@! TO.N,Net-(U2-Pad2)*
X124460000Y-51892200D03*
G04 #@! TO.P,U2,3*
G04 #@! TO.N,Net-(U2-Pad3)*
X127000000Y-51892200D03*
G04 #@! TO.P,U2,4*
G04 #@! TO.N,Net-(U2-Pad4)*
X129540000Y-51892200D03*
G04 #@! TO.P,U2,5*
G04 #@! TO.N,Net-(U2-Pad5)*
X132080000Y-51892200D03*
G04 #@! TO.P,U2,6*
G04 #@! TO.N,Net-(U2-Pad6)*
X134620000Y-51892200D03*
G04 #@! TO.P,U2,7*
G04 #@! TO.N,Net-(U2-Pad7)*
X137160000Y-51892200D03*
G04 #@! TO.P,U2,8*
G04 #@! TO.N,Net-(U2-Pad8)*
X139700000Y-51892200D03*
G04 #@! TO.P,U2,9*
G04 #@! TO.N,Net-(U2-Pad9)*
X142240000Y-51892200D03*
G04 #@! TO.P,U2,10*
G04 #@! TO.N,Net-(U2-Pad10)*
X144780000Y-51892200D03*
G04 #@! TO.P,U2,11*
G04 #@! TO.N,Net-(U2-Pad11)*
X147320000Y-51892200D03*
G04 #@! TO.P,U2,12*
G04 #@! TO.N,Net-(U2-Pad12)*
X149860000Y-51892200D03*
G04 #@! TO.P,U2,13*
G04 #@! TO.N,Net-(U2-Pad13)*
X152400000Y-51892200D03*
G04 #@! TO.P,U2,14*
G04 #@! TO.N,Net-(U2-Pad14)*
X154940000Y-51892200D03*
G04 #@! TO.P,U2,15*
G04 #@! TO.N,Net-(U2-Pad15)*
X157480000Y-51892200D03*
G04 #@! TO.P,U2,16*
G04 #@! TO.N,Net-(U2-Pad16)*
X160020000Y-51892200D03*
G04 #@! TD*
D29*
G04 #@! TO.P,U3,3*
G04 #@! TO.N,+5V*
X152400000Y-79908400D03*
G04 #@! TO.P,U3,2*
G04 #@! TO.N,GND*
X154940000Y-79908400D03*
D25*
G04 #@! TO.P,U3,1*
G04 #@! TO.N,+12V*
X157480000Y-79908400D03*
G04 #@! TD*
D11*
G04 #@! TO.P,J7,2*
G04 #@! TO.N,+5V*
X115824000Y-57048400D03*
G04 #@! TO.P,J7,1*
G04 #@! TO.N,GND*
X118364000Y-57048400D03*
G04 #@! TO.P,J7,3*
G04 #@! TO.N,/SDA*
X113284000Y-57048400D03*
G04 #@! TO.P,J7,4*
G04 #@! TO.N,/SCL*
X110744000Y-57048400D03*
G04 #@! TD*
D30*
G04 #@! TO.N,GND*
G04 #@! TO.C,C8*
G36*
X166363504Y-63489804D02*
X166387773Y-63493404D01*
X166411571Y-63499365D01*
X166434671Y-63507630D01*
X166456849Y-63518120D01*
X166477893Y-63530733D01*
X166497598Y-63545347D01*
X166515777Y-63561823D01*
X166532253Y-63580002D01*
X166546867Y-63599707D01*
X166559480Y-63620751D01*
X166569970Y-63642929D01*
X166578235Y-63666029D01*
X166584196Y-63689827D01*
X166587796Y-63714096D01*
X166589000Y-63738600D01*
X166589000Y-64988600D01*
X166587796Y-65013104D01*
X166584196Y-65037373D01*
X166578235Y-65061171D01*
X166569970Y-65084271D01*
X166559480Y-65106449D01*
X166546867Y-65127493D01*
X166532253Y-65147198D01*
X166515777Y-65165377D01*
X166497598Y-65181853D01*
X166477893Y-65196467D01*
X166456849Y-65209080D01*
X166434671Y-65219570D01*
X166411571Y-65227835D01*
X166387773Y-65233796D01*
X166363504Y-65237396D01*
X166339000Y-65238600D01*
X165414000Y-65238600D01*
X165389496Y-65237396D01*
X165365227Y-65233796D01*
X165341429Y-65227835D01*
X165318329Y-65219570D01*
X165296151Y-65209080D01*
X165275107Y-65196467D01*
X165255402Y-65181853D01*
X165237223Y-65165377D01*
X165220747Y-65147198D01*
X165206133Y-65127493D01*
X165193520Y-65106449D01*
X165183030Y-65084271D01*
X165174765Y-65061171D01*
X165168804Y-65037373D01*
X165165204Y-65013104D01*
X165164000Y-64988600D01*
X165164000Y-63738600D01*
X165165204Y-63714096D01*
X165168804Y-63689827D01*
X165174765Y-63666029D01*
X165183030Y-63642929D01*
X165193520Y-63620751D01*
X165206133Y-63599707D01*
X165220747Y-63580002D01*
X165237223Y-63561823D01*
X165255402Y-63545347D01*
X165275107Y-63530733D01*
X165296151Y-63518120D01*
X165318329Y-63507630D01*
X165341429Y-63499365D01*
X165365227Y-63493404D01*
X165389496Y-63489804D01*
X165414000Y-63488600D01*
X166339000Y-63488600D01*
X166363504Y-63489804D01*
X166363504Y-63489804D01*
G37*
D31*
G04 #@! TD*
G04 #@! TO.P,C8,1*
G04 #@! TO.N,GND*
X165876500Y-64363600D03*
D30*
G04 #@! TO.N,+5V*
G04 #@! TO.C,C8*
G36*
X163388504Y-63489804D02*
X163412773Y-63493404D01*
X163436571Y-63499365D01*
X163459671Y-63507630D01*
X163481849Y-63518120D01*
X163502893Y-63530733D01*
X163522598Y-63545347D01*
X163540777Y-63561823D01*
X163557253Y-63580002D01*
X163571867Y-63599707D01*
X163584480Y-63620751D01*
X163594970Y-63642929D01*
X163603235Y-63666029D01*
X163609196Y-63689827D01*
X163612796Y-63714096D01*
X163614000Y-63738600D01*
X163614000Y-64988600D01*
X163612796Y-65013104D01*
X163609196Y-65037373D01*
X163603235Y-65061171D01*
X163594970Y-65084271D01*
X163584480Y-65106449D01*
X163571867Y-65127493D01*
X163557253Y-65147198D01*
X163540777Y-65165377D01*
X163522598Y-65181853D01*
X163502893Y-65196467D01*
X163481849Y-65209080D01*
X163459671Y-65219570D01*
X163436571Y-65227835D01*
X163412773Y-65233796D01*
X163388504Y-65237396D01*
X163364000Y-65238600D01*
X162439000Y-65238600D01*
X162414496Y-65237396D01*
X162390227Y-65233796D01*
X162366429Y-65227835D01*
X162343329Y-65219570D01*
X162321151Y-65209080D01*
X162300107Y-65196467D01*
X162280402Y-65181853D01*
X162262223Y-65165377D01*
X162245747Y-65147198D01*
X162231133Y-65127493D01*
X162218520Y-65106449D01*
X162208030Y-65084271D01*
X162199765Y-65061171D01*
X162193804Y-65037373D01*
X162190204Y-65013104D01*
X162189000Y-64988600D01*
X162189000Y-63738600D01*
X162190204Y-63714096D01*
X162193804Y-63689827D01*
X162199765Y-63666029D01*
X162208030Y-63642929D01*
X162218520Y-63620751D01*
X162231133Y-63599707D01*
X162245747Y-63580002D01*
X162262223Y-63561823D01*
X162280402Y-63545347D01*
X162300107Y-63530733D01*
X162321151Y-63518120D01*
X162343329Y-63507630D01*
X162366429Y-63499365D01*
X162390227Y-63493404D01*
X162414496Y-63489804D01*
X162439000Y-63488600D01*
X163364000Y-63488600D01*
X163388504Y-63489804D01*
X163388504Y-63489804D01*
G37*
D31*
G04 #@! TD*
G04 #@! TO.P,C8,2*
G04 #@! TO.N,+5V*
X162901500Y-64363600D03*
D32*
G04 #@! TO.P,U4,1*
G04 #@! TO.N,/RST*
X125628000Y-64363600D03*
D33*
G04 #@! TO.P,U4,15*
G04 #@! TO.N,/VS1053_RST*
X158648000Y-56743600D03*
G04 #@! TO.P,U4,2*
G04 #@! TO.N,Net-(U4-Pad2)*
X128168000Y-64363600D03*
G04 #@! TO.P,U4,16*
G04 #@! TO.N,/CS*
X156108000Y-56743600D03*
G04 #@! TO.P,U4,3*
G04 #@! TO.N,Net-(U4-Pad3)*
X130708000Y-64363600D03*
G04 #@! TO.P,U4,17*
G04 #@! TO.N,/MOSI_ICSP*
X153568000Y-56743600D03*
G04 #@! TO.P,U4,4*
G04 #@! TO.N,/IR_DATA*
X133248000Y-64363600D03*
G04 #@! TO.P,U4,18*
G04 #@! TO.N,/MISO_ICSP*
X151028000Y-56743600D03*
G04 #@! TO.P,U4,5*
G04 #@! TO.N,/DREQ*
X135788000Y-64363600D03*
G04 #@! TO.P,U4,19*
G04 #@! TO.N,/SCK_ICSP*
X148488000Y-56743600D03*
G04 #@! TO.P,U4,6*
G04 #@! TO.N,/SDCS*
X138328000Y-64363600D03*
G04 #@! TO.P,U4,20*
G04 #@! TO.N,+5V*
X145948000Y-56743600D03*
G04 #@! TO.P,U4,7*
X140868000Y-64363600D03*
G04 #@! TO.P,U4,21*
G04 #@! TO.N,Net-(U4-Pad21)*
X143408000Y-56743600D03*
G04 #@! TO.P,U4,8*
G04 #@! TO.N,GND*
X143408000Y-64363600D03*
G04 #@! TO.P,U4,22*
X140868000Y-56743600D03*
G04 #@! TO.P,U4,9*
G04 #@! TO.N,/XTAL1*
X145948000Y-64363600D03*
G04 #@! TO.P,U4,23*
G04 #@! TO.N,Net-(U4-Pad23)*
X138328000Y-56743600D03*
G04 #@! TO.P,U4,10*
G04 #@! TO.N,/XTAL2*
X148488000Y-64363600D03*
G04 #@! TO.P,U4,24*
G04 #@! TO.N,Net-(U4-Pad24)*
X135788000Y-56743600D03*
G04 #@! TO.P,U4,11*
G04 #@! TO.N,Net-(U4-Pad11)*
X151028000Y-64363600D03*
G04 #@! TO.P,U4,25*
G04 #@! TO.N,Net-(U4-Pad25)*
X133248000Y-56743600D03*
G04 #@! TO.P,U4,12*
G04 #@! TO.N,Net-(U4-Pad12)*
X153568000Y-64363600D03*
G04 #@! TO.P,U4,26*
G04 #@! TO.N,Net-(U4-Pad26)*
X130708000Y-56743600D03*
G04 #@! TO.P,U4,13*
G04 #@! TO.N,Net-(U4-Pad13)*
X156108000Y-64363600D03*
G04 #@! TO.P,U4,27*
G04 #@! TO.N,/SDA*
X128168000Y-56743600D03*
G04 #@! TO.P,U4,14*
G04 #@! TO.N,/XDCS*
X158648000Y-64363600D03*
G04 #@! TO.P,U4,28*
G04 #@! TO.N,/SCL*
X125628000Y-56743600D03*
G04 #@! TD*
D30*
G04 #@! TO.N,/RST*
G04 #@! TO.C,C15*
G36*
X115461504Y-51653404D02*
X115485773Y-51657004D01*
X115509571Y-51662965D01*
X115532671Y-51671230D01*
X115554849Y-51681720D01*
X115575893Y-51694333D01*
X115595598Y-51708947D01*
X115613777Y-51725423D01*
X115630253Y-51743602D01*
X115644867Y-51763307D01*
X115657480Y-51784351D01*
X115667970Y-51806529D01*
X115676235Y-51829629D01*
X115682196Y-51853427D01*
X115685796Y-51877696D01*
X115687000Y-51902200D01*
X115687000Y-53152200D01*
X115685796Y-53176704D01*
X115682196Y-53200973D01*
X115676235Y-53224771D01*
X115667970Y-53247871D01*
X115657480Y-53270049D01*
X115644867Y-53291093D01*
X115630253Y-53310798D01*
X115613777Y-53328977D01*
X115595598Y-53345453D01*
X115575893Y-53360067D01*
X115554849Y-53372680D01*
X115532671Y-53383170D01*
X115509571Y-53391435D01*
X115485773Y-53397396D01*
X115461504Y-53400996D01*
X115437000Y-53402200D01*
X114512000Y-53402200D01*
X114487496Y-53400996D01*
X114463227Y-53397396D01*
X114439429Y-53391435D01*
X114416329Y-53383170D01*
X114394151Y-53372680D01*
X114373107Y-53360067D01*
X114353402Y-53345453D01*
X114335223Y-53328977D01*
X114318747Y-53310798D01*
X114304133Y-53291093D01*
X114291520Y-53270049D01*
X114281030Y-53247871D01*
X114272765Y-53224771D01*
X114266804Y-53200973D01*
X114263204Y-53176704D01*
X114262000Y-53152200D01*
X114262000Y-51902200D01*
X114263204Y-51877696D01*
X114266804Y-51853427D01*
X114272765Y-51829629D01*
X114281030Y-51806529D01*
X114291520Y-51784351D01*
X114304133Y-51763307D01*
X114318747Y-51743602D01*
X114335223Y-51725423D01*
X114353402Y-51708947D01*
X114373107Y-51694333D01*
X114394151Y-51681720D01*
X114416329Y-51671230D01*
X114439429Y-51662965D01*
X114463227Y-51657004D01*
X114487496Y-51653404D01*
X114512000Y-51652200D01*
X115437000Y-51652200D01*
X115461504Y-51653404D01*
X115461504Y-51653404D01*
G37*
D31*
G04 #@! TD*
G04 #@! TO.P,C15,1*
G04 #@! TO.N,/RST*
X114974500Y-52527200D03*
D30*
G04 #@! TO.N,GND*
G04 #@! TO.C,C15*
G36*
X112486504Y-51653404D02*
X112510773Y-51657004D01*
X112534571Y-51662965D01*
X112557671Y-51671230D01*
X112579849Y-51681720D01*
X112600893Y-51694333D01*
X112620598Y-51708947D01*
X112638777Y-51725423D01*
X112655253Y-51743602D01*
X112669867Y-51763307D01*
X112682480Y-51784351D01*
X112692970Y-51806529D01*
X112701235Y-51829629D01*
X112707196Y-51853427D01*
X112710796Y-51877696D01*
X112712000Y-51902200D01*
X112712000Y-53152200D01*
X112710796Y-53176704D01*
X112707196Y-53200973D01*
X112701235Y-53224771D01*
X112692970Y-53247871D01*
X112682480Y-53270049D01*
X112669867Y-53291093D01*
X112655253Y-53310798D01*
X112638777Y-53328977D01*
X112620598Y-53345453D01*
X112600893Y-53360067D01*
X112579849Y-53372680D01*
X112557671Y-53383170D01*
X112534571Y-53391435D01*
X112510773Y-53397396D01*
X112486504Y-53400996D01*
X112462000Y-53402200D01*
X111537000Y-53402200D01*
X111512496Y-53400996D01*
X111488227Y-53397396D01*
X111464429Y-53391435D01*
X111441329Y-53383170D01*
X111419151Y-53372680D01*
X111398107Y-53360067D01*
X111378402Y-53345453D01*
X111360223Y-53328977D01*
X111343747Y-53310798D01*
X111329133Y-53291093D01*
X111316520Y-53270049D01*
X111306030Y-53247871D01*
X111297765Y-53224771D01*
X111291804Y-53200973D01*
X111288204Y-53176704D01*
X111287000Y-53152200D01*
X111287000Y-51902200D01*
X111288204Y-51877696D01*
X111291804Y-51853427D01*
X111297765Y-51829629D01*
X111306030Y-51806529D01*
X111316520Y-51784351D01*
X111329133Y-51763307D01*
X111343747Y-51743602D01*
X111360223Y-51725423D01*
X111378402Y-51708947D01*
X111398107Y-51694333D01*
X111419151Y-51681720D01*
X111441329Y-51671230D01*
X111464429Y-51662965D01*
X111488227Y-51657004D01*
X111512496Y-51653404D01*
X111537000Y-51652200D01*
X112462000Y-51652200D01*
X112486504Y-51653404D01*
X112486504Y-51653404D01*
G37*
D31*
G04 #@! TD*
G04 #@! TO.P,C15,2*
G04 #@! TO.N,GND*
X111999500Y-52527200D03*
D34*
G04 #@! TO.N,GND*
X117156900Y-27955700D03*
G04 #@! TO.N,+5V*
X173888700Y-65227200D03*
G04 #@! TO.N,/MOSI_ICSP*
X117123400Y-30169800D03*
G04 #@! TO.N,/SCK_ICSP*
X114725000Y-45935000D03*
G04 #@! TO.N,/CS*
X113487000Y-27357900D03*
G04 #@! TO.N,/SCK*
X109026200Y-34580300D03*
G04 #@! TD*
D35*
G04 #@! TO.N,+12V*
X171037000Y-43142900D02*
X171037000Y-44268200D01*
X157480000Y-79908400D02*
X167391200Y-79908400D01*
X167391200Y-79908400D02*
X174828300Y-72471300D01*
X174828300Y-72471300D02*
X174828300Y-51622100D01*
X174828300Y-51622100D02*
X173222200Y-50016000D01*
X173222200Y-50016000D02*
X173222200Y-45890800D01*
X173222200Y-45890800D02*
X171599600Y-44268200D01*
X171599600Y-44268200D02*
X171037000Y-44268200D01*
X171037000Y-32382900D02*
X171037000Y-33508200D01*
X171037000Y-33508200D02*
X169711600Y-34833600D01*
X169711600Y-34833600D02*
X169711600Y-40692200D01*
X169711600Y-40692200D02*
X171037000Y-42017600D01*
X171037000Y-28702900D02*
X171037000Y-32382900D01*
X171037000Y-43142900D02*
X171037000Y-42017600D01*
G04 #@! TO.N,GND*
X162712000Y-59182000D02*
X165876500Y-62346500D01*
X165876500Y-62346500D02*
X165876500Y-64363600D01*
X175882100Y-39801800D02*
X175882100Y-41172500D01*
X175882100Y-41172500D02*
X175037000Y-42017600D01*
X175037000Y-39622900D02*
X175703200Y-39622900D01*
X175703200Y-39622900D02*
X175882100Y-39801800D01*
X175882100Y-39801800D02*
X176906000Y-39801800D01*
X175037000Y-43142900D02*
X175037000Y-42017600D01*
X176174000Y-78313100D02*
X176545600Y-78313100D01*
X176545600Y-78313100D02*
X177514600Y-77344100D01*
X177514600Y-77344100D02*
X177514600Y-76375200D01*
X177514600Y-76375200D02*
X181757300Y-72132500D01*
X181757300Y-72132500D02*
X182829000Y-72132500D01*
X162712000Y-59182000D02*
X168268000Y-53626000D01*
X168268000Y-53626000D02*
X168268000Y-47810500D01*
X112113000Y-52527200D02*
X114759100Y-55173300D01*
X114759100Y-55173300D02*
X116488900Y-55173300D01*
X116488900Y-55173300D02*
X118364000Y-57048400D01*
X112113000Y-52527200D02*
X111999500Y-52527200D01*
X112113000Y-52527200D02*
X112113000Y-45840500D01*
X112113000Y-43765200D02*
X112113000Y-45840500D01*
X115487000Y-27381200D02*
X116812300Y-27381200D01*
X117156900Y-27955700D02*
X116812300Y-27611100D01*
X116812300Y-27611100D02*
X116812300Y-27381200D01*
X182829000Y-70307200D02*
X182829000Y-72132500D01*
X176174000Y-79502000D02*
X176174000Y-78313100D01*
X168268000Y-47810500D02*
X172289500Y-47810500D01*
X172289500Y-47810500D02*
X172414100Y-47685900D01*
X172414100Y-47685900D02*
X172414100Y-45724900D01*
X172414100Y-45724900D02*
X171696600Y-45007400D01*
X171696600Y-45007400D02*
X170631900Y-45007400D01*
X170631900Y-45007400D02*
X169212900Y-43588400D01*
X169212900Y-43588400D02*
X169212900Y-28237800D01*
X169212900Y-28237800D02*
X169873100Y-27577600D01*
X169873100Y-27577600D02*
X175037000Y-27577600D01*
X175037000Y-28702900D02*
X175037000Y-27577600D01*
X168268000Y-46685200D02*
X168268000Y-47810500D01*
X175037000Y-32382900D02*
X175037000Y-28702900D01*
X175037000Y-36052900D02*
X175037000Y-32382900D01*
X140868000Y-56743600D02*
X140868000Y-57868900D01*
X140868000Y-57868900D02*
X143408000Y-60408900D01*
X143408000Y-60408900D02*
X143408000Y-64363600D01*
X175076000Y-46685200D02*
X175076000Y-45559900D01*
X175076000Y-45559900D02*
X175037000Y-45520900D01*
X175037000Y-45520900D02*
X175037000Y-43142900D01*
X175037000Y-39622900D02*
X175037000Y-36052900D01*
X112113000Y-43765200D02*
X110037700Y-43765200D01*
X109113000Y-39065200D02*
X109113000Y-41140500D01*
X109113000Y-41140500D02*
X110037700Y-42065200D01*
X110037700Y-42065200D02*
X110037700Y-43765200D01*
X178381900Y-39801800D02*
X176906000Y-39801800D01*
G04 #@! TO.N,+5V*
X176862500Y-47810600D02*
X173877400Y-47810600D01*
X173877400Y-47810600D02*
X173711600Y-47644800D01*
X173711600Y-47644800D02*
X173711600Y-43422800D01*
X173711600Y-43422800D02*
X171037000Y-40748200D01*
X182829000Y-65227200D02*
X179113900Y-61512100D01*
X179113900Y-61512100D02*
X179113900Y-50062000D01*
X179113900Y-50062000D02*
X176862500Y-47810600D01*
X177644000Y-43002200D02*
X176862500Y-43783700D01*
X176862500Y-43783700D02*
X176862500Y-47810600D01*
X171037000Y-39622900D02*
X171037000Y-40748200D01*
X178381900Y-43002200D02*
X177644000Y-43002200D01*
X181254000Y-78313100D02*
X182145700Y-78313100D01*
X182145700Y-78313100D02*
X184657800Y-75801000D01*
X184657800Y-75801000D02*
X184657800Y-67056000D01*
X184657800Y-67056000D02*
X182829000Y-65227200D01*
X162901500Y-64363600D02*
X164116100Y-65578200D01*
X164116100Y-65578200D02*
X173537700Y-65578200D01*
X173537700Y-65578200D02*
X173888700Y-65227200D01*
X137160000Y-28905200D02*
X137160000Y-30080500D01*
X145948000Y-56743600D02*
X145948000Y-55618300D01*
X145948000Y-55618300D02*
X143510000Y-53180300D01*
X143510000Y-53180300D02*
X143510000Y-36430500D01*
X143510000Y-36430500D02*
X137160000Y-30080500D01*
X137160000Y-28905200D02*
X135984700Y-28905200D01*
X115487000Y-32816800D02*
X116812300Y-32816800D01*
X116812300Y-32816800D02*
X116812300Y-32307100D01*
X116812300Y-32307100D02*
X121389500Y-27729900D01*
X121389500Y-27729900D02*
X135176800Y-27729900D01*
X135176800Y-27729900D02*
X135984700Y-28537800D01*
X135984700Y-28537800D02*
X135984700Y-28905200D01*
X162712000Y-56642000D02*
X161486600Y-57867400D01*
X161486600Y-57867400D02*
X161486600Y-62948700D01*
X161486600Y-62948700D02*
X162901500Y-64363600D01*
X171037000Y-39622900D02*
X171037000Y-36052900D01*
X181254000Y-79502000D02*
X181254000Y-78313100D01*
G04 #@! TO.N,/XTAL1*
X145948000Y-64363600D02*
X147073300Y-64363600D01*
X147073300Y-64363600D02*
X147073300Y-64082300D01*
X147073300Y-64082300D02*
X147958100Y-63197500D01*
X147958100Y-63197500D02*
X151509700Y-63197500D01*
X151509700Y-63197500D02*
X152298000Y-63985800D01*
X152298000Y-63985800D02*
X152298000Y-64752100D01*
X152298000Y-64752100D02*
X153037600Y-65491700D01*
X153037600Y-65491700D02*
X159114100Y-65491700D01*
X159114100Y-65491700D02*
X160262100Y-64343700D01*
X160262100Y-64343700D02*
X160262100Y-53523500D01*
X160262100Y-53523500D02*
X164268000Y-49517600D01*
X164268000Y-49517600D02*
X164268000Y-46685200D01*
X166014000Y-38743200D02*
X164688700Y-38743200D01*
X164268000Y-46685200D02*
X164268000Y-39163900D01*
X164268000Y-39163900D02*
X164688700Y-38743200D01*
G04 #@! TO.N,/XTAL2*
X149613300Y-64363600D02*
X149613300Y-64644900D01*
X149613300Y-64644900D02*
X150910400Y-65942000D01*
X150910400Y-65942000D02*
X159300700Y-65942000D01*
X159300700Y-65942000D02*
X160712400Y-64530300D01*
X160712400Y-64530300D02*
X160712400Y-56232800D01*
X160712400Y-56232800D02*
X165912000Y-51033200D01*
X165912000Y-51033200D02*
X165912000Y-46736700D01*
X165912000Y-46736700D02*
X167088800Y-45559900D01*
X167088800Y-45559900D02*
X167339300Y-45559900D01*
X167339300Y-45559900D02*
X171076000Y-45559900D01*
X167339300Y-45559900D02*
X167339300Y-30243200D01*
X166014000Y-30243200D02*
X167339300Y-30243200D01*
X171076000Y-46685200D02*
X171076000Y-45559900D01*
X148488000Y-64363600D02*
X149613300Y-64363600D01*
G04 #@! TO.N,/RST*
X116099100Y-52527200D02*
X114974500Y-52527200D01*
X125628000Y-64363600D02*
X125628000Y-61786300D01*
X125628000Y-61786300D02*
X116368900Y-52527200D01*
X116368900Y-52527200D02*
X116099100Y-52527200D01*
X116099100Y-52527200D02*
X116099100Y-43782300D01*
X116099100Y-43782300D02*
X114006600Y-41689800D01*
X114006600Y-41689800D02*
X113764200Y-41689800D01*
X113764200Y-41689800D02*
X111487000Y-39412600D01*
X111487000Y-39412600D02*
X111487000Y-32816800D01*
G04 #@! TO.N,/MOSI_ICSP*
X117123400Y-30169800D02*
X116908500Y-30169800D01*
X116908500Y-30169800D02*
X116812300Y-30073600D01*
X115487000Y-30073600D02*
X116812300Y-30073600D01*
G04 #@! TO.N,/SCK_ICSP*
X114725000Y-46322700D02*
X114725000Y-45935000D01*
X114725000Y-47498000D02*
X114725000Y-46322700D01*
G04 #@! TO.N,/MISO_ICSP*
X114725000Y-49834800D02*
X114725000Y-51010100D01*
X151028000Y-56743600D02*
X151028000Y-57868900D01*
X151028000Y-57868900D02*
X150746700Y-57868900D01*
X150746700Y-57868900D02*
X144678000Y-63937600D01*
X144678000Y-63937600D02*
X144678000Y-64716000D01*
X144678000Y-64716000D02*
X143870500Y-65523500D01*
X143870500Y-65523500D02*
X124652100Y-65523500D01*
X124652100Y-65523500D02*
X121187800Y-62059200D01*
X121187800Y-62059200D02*
X121187800Y-57988700D01*
X121187800Y-57988700D02*
X116975600Y-53776500D01*
X116975600Y-53776500D02*
X114286900Y-53776500D01*
X114286900Y-53776500D02*
X113886900Y-53376500D01*
X113886900Y-53376500D02*
X113886900Y-51638600D01*
X113886900Y-51638600D02*
X114515400Y-51010100D01*
X114515400Y-51010100D02*
X114725000Y-51010100D01*
G04 #@! TO.N,/CS*
X154940000Y-28905200D02*
X154940000Y-30080500D01*
X156108000Y-56743600D02*
X156108000Y-55618300D01*
X156108000Y-55618300D02*
X156115300Y-55611000D01*
X156115300Y-55611000D02*
X156115300Y-31255800D01*
X156115300Y-31255800D02*
X154940000Y-30080500D01*
X111487000Y-27381200D02*
X112812300Y-27381200D01*
X113487000Y-27357900D02*
X112835600Y-27357900D01*
X112835600Y-27357900D02*
X112812300Y-27381200D01*
G04 #@! TO.N,/SCK*
X110725000Y-47498000D02*
X110725000Y-46322700D01*
X109026200Y-34580300D02*
X106992000Y-36614500D01*
X106992000Y-36614500D02*
X106992000Y-41607000D01*
X106992000Y-41607000D02*
X109549700Y-44164700D01*
X109549700Y-44164700D02*
X109549700Y-45221000D01*
X109549700Y-45221000D02*
X110651400Y-46322700D01*
X110651400Y-46322700D02*
X110725000Y-46322700D01*
G04 #@! TO.N,/MOSI*
X146144700Y-28905200D02*
X146144700Y-28537900D01*
X146144700Y-28537900D02*
X144404300Y-26797500D01*
X144404300Y-26797500D02*
X119759900Y-26797500D01*
X119759900Y-26797500D02*
X117659100Y-28898300D01*
X117659100Y-28898300D02*
X111487000Y-28898300D01*
X111487000Y-30073600D02*
X111487000Y-28898300D01*
X147320000Y-28905200D02*
X146144700Y-28905200D01*
G04 #@! TO.N,/MISO*
X143604700Y-28905200D02*
X143604700Y-28537900D01*
X143604700Y-28537900D02*
X142314600Y-27247800D01*
X142314600Y-27247800D02*
X121234700Y-27247800D01*
X121234700Y-27247800D02*
X117224100Y-31258400D01*
X117224100Y-31258400D02*
X110710200Y-31258400D01*
X110710200Y-31258400D02*
X106541700Y-35426900D01*
X106541700Y-35426900D02*
X106541700Y-42018900D01*
X106541700Y-42018900D02*
X106992000Y-42469200D01*
X106992000Y-42469200D02*
X106992000Y-46101800D01*
X106992000Y-46101800D02*
X110725000Y-49834800D01*
X144780000Y-28905200D02*
X143604700Y-28905200D01*
G04 #@! TO.N,/DREQ*
X134620000Y-28905200D02*
X134620000Y-30080500D01*
X135788000Y-64363600D02*
X135788000Y-63238300D01*
X135788000Y-63238300D02*
X136949800Y-62076500D01*
X136949800Y-62076500D02*
X136949800Y-55036000D01*
X136949800Y-55036000D02*
X135795300Y-53881500D01*
X135795300Y-53881500D02*
X135795300Y-31255800D01*
X135795300Y-31255800D02*
X134620000Y-30080500D01*
G04 #@! TO.N,/SDCS*
X157480000Y-28905200D02*
X156304700Y-28905200D01*
X138328000Y-64363600D02*
X138328000Y-63238300D01*
X138328000Y-63238300D02*
X139453300Y-62113000D01*
X139453300Y-62113000D02*
X139453300Y-56561500D01*
X139453300Y-56561500D02*
X140408800Y-55606000D01*
X140408800Y-55606000D02*
X141340500Y-55606000D01*
X141340500Y-55606000D02*
X142138000Y-56403500D01*
X142138000Y-56403500D02*
X142138000Y-57136300D01*
X142138000Y-57136300D02*
X142896100Y-57894400D01*
X142896100Y-57894400D02*
X146421700Y-57894400D01*
X146421700Y-57894400D02*
X147218000Y-57098100D01*
X147218000Y-57098100D02*
X147218000Y-53894400D01*
X147218000Y-53894400D02*
X148590000Y-52522400D01*
X148590000Y-52522400D02*
X148590000Y-32075400D01*
X148590000Y-32075400D02*
X151130000Y-29535400D01*
X151130000Y-29535400D02*
X151130000Y-28406800D01*
X151130000Y-28406800D02*
X151806900Y-27729900D01*
X151806900Y-27729900D02*
X155496800Y-27729900D01*
X155496800Y-27729900D02*
X156304700Y-28537800D01*
X156304700Y-28537800D02*
X156304700Y-28905200D01*
G04 #@! TO.N,/XDCS*
X160020000Y-28905200D02*
X160020000Y-30080500D01*
X158648000Y-64363600D02*
X158648000Y-63238300D01*
X158648000Y-63238300D02*
X159811700Y-62074600D01*
X159811700Y-62074600D02*
X159811700Y-55037900D01*
X159811700Y-55037900D02*
X158844700Y-54070900D01*
X158844700Y-54070900D02*
X158844700Y-31255800D01*
X158844700Y-31255800D02*
X160020000Y-30080500D01*
G04 #@! TO.N,/VS1053_RST*
X157522700Y-56743600D02*
X157522700Y-57024900D01*
X157522700Y-57024900D02*
X156667600Y-57880000D01*
X156667600Y-57880000D02*
X155644700Y-57880000D01*
X155644700Y-57880000D02*
X154834700Y-57070000D01*
X154834700Y-57070000D02*
X154834700Y-54953100D01*
X154834700Y-54953100D02*
X153575300Y-53693700D01*
X153575300Y-53693700D02*
X153575300Y-31255800D01*
X153575300Y-31255800D02*
X152400000Y-30080500D01*
X152400000Y-28905200D02*
X152400000Y-30080500D01*
X158648000Y-56743600D02*
X157522700Y-56743600D01*
G04 #@! TD*
M02*
