M48
;DRILL file {KiCad (5.0.2)-1} date 8/24/2019 11:33:08 AM
;FORMAT={3:3/ absolute / metric / suppress leading zeros}
FMAT,2
METRIC,TZ
T1C0.400
T2C0.800
T3C0.899
T4C0.900
T5C1.000
T6C1.016
T7C1.200
T8C1.520
T9C4.300
%
G90
G05
T1
X109026Y-34580
X113487Y-27358
X114725Y-45935
X117123Y-30170
X117157Y-27956
X173889Y-65227
T2
X125628Y-56744
X125628Y-64364
X128168Y-56744
X128168Y-64364
X130708Y-56744
X130708Y-64364
X133248Y-56744
X133248Y-64364
X135788Y-56744
X135788Y-64364
X138328Y-56744
X138328Y-64364
X140868Y-56744
X140868Y-64364
X143408Y-56744
X143408Y-64364
X145948Y-56744
X145948Y-64364
X148488Y-56744
X148488Y-64364
X151028Y-56744
X151028Y-64364
X153568Y-56744
X153568Y-64364
X156108Y-56744
X156108Y-64364
X158648Y-56744
X158648Y-64364
T3
X180983Y-39202
X180983Y-43602
T4
X162712Y-56642
X162712Y-59182
X162712Y-61722
T5
X152400Y-79908
X154940Y-79908
X157480Y-79908
X121920Y-28905
X121920Y-51892
X124460Y-28905
X124460Y-51892
X127000Y-28905
X127000Y-51892
X129540Y-28905
X129540Y-51892
X132080Y-28905
X132080Y-51892
X134620Y-28905
X134620Y-51892
X137160Y-28905
X137160Y-51892
X139700Y-28905
X139700Y-51892
X142240Y-28905
X142240Y-51892
X144780Y-28905
X144780Y-51892
X147320Y-28905
X147320Y-51892
X149860Y-28905
X149860Y-51892
X152400Y-28905
X152400Y-51892
X154940Y-28905
X154940Y-51892
X157480Y-28905
X157480Y-51892
X160020Y-28905
X160020Y-51892
T6
X176174Y-76962
X176174Y-79502
X178714Y-76962
X178714Y-79502
X181254Y-76962
X181254Y-79502
T7
X176784Y-50317
X176784Y-60401
X181762Y-55321
X110744Y-57048
X113284Y-57048
X115824Y-57048
X118364Y-57048
T8
X182829Y-65227
X182829Y-70307
X105156Y-46685
X105156Y-51765
T9
X104597Y-108153
X104851Y-29769
X183591Y-108204
X183083Y-29921
T5
X109113Y-38065G85X109113Y-40065
G05
X111113Y-43765G85X113113Y-43765
G05
X115113Y-38065G85X115113Y-40065
G05
T0
M30
